<?xml version="1.0" standalone="no"?>
<!DOCTYPE svg PUBLIC "-//W3C//DTD SVG 1.1//EN" "http://www.w3.org/Graphics/SVG/1.1/DTD/svg11.dtd" >
<svg xmlns="http://www.w3.org/2000/svg" xmlns:xlink="http://www.w3.org/1999/xlink" version="1.1">
<metadata>
Created by FontForge 20170731 at Thu Sep 30 14:49:26 2021
 By Aleksey,,,
https://www.baianat.com/
</metadata>
<defs>
<font id="Somar-Light" horiz-adv-x="0" >
  <font-face 
    font-family="Somar Light"
    font-weight="300"
    font-stretch="normal"
    units-per-em="2048"
    panose-1="0 0 4 0 0 0 0 0 0 0"
    ascent="1638"
    descent="-410"
    x-height="688"
    cap-height="934"
    bbox="-669 -579 1746 1488"
    underline-thickness="68"
    underline-position="-204"
    unicode-range="U+0020-FEFC"
  />
<missing-glyph horiz-adv-x="510" 
 />
    <glyph glyph-name="uniFDF2" unicode="&#x627;&#xfedf;&#xfee0;&#xfeea;" horiz-adv-x="1825" arabic-form="isolated" 
d="M987 1315v-142l-38 -11v143zM909 934q-35 0 -57 22.5t-22 66.5v35l37 8v-43q0 -50 42 -50q40 0 40 61v62l38 10v-68q0 -19 12.5 -29.5t28.5 -10.5q52 0 52 64v70l38 8v-78q0 -50 -24 -77.5t-62 -27.5q-35 0 -56 32q-7 -25 -26 -40t-41 -15zM1353 150v800h81v-822
q0 -54 -37 -91t-92 -37h-176q-87 0 -143 76q-54 -76 -152 -76h-71q-63 0 -112.5 30t-75.5 82q-89 -107 -231 -107q-106 0 -182 78.5t-76 188.5v144q0 115 75.5 191t190.5 76h282v-279l-2 -19h2v-172q0 -58 36 -95t93 -37h71q54 0 83 32.5t29 83.5v652h82v-628q0 -17 -1 -27
q1 -50 31 -81.5t82 -31.5h145q29 0 48.5 19t19.5 50zM1630 950h81v-950h-81v950zM552 190v412h-200q-81 0 -133 -52.5t-52 -133.5v-144q0 -76 52.5 -131t124.5 -55q65 0 119.5 27.5t88.5 76.5z" />
    <glyph glyph-name="uniFEF5" unicode="&#xfedf;&#xfe82;" horiz-adv-x="860" arabic-form="isolated" 
d="M202 1021l-71 -58l-23 34l102 83q12 -28 49 -45.5t78 -17.5q30 0 72 14.5t62 30.5l12 -41q-23 -20 -68 -35t-78 -15q-78 0 -135 50zM684 950h81v-822q0 -54 -37.5 -91t-91.5 -37h-587v81h191v750h82v-750h294q29 0 48.5 19t19.5 50v800z" />
    <glyph glyph-name="uniFEF6" unicode="&#xfee0;&#xfe82;" horiz-adv-x="1002" arabic-form="final" 
d="M183 953l-23 34l102 83q12 -27 49 -44.5t78 -17.5q30 0 72 14.5t62 30.5l12 -41q-22 -20 -68 -35.5t-78 -15.5q-76 0 -135 51zM924 81h81v-81h-92q-94 0 -142 79q-48 -79 -153 -79h-521v81h201v750h82v-750h238q54 0 83 32.5t29 83.5v753h82l-1 -753q0 -51 29.5 -83.5
t83.5 -32.5z" />
    <glyph glyph-name="uniFEF7" unicode="&#xfedf;&#xfe84;" horiz-adv-x="860" arabic-form="isolated" 
d="M396 964v-49h-242v49h54q-37 32 -37 90q0 53 28 83t77 30q99 0 114 -113h-46q-14 63 -68 63q-58 0 -58 -67q0 -59 52 -86h126zM684 950h81v-822q0 -54 -37.5 -91t-91.5 -37h-587v81h191v750h82v-750h294q29 0 48.5 19t19.5 50v800z" />
    <glyph glyph-name="uniFEF8" unicode="&#xfee0;&#xfe84;" horiz-adv-x="998" arabic-form="final" 
d="M440 964v-49h-241v49h52q-37 32 -37 90q0 53 28.5 83t76.5 30q100 0 115 -113h-46q-14 63 -67 63q-30 0 -43.5 -15.5t-13.5 -51.5q0 -60 50 -86h126zM924 81h81v-81h-92q-94 0 -142 79q-48 -79 -153 -79h-521v81h201v750h82v-750h238q54 0 83 32.5t29 83.5v753h82
l-1 -753q0 -51 29.5 -83.5t83.5 -32.5z" />
    <glyph glyph-name="uniFEF9" unicode="&#xfedf;&#xfe88;" horiz-adv-x="860" arabic-form="isolated" 
d="M684 950h81v-822q0 -54 -37.5 -91t-91.5 -37h-587v81h191v750h82v-750h294q29 0 48.5 19t19.5 50v800zM217 -259q0 -63 53 -88h123v-49h-240v49h52q-37 34 -37 90q0 54 28.5 84t76.5 30q100 0 115 -114h-45q-14 63 -69 63q-30 0 -43.5 -14.5t-13.5 -50.5z" />
    <glyph glyph-name="uniFEFA" unicode="&#xfee0;&#xfe88;" horiz-adv-x="998" arabic-form="final" 
d="M924 81h81v-81h-92q-94 0 -142 79q-48 -79 -153 -79h-521v81h201v750h82v-750h238q54 0 83 32.5t29 83.5v753h82l-1 -753q0 -51 29.5 -83.5t83.5 -32.5zM279 -225q0 -60 50 -86h127v-51h-242v51h52q-35 32 -35 90q0 53 27.5 82.5t77.5 29.5q100 0 115 -112h-47
q-14 63 -68 63q-57 0 -57 -67z" />
    <glyph glyph-name="uniFEFB" unicode="&#xfedf;&#xfe8e;" horiz-adv-x="860" arabic-form="isolated" 
d="M684 950h81v-822q0 -54 -37.5 -91t-91.5 -37h-587v81h191v750h82v-750h294q29 0 48.5 19t19.5 50v800z" />
    <glyph glyph-name="uniFEFC" unicode="&#xfee0;&#xfe8e;" horiz-adv-x="998" arabic-form="final" 
d="M924 81h81v-81h-92q-94 0 -142 79q-48 -79 -153 -79h-521v81h201v750h82v-750h238q54 0 83 32.5t29 83.5v753h82l-1 -753q0 -51 29.5 -83.5t83.5 -32.5z" />
    <glyph glyph-name="uni066E.init" unicode="&#x66e;" horiz-adv-x="360" 
d="M194 646h80v-477q0 -73 -48.5 -121t-121.5 -48h-105l-34 14v53l34 14h82q54 0 83.5 32.5t29.5 83.5v449z" />
    <glyph glyph-name="uni066E.medi" unicode="&#x66e;" horiz-adv-x="415" 
d="M370 81h51v-81h-61q-88 0 -144 76q-52 -76 -152 -76h-64l-35 14v53l35 14h66q53 0 82 31.5t29 82.5l-1 451h82v-449q0 -51 29.5 -83.5t82.5 -32.5z" />
    <glyph glyph-name="uni066E.fina" unicode="&#x66e;" horiz-adv-x="1224" 
d="M1158 81h75v-81h-83q-89 0 -146 76q-52 -76 -152 -76h-533q-114 0 -189 75.5t-75 189.5v243h80v-243q0 -81 51.5 -132.5t132.5 -51.5h533q54 0 83.5 31.5t29.5 82.5l-1 451h82v-449q0 -51 29 -83.5t83 -32.5z" />
    <glyph glyph-name="uni066F.fina" unicode="&#x66f;" horiz-adv-x="1032" 
d="M957 81h82v-81h-85q-17 -174 -139.5 -284.5t-301.5 -110.5h-4q-191 0 -317 126.5t-126 319.5v155h81v-155q0 -159 102 -261.5t260 -102.5h4q149 0 246.5 86.5t114.5 226.5h-200q-112 0 -186 74.5t-74 186.5v157q0 112 74 186.5t186 74.5h22q112 0 186.5 -74.5
t74.5 -186.5v-337zM494 261q0 -79 51 -129.5t129 -50.5h203v337q0 78 -51.5 129t-129.5 51h-22q-78 0 -129 -50.5t-51 -129.5v-157z" />
    <glyph glyph-name="uni06A1.init" unicode="&#x6a1;" horiz-adv-x="716" 
d="M366 683q110 0 188 -77.5t78 -189.5v-163q0 -104 -74 -178t-178 -74h-380l-35 14v53l35 14h180q-43 31 -69 80.5t-26 105.5v148q0 112 77 189.5t189 77.5h15zM550 261v155q0 78 -53.5 132t-130.5 54h-15q-78 0 -132 -54t-54 -132v-148q0 -76 53 -131t125 -55h30
q74 0 125.5 52t51.5 127z" />
    <glyph glyph-name="uni06A1.medi" unicode="&#x6a1;" horiz-adv-x="767" 
d="M575 81h203v-81h-781l-34 14v53l34 14h215q-44 32 -70 81t-26 106v147q0 118 73.5 192t203.5 74q132 0 204.5 -72.5t72.5 -193.5v-147q0 -57 -26 -106t-69 -81zM386 81q97 0 150.5 53t53.5 134v147q0 84 -51 135t-142 51q-99 0 -149.5 -49.5t-50.5 -136.5v-147
q0 -77 55 -132t134 -55z" />
    <glyph glyph-name="uni06A1.fina" unicode="&#x6a1;" horiz-adv-x="1217" 
d="M975 81h250v-81h-908q-112 1 -187 76.5t-75 188.5v179h80v-179q0 -81 51.5 -132.5t132.5 -51.5h293q-44 32 -70 81t-26 106v147q0 118 73.5 192t203.5 74q132 0 204.5 -72.5t72.5 -193.5v-147q0 -57 -25.5 -106.5t-69.5 -80.5zM786 81q97 0 150.5 53t53.5 134v147
q0 84 -51 135t-142 51q-99 0 -149.5 -49.5t-50.5 -136.5v-147q0 -77 55.5 -132t133.5 -55z" />
    <glyph glyph-name="uni06C2.fina" unicode="&#x6c2;" horiz-adv-x="704" 
d="M477 875v-49h-242v49h53q-37 32 -37 90q0 54 27.5 84t77.5 30q100 0 115 -114h-46q-14 63 -69 63q-29 0 -43 -15t-14 -50q0 -63 53 -88h125zM358 684q109 0 184.5 -76t75.5 -185v-184q0 -98 -69.5 -168t-167.5 -70h-45q-109 0 -185 75.5t-76 184.5v162q0 108 76.5 184.5
t184.5 76.5h22zM538 238v185q0 76 -52 128t-128 52h-22q-76 0 -128 -52t-52 -128v-161q0 -75 52.5 -127.5t127.5 -52.5h46q64 0 110 46t46 110z" />
    <glyph glyph-name="uni06C3.fina" unicode="&#x6c3;" horiz-adv-x="785" 
d="M295 823q-23 0 -39.5 16.5t-16.5 39.5t16.5 39.5t39.5 16.5t39.5 -16.5t16.5 -39.5t-16.5 -39.5t-39.5 -16.5zM494 823q-23 0 -39.5 16.5t-16.5 39.5t16.5 39.5t39.5 16.5q22 0 38.5 -16.5t16.5 -39.5t-16 -39.5t-39 -16.5zM763 81h29v-81h-29q-89 0 -148.5 57.5
t-62.5 145.5v398h-200q-81 0 -133 -52t-52 -134v-240h-81v240q0 115 75.5 190.5t190.5 75.5h282v-468q0 -58 36 -95t93 -37z" />
    <glyph glyph-name="uniFB57" unicode="&#x67e;" horiz-adv-x="1224" arabic-form="final" 
d="M1158 81h75v-81h-83q-89 0 -146 76q-52 -76 -152 -76h-533q-114 0 -189 75.5t-75 189.5v243h80v-243q0 -81 51.5 -132.5t132.5 -51.5h533q54 0 83.5 31.5t29.5 82.5l-1 451h82v-449q0 -51 29 -83.5t83 -32.5zM546 -198q0 -23 -16.5 -39.5t-39.5 -16.5t-39.5 16.5
t-16.5 39.5q0 22 17 39t39 17q23 0 39.5 -16.5t16.5 -39.5zM672 -142q22 0 38 -16.5t16 -39.5t-16 -39.5t-38 -16.5q-23 0 -39.5 16.5t-16.5 39.5q0 22 17 39t39 17zM579 -287q22 0 38.5 -16.5t16.5 -39.5t-16.5 -39.5t-38.5 -16.5q-23 0 -39.5 16.5t-16.5 39.5t16.5 39.5
t39.5 16.5z" />
    <glyph glyph-name="uniFB58" unicode="&#x67e;" horiz-adv-x="417" arabic-form="initial" 
d="M-20 0v81h211q28 0 47.5 19t19.5 50v497h82v-519q0 -54 -37 -91t-91 -37h-232zM111 -254q-23 0 -39.5 16.5t-16.5 39.5q0 22 16.5 38.5t39.5 16.5t39.5 -16t16.5 -39t-16.5 -39.5t-39.5 -16.5zM292 -254q-23 0 -39.5 16.5t-16.5 39.5q0 22 16.5 38.5t39.5 16.5
q22 0 38.5 -16.5t16.5 -38.5q0 -23 -16 -39.5t-39 -16.5zM199 -399q-23 0 -39.5 16.5t-16.5 39.5t16.5 39.5t39.5 16.5q22 0 38.5 -16.5t16.5 -39.5t-16.5 -39.5t-38.5 -16.5z" />
    <glyph glyph-name="uniFB59" unicode="&#x67e;" horiz-adv-x="460" arabic-form="medial" 
d="M396 81h83v-81h-93q-88 0 -144 76q-52 -76 -152 -76h-93l-35 14v53l35 14h94q53 0 82.5 31.5t29.5 82.5l-1 451h82v-449q0 -51 29.5 -83.5t82.5 -32.5zM223 -193q0 -23 -16.5 -39t-38.5 -16q-23 0 -39.5 16.5t-16.5 38.5q0 23 17 39.5t39 16.5t38.5 -16.5t16.5 -39.5z
M350 -137q22 0 38 -16.5t16 -39.5t-16 -39t-38 -16q-23 0 -39.5 16t-16.5 39t16.5 39.5t39.5 16.5zM257 -281q22 0 38 -16t16 -39t-16 -39.5t-38 -16.5q-23 0 -39.5 16.5t-16.5 39.5q0 22 16.5 38.5t39.5 16.5z" />
    <glyph glyph-name="uniFB67" unicode="&#x679;" horiz-adv-x="1224" arabic-form="final" 
d="M407 685v44h39v206h44v-120q43 45 83 45q82 0 82 -95v-80h-248zM569 818q-34 0 -79 -51v-38h123v36q0 53 -44 53zM1158 81h75v-81h-83q-89 0 -146 76q-52 -76 -152 -76h-533q-114 0 -189 75.5t-75 189.5v243h80v-243q0 -81 51.5 -132.5t132.5 -51.5h533q54 0 83.5 31.5
t29.5 82.5l-1 451h82v-449q0 -51 29 -83.5t83 -32.5z" />
    <glyph glyph-name="uniFB68" unicode="&#x679;" horiz-adv-x="360" arabic-form="initial" 
d="M270 972q82 0 82 -97v-78h-248v44h41v205h42v-119q43 45 83 45zM310 841v34q0 55 -42 55q-36 0 -81 -51v-38h123zM194 197v449h80v-477q0 -73 -48.5 -121t-121.5 -48h-105l-34 14v54l34 13h82q54 0 83.5 32.5t29.5 83.5z" />
    <glyph glyph-name="uniFB69" unicode="&#x679;" horiz-adv-x="415" arabic-form="medial" 
d="M87 816v44h40v205h44v-117q43 43 82 43q83 0 83 -97v-78h-249zM250 948q-35 0 -79 -51v-37h121v34q0 29 -10 41.5t-32 12.5zM370 81h51v-81h-61q-88 0 -144 76q-52 -76 -152 -76h-64l-35 14v53l35 14h66q53 0 82 31.5t29 82.5l-1 451h82v-449q0 -51 29.5 -83.5
t82.5 -32.5z" />
    <glyph glyph-name="uniFB6B" unicode="&#x6a4;" horiz-adv-x="1217" arabic-form="final" 
d="M799 973q-23 0 -39.5 16.5t-16.5 39.5q0 22 16.5 38.5t39.5 16.5q22 0 38 -16t16 -39t-16 -39.5t-38 -16.5zM706 829q-22 0 -39 16.5t-17 39.5t17 39.5t39 16.5t38 -16.5t16 -39.5t-16 -39.5t-38 -16.5zM896 829q-23 0 -39.5 16.5t-16.5 39.5t16.5 39.5t39.5 16.5
q22 0 38 -16.5t16 -39.5t-16 -39.5t-38 -16.5zM975 81h250v-81h-908q-112 1 -187 76.5t-75 188.5v179h80v-179q0 -81 51.5 -132.5t132.5 -51.5h293q-44 32 -70 81t-26 106v147q0 118 73.5 192t203.5 74q132 0 204.5 -72.5t72.5 -193.5v-147q0 -57 -25.5 -106.5t-69.5 -80.5z
M786 81q97 0 150.5 53t53.5 134v147q0 84 -51 135t-142 51q-99 0 -149.5 -49.5t-50.5 -136.5v-147q0 -77 55.5 -132t133.5 -55z" />
    <glyph glyph-name="uniFB6C" unicode="&#x6a4;" horiz-adv-x="716" arabic-form="initial" 
d="M366 968q-23 0 -39.5 16.5t-16.5 39.5q0 22 17 39t39 17t38.5 -16.5t16.5 -39.5t-16 -39.5t-39 -16.5zM273 823q-23 0 -39.5 16.5t-16.5 39.5t16.5 39.5t39.5 16.5t39.5 -16.5t16.5 -39.5t-16.5 -39.5t-39.5 -16.5zM463 823q-23 0 -39.5 16.5t-16.5 39.5t16.5 39.5
t39.5 16.5q22 0 38 -16.5t16 -39.5t-16 -39.5t-38 -16.5zM366 683q110 0 188 -77.5t78 -189.5v-163q0 -104 -74 -178t-178 -74h-380l-35 14v53l35 14h180q-43 31 -69 80.5t-26 105.5v148q0 112 77 189.5t189 77.5h15zM550 261v155q0 78 -53.5 132t-130.5 54h-15
q-78 0 -132 -54t-54 -132v-148q0 -76 53 -131t125 -55h30q74 0 125.5 52t51.5 127z" />
    <glyph glyph-name="uniFB6D" unicode="&#x6a4;" horiz-adv-x="767" arabic-form="medial" 
d="M399 968q-23 0 -39.5 16.5t-16.5 39.5q0 22 16.5 39t39.5 17q22 0 38 -16.5t16 -39.5t-16 -39.5t-38 -16.5zM306 823q-22 0 -39 16.5t-17 39.5t17 39.5t39 16.5q23 0 39.5 -16.5t16.5 -39.5t-16.5 -39.5t-39.5 -16.5zM496 823q-22 0 -39 16.5t-17 39.5t17 39.5t39 16.5
t38 -16.5t16 -39.5t-16 -39.5t-38 -16.5zM575 81h203v-81h-781l-34 14v53l34 14h215q-44 32 -70 81t-26 106v147q0 118 73.5 192t203.5 74q132 0 204.5 -72.5t72.5 -193.5v-147q0 -57 -26 -106t-69 -81zM386 81q97 0 150.5 53t53.5 134v147q0 84 -51 135t-142 51
q-99 0 -149.5 -49.5t-50.5 -136.5v-147q0 -77 55 -132t134 -55z" />
    <glyph glyph-name="uniFB7B" unicode="&#x686;" horiz-adv-x="959" arabic-form="final" 
d="M885 81h83v-81h-616q-93 0 -149.5 -52t-56.5 -141q0 -71 44.5 -125t115 -79.5t162.5 -20.5t181 44v-77q-104 -48 -211 -50.5t-188 33t-132.5 108.5t-51.5 167q0 122 80 198t205 76h400q-11 7 -24.5 32t-24.5 51.5t-31 74.5t-33 79q-59 133 -137 204t-165.5 78.5
t-186.5 -31.5v74q66 26 130.5 31.5t128 -12.5t120.5 -59t108 -111t89 -164q28 -72 48 -116.5t33 -70t28 -37.5t23 -15t28 -7v-1zM388 -124q15 0 26 -11t11 -25q0 -15 -11 -26t-26 -11t-26 11t-11 26q0 14 11 25t26 11zM543 -160q0 -15 -10 -26t-25 -11t-26 11t-11 26
q0 14 11 25t26 11t25 -10.5t10 -25.5zM448 -300q-15 0 -26 10.5t-11 24.5q0 15 11 26t26 11t26 -11t11 -26q0 -14 -11 -24.5t-26 -10.5z" />
    <glyph glyph-name="uniFB7C" unicode="&#x686;" horiz-adv-x="891" arabic-form="initial" 
d="M646 328q35 -89 56.5 -137.5t40 -72t28.5 -28t33 -8.5v-82h-820v81h688q-9 6 -18.5 21t-21 40.5t-22 50t-25.5 61.5t-27 64q-59 134 -135 204t-163 78t-190 -31v74q66 26 130.5 31.5t128 -12.5t120 -59t107.5 -111t90 -164zM269 -250q-23 0 -39.5 16.5t-16.5 39.5
t16.5 39t39.5 16t39 -16.5t16 -38.5q0 -23 -16 -39.5t-39 -16.5zM449 -250q-23 0 -39.5 16.5t-16.5 39.5q0 22 16.5 38.5t39.5 16.5t39 -16.5t16 -38.5q0 -23 -16 -39.5t-39 -16.5zM356 -395q-22 0 -39 16.5t-17 39.5t17 39.5t39 16.5q23 0 39.5 -16.5t16.5 -39.5
t-16.5 -39.5t-39.5 -16.5z" />
    <glyph glyph-name="uniFB7D" unicode="&#x686;" horiz-adv-x="879" arabic-form="medial" 
d="M815 81h70v-81h-881l-35 14v53l35 14h677q-11 7 -24.5 32t-24.5 51.5t-31 74.5t-33 79q-59 134 -134.5 204t-163 78t-189.5 -31v74q66 26 130 31.5t127.5 -12.5t120 -59t107 -111t89.5 -164q28 -72 48 -116.5t33.5 -70.5t28 -38t23 -15t27.5 -6v-1zM333 -194
q0 -23 -16 -39.5t-38 -16.5q-23 0 -39.5 16.5t-16.5 39.5q0 22 16.5 38.5t39.5 16.5q22 0 38 -16t16 -39zM459 -139q23 0 39.5 -16t16.5 -39t-16.5 -39.5t-39.5 -16.5t-39.5 16.5t-16.5 39.5q0 22 16.5 38.5t39.5 16.5zM367 -283q22 0 38.5 -16.5t16.5 -39.5t-16.5 -39.5
t-38.5 -16.5q-23 0 -39.5 16.5t-16.5 39.5t16.5 39.5t39.5 16.5z" />
    <glyph glyph-name="uniFB89" unicode="&#x688;" horiz-adv-x="748" arabic-form="final" 
d="M210 874v44h40v204h44v-118q43 45 83 45q82 0 82 -97v-78h-249zM373 1006q-35 0 -79 -50v-38h122v34q0 54 -43 54zM605 81h151v-81h-688v81h456v323q0 86 -55.5 141.5t-142.5 55.5h-136v80h136q120 0 199.5 -79t79.5 -198v-323z" />
    <glyph glyph-name="uniFB8B" unicode="&#x698;" horiz-adv-x="492" arabic-form="final" 
d="M280 924q-23 0 -39.5 16.5t-16.5 39.5q0 22 17 39t39 17q23 0 39.5 -16.5t16.5 -39.5t-16.5 -39.5t-39.5 -16.5zM188 780q-23 0 -39.5 16.5t-16.5 39.5t16.5 39.5t39.5 16.5q22 0 38.5 -16.5t16.5 -39.5t-16.5 -39.5t-38.5 -16.5zM377 780q-23 0 -39.5 17t-16.5 39
t16.5 39t39.5 17q22 0 38 -16.5t16 -39.5t-16 -39.5t-38 -16.5zM501 81v-81h-169v-38q0 -114 -75.5 -189t-189.5 -75h-70v81h70q80 0 132 52t52 131v689h81v-570h169z" />
    <glyph glyph-name="uniFB8D" unicode="&#x691;" horiz-adv-x="447" arabic-form="final" 
d="M146 823v44h41v205h42v-119q43 45 84 45q82 0 82 -97v-78h-249zM310 956q-36 0 -81 -51v-38h123v34q0 55 -42 55zM456 81v-81h-145v-38q0 -114 -75.5 -189t-189.5 -75h-69v81h69q81 0 133 51.5t52 131.5v689h80v-570h145z" />
    <glyph glyph-name="uniFB8F" unicode="&#x6a9;" horiz-adv-x="1223" arabic-form="final" 
d="M1050 81h175v-81h-908q-112 1 -186.5 76.5t-74.5 188.5v240h81v-240q0 -81 51.5 -132.5t132.5 -51.5h647v166q0 87 -55.5 142.5t-141.5 55.5h-402l-9 14l248 491h80l-213 -424h296q120 0 199.5 -79.5t79.5 -199.5v-166z" />
    <glyph glyph-name="uniFB90" unicode="&#x6a9;" horiz-adv-x="851" arabic-form="initial" 
d="M493 526q117 0 197.5 -81.5t80.5 -197.5q0 -103 -72 -175t-175 -72h-516l-35 14v54l35 13h511q72 0 122 51t50 123q0 82 -57 136t-141 54h-402l-8 30l247 475l63 -27l-195 -397h295z" />
    <glyph glyph-name="uniFB91" unicode="&#x6a9;" horiz-adv-x="901" arabic-form="medial" 
d="M760 81h152v-81h-915l-35 14v54l35 13h683v166q0 87 -55.5 142.5t-141.5 55.5h-402l-9 14l249 491h80l-213 -424h295q120 0 198.5 -79.5t78.5 -199.5v-166z" />
    <glyph glyph-name="uniFB93" unicode="&#x6af;" horiz-adv-x="1205" arabic-form="final" 
d="M556 952l-252 -496h-46l251 496h47zM1062 81h144v-81h-891q-112 2 -186 77.5t-74 187.5v240h80v-240q0 -81 51.5 -132.5t132.5 -51.5h663v166q0 87 -55.5 142.5t-142.5 55.5h-402l-9 14l247 491h80l-213 -424h297q120 0 199 -79.5t79 -199.5v-166z" />
    <glyph glyph-name="uniFB94" unicode="&#x6af;" horiz-adv-x="920" arabic-form="initial" 
d="M281 952h45l-254 -496h-46zM561 526q117 0 198 -81.5t81 -197.5q0 -103 -72 -175t-175 -72h-605l-36 14v54l36 13h599q72 0 122 51t50 123q0 82 -57 136t-141 54h-401l-8 30l247 475l62 -27l-195 -397h295z" />
    <glyph glyph-name="uniFB95" unicode="&#x6af;" horiz-adv-x="999" arabic-form="medial" 
d="M358 952l-252 -496h-46l251 496h47zM860 81h152v-81h-1013l-36 14v53l36 14h781v166q0 87 -55.5 142.5t-142.5 55.5h-402l-9 14l247 491h82l-215 -424h297q120 0 199 -79.5t79 -199.5v-166z" />
    <glyph glyph-name="uniFB9F" unicode="&#x6ba;" horiz-adv-x="989" arabic-form="final" 
d="M997 81v-81h-181v-5q0 -160 -107 -266t-268 -106h-4q-160 0 -265.5 106t-105.5 266v285h80v-285q0 -128 81.5 -209.5t209.5 -81.5h4q129 0 212 81.5t83 209.5v656h80v-570h181z" />
    <glyph glyph-name="uniFBA7" unicode="&#x6c1;" horiz-adv-x="827" arabic-form="final" 
d="M763 81h29v-81h-29q-89 0 -148.5 57.5t-62.5 145.5v398h-200q-81 0 -133 -52t-52 -134v-240h-81v240q0 115 75.5 190.5t190.5 75.5h282v-468q0 -58 36 -95t93 -37z" />
    <glyph glyph-name="uniFBA8" unicode="&#x6c1;" horiz-adv-x="370" arabic-form="initial" 
d="M194 646h80v-477q0 -73 -48.5 -121t-121.5 -48h-105l-34 14v54l34 13h82q54 0 83.5 32.5t29.5 83.5v449zM157 -130l8 52h67l-8 -48q-11 -74 -31.5 -167t-36.5 -141h-55q3 15 15 73.5t23 117t18 113.5z" />
    <glyph glyph-name="uniFBA9" unicode="&#x6c1;" horiz-adv-x="991" arabic-form="medial" 
d="M1001 70v-82h-224v-161q0 -115 -75.5 -191.5t-190.5 -76.5h-280v429h-230l-35 13v55l35 14h230v341h80v-770h200q82 0 133.5 52t51.5 134v243h305z" />
    <glyph glyph-name="uniFBAB" unicode="&#x6be;" horiz-adv-x="965" arabic-form="final" 
d="M747 81h221v-81h-146v-63q0 -140 -75 -227t-205 -87q-127 0 -204 90.5t-77 230.5v30l-191 -18v82l191 18v294q0 145 82.5 239t210.5 94q137 0 215.5 -96t78.5 -266q0 -135 -89 -221t-232 -100l-190 -18v-38q0 -109 56 -176.5t149 -67.5q92 0 148.5 68t56.5 176v137z
M337 341v-278l190 18q111 11 180.5 74t69.5 166q0 139 -58.5 212t-162.5 73q-95 0 -157 -75t-62 -190z" />
    <glyph glyph-name="uniFBAC" unicode="&#x6be;" horiz-adv-x="1021" arabic-form="initial" 
d="M255 632q129 41 255 45t220 -24.5t152.5 -87t59.5 -135.5v-175q0 -106 -74.5 -180.5t-180.5 -74.5h-702l-36 14v54l36 13h209q-38 27 -61.5 71t-23.5 94v128q2 77 40.5 133.5t105.5 78.5v46zM677 81q76 0 130.5 54t54.5 130l-2 165q0 70 -74 116.5t-183 53.5t-236 -20
q102 5 167 -50t65 -161v-288h78zM528 81v289q0 74 -44.5 118t-124.5 44q-88 0 -132.5 -42.5t-44.5 -119.5v-122q0 -66 47 -112.5t118 -54.5h181z" />
    <glyph glyph-name="uniFBAD" unicode="&#x6be;" horiz-adv-x="1118" arabic-form="medial" 
d="M950 81h176v-81h-1130l-36 14v54l36 13h207q-39 27 -62.5 71t-23.5 94v132q0 80 40 139t113 81v45q183 54 334.5 42t248.5 -83t97 -176v-345zM870 81v345q0 67 -60 115.5t-164 67t-225 -0.5q91 -15 139 -75.5t48 -154.5v-297h262zM537 81v299q0 74 -44.5 118t-125.5 44
q-88 0 -132.5 -42.5t-44.5 -119.5v-132q0 -66 47 -112.5t118 -54.5h59h123z" />
    <glyph glyph-name="uniFBAF" unicode="&#x6d2;" horiz-adv-x="957" arabic-form="final" 
d="M934 -238v-81h-818v182q0 93 62 155.5t155 62.5h631v-81h-631q-59 0 -97 -38t-38 -97v-103h736z" />
    <glyph glyph-name="uniFBB1" unicode="&#x6d3;" horiz-adv-x="957" arabic-form="final" 
d="M653 303v-49h-242v49h53q-37 32 -37 90q0 53 28 83.5t77 30.5q100 0 115 -114h-46q-14 63 -69 63q-29 0 -43 -15.5t-14 -51.5q0 -59 52 -86h126zM333 0q-59 0 -97 -38t-38 -97v-103h736v-81h-818v182q0 93 62 155.5t155 62.5h631v-81h-631z" />
    <glyph glyph-name="uniFBFD" unicode="&#x6cc;" horiz-adv-x="1324" arabic-form="final" 
d="M1189 81h142v-81h-222v598h-112q-79 0 -130 -51t-51 -129v-415q0 -160 -107 -266.5t-268 -106.5h-3q-160 0 -266 106t-106 267v284h80v-284q0 -129 81.5 -210.5t210.5 -81.5h3q129 0 212 81.5t83 210.5v415q0 112 74.5 186.5t186.5 74.5h192v-598z" />
    <glyph glyph-name="uniFBFE" unicode="&#x6cc;" horiz-adv-x="416" arabic-form="initial" 
d="M299 169q0 -73 -48 -121t-121 -48h-133l-34 14v54l34 13h109q53 0 82.5 32.5t29.5 83.5v449h81v-477zM81 -131q23 0 39.5 -16.5t16.5 -39.5t-16.5 -39.5t-39.5 -16.5t-39.5 16.5t-16.5 39.5t16.5 39.5t39.5 16.5zM279 -131q22 0 38 -16.5t16 -39.5t-16 -39.5t-38 -16.5
q-23 0 -39.5 16.5t-16.5 39.5t16.5 39.5t39.5 16.5z" />
    <glyph glyph-name="uniFBFF" unicode="&#x6cc;" horiz-adv-x="471" arabic-form="medial" 
d="M404 81h81v-81h-92q-87 0 -143 76q-54 -76 -152 -76h-101l-35 14v53l35 14h101q54 0 83 32.5t29 83.5v449h81v-449q0 -51 29.5 -83.5t83.5 -32.5zM141 -124q22 0 38 -16.5t16 -39.5t-16 -39.5t-38 -16.5q-23 0 -39.5 16.5t-16.5 39.5t16.5 39.5t39.5 16.5zM337 -124
q22 0 38.5 -16.5t16.5 -39.5t-16 -39.5t-39 -16.5t-39.5 16.5t-16.5 39.5q0 22 16.5 39t39.5 17z" />
    <glyph glyph-name="uniFE82" unicode="&#x622;" horiz-adv-x="331" arabic-form="final" 
d="M-44 1092l-23 34l104 84q12 -28 49 -45.5t78 -17.5q30 0 72 14.5t62 30.5l12 -41q-22 -21 -67.5 -36.5t-78.5 -15.5q-76 0 -135 52zM97 950h80v-800q0 -31 20 -50t49 -19h94v-81h-115q-54 0 -91 37t-37 91v822z" />
    <glyph glyph-name="uniFE84" unicode="&#x623;" horiz-adv-x="333" arabic-form="final" 
d="M253 1098v-49h-241v49h52q-37 34 -37 90q0 53 28.5 83t76.5 30q100 0 115 -113h-45q-14 63 -68 63q-30 0 -44 -15.5t-14 -51.5q0 -59 52 -86h125zM246 81h94v-81h-115q-54 0 -91 37t-37 91v822h80v-800q0 -31 20 -50t49 -19z" />
    <glyph glyph-name="uniFE86" unicode="&#x624;" horiz-adv-x="709" arabic-form="final" 
d="M472 894v-50h-240v50h51q-36 33 -36 90q0 53 27.5 82.5t77.5 29.5q100 0 115 -112h-46q-14 63 -69 63q-29 0 -42.5 -15.5t-13.5 -51.5q0 -61 51 -86h125zM718 81v-81h-98v-63q0 -142 -107.5 -197t-328.5 -25v76q196 -20 275.5 16t79.5 145v49h-210q-105 1 -180 79.5
t-75 187.5v148q0 114 76 190.5t190 76.5h14q114 0 190 -76.5t76 -190.5v-335h98zM332 82h207v334q0 81 -52 133.5t-133 52.5h-14q-82 0 -134 -52.5t-52 -133.5v-148q0 -76 52.5 -131t125.5 -55z" />
    <glyph glyph-name="uniFE88" unicode="&#x625;" horiz-adv-x="337" arabic-form="final" 
d="M246 81h94v-81h-115q-54 0 -91 37t-37 91v822h80v-800q0 -31 20 -50t49 -19zM119 -214q0 -60 50 -86h126v-51h-240v51h51q-36 33 -36 90q0 53 28.5 82.5t76.5 29.5q99 0 114 -112h-45q-14 63 -68 63q-30 0 -43.5 -15.5t-13.5 -51.5z" />
    <glyph glyph-name="uniFE8A" unicode="&#x626;" horiz-adv-x="1324" arabic-form="final" 
d="M1189 81h142v-81h-222v598h-112q-79 0 -130 -51t-51 -129v-415q0 -160 -107 -266.5t-268 -106.5h-3q-160 0 -266 106t-106 267v284h80v-284q0 -129 81.5 -210.5t210.5 -81.5h3q129 0 212 81.5t83 210.5v415q0 112 74.5 186.5t186.5 74.5h192v-598zM235 466v-50h-242v50
h53q-36 31 -36 90q0 53 28 83t77 30q99 0 114 -113h-46q-7 33 -23.5 47.5t-44.5 14.5q-30 0 -44 -15t-14 -51q0 -59 52 -86h126z" />
    <glyph glyph-name="uniFE8B" unicode="&#x626;" horiz-adv-x="360" arabic-form="initial" 
d="M224 814h123v-49h-241v49h52q-36 31 -36 90q0 54 27.5 83.5t77.5 29.5q99 0 114 -113h-46q-14 63 -68 63q-29 0 -42.5 -15.5t-13.5 -50.5q0 -63 53 -87zM194 197v449h80v-477q0 -73 -48.5 -121t-121.5 -48h-105l-34 14v54l34 13h82q54 0 83.5 32.5t29.5 83.5z" />
    <glyph glyph-name="uniFE8C" unicode="&#x626;" horiz-adv-x="409" arabic-form="medial" 
d="M329 833v-49h-240v49h52q-37 34 -37 90q0 53 28.5 83t76.5 30q100 0 115 -113h-45q-14 63 -69 63q-30 0 -43.5 -15.5t-13.5 -51.5q0 -59 52 -86h124zM370 81h51v-81h-61q-88 0 -144 76q-52 -76 -152 -76h-64l-35 14v53l35 14h66q53 0 82 31.5t29 82.5l-1 451h82v-449
q0 -51 29.5 -83.5t82.5 -32.5z" />
    <glyph glyph-name="uniFE8E" unicode="&#x627;" horiz-adv-x="331" arabic-form="final" 
d="M97 950h80v-800q0 -31 20 -50t49 -19h94v-81h-115q-54 0 -91 37t-37 91v822z" />
    <glyph glyph-name="uniFE90" unicode="&#x628;" horiz-adv-x="1224" arabic-form="final" 
d="M1158 81h75v-81h-83q-89 0 -146 76q-52 -76 -152 -76h-533q-114 0 -189 75.5t-75 189.5v243h80v-243q0 -81 51.5 -132.5t132.5 -51.5h533q54 0 83.5 31.5t29.5 82.5l-1 451h82v-449q0 -51 29 -83.5t83 -32.5zM565 -143q22 0 38.5 -16.5t16.5 -39.5t-16 -39.5t-39 -16.5
t-39.5 16.5t-16.5 39.5t16.5 39.5t39.5 16.5z" />
    <glyph glyph-name="uniFE91" unicode="&#x628;" horiz-adv-x="360" arabic-form="initial" 
d="M-19 0v81h145q28 0 47.5 19t19.5 50v497h81v-519q0 -54 -37 -91t-91 -37h-165zM157 -254q-23 0 -39.5 17t-16.5 39t16.5 39t39.5 17t39.5 -16.5t16.5 -39.5t-16.5 -39.5t-39.5 -16.5z" />
    <glyph glyph-name="uniFE92" unicode="&#x628;" horiz-adv-x="428" arabic-form="medial" 
d="M381 81h63v-81h-74q-87 0 -143 76q-52 -76 -152 -76h-78l-35 14v53l35 14h78q54 0 83 32.5t29 83.5v449h82v-425q0 -17 -1 -27q1 -50 31 -81.5t82 -31.5zM225 -135q22 0 38.5 -16.5t16.5 -39.5t-16 -39.5t-39 -16.5t-39.5 16.5t-16.5 39.5t16.5 39.5t39.5 16.5z" />
    <glyph glyph-name="uniFE94" unicode="&#x629;" horiz-adv-x="785" arabic-form="final" 
d="M268 823q-23 0 -39.5 16.5t-16.5 39.5t17 39.5t39 16.5q23 0 39.5 -16.5t16.5 -39.5t-16.5 -39.5t-39.5 -16.5zM467 823q-23 0 -39.5 16.5t-16.5 39.5t16.5 39.5t39.5 16.5q22 0 38.5 -16.5t16.5 -39.5t-16 -39.5t-39 -16.5zM763 81h29v-81h-29q-63 0 -112.5 30t-75.5 82
q-89 -107 -231 -107q-106 0 -182 78.5t-76 188.5v144q0 115 75.5 191t190.5 76h282v-279l-2 -19h2v-172q0 -58 36 -95t93 -37zM552 190v412h-200q-81 0 -133 -52.5t-52 -133.5v-144q0 -76 52.5 -131t124.5 -55q65 0 119.5 27.5t88.5 76.5z" />
    <glyph glyph-name="uniFE96" unicode="&#x62a;" horiz-adv-x="1224" arabic-form="final" 
d="M438 643q-22 0 -39 16.5t-17 39.5t17 39.5t39 16.5t38.5 -16.5t16.5 -39.5t-16.5 -39.5t-38.5 -16.5zM636 643q-22 0 -39 16.5t-17 39.5t17 39.5t39 16.5t38.5 -16.5t16.5 -39.5t-16.5 -39.5t-38.5 -16.5zM1158 81h75v-81h-83q-89 0 -146 76q-52 -76 -152 -76h-533
q-114 0 -189 75.5t-75 189.5v243h80v-243q0 -81 51.5 -132.5t132.5 -51.5h533q54 0 83.5 31.5t29.5 82.5l-1 451h82v-449q0 -51 29 -83.5t83 -32.5z" />
    <glyph glyph-name="uniFE97" unicode="&#x62a;" horiz-adv-x="408" arabic-form="initial" 
d="M131 750q-23 0 -39.5 16.5t-16.5 39.5q0 22 16.5 39t39.5 17t39.5 -16.5t16.5 -39.5t-16.5 -39.5t-39.5 -16.5zM330 750q-23 0 -39.5 16.5t-16.5 39.5t16.5 39.5t39.5 16.5q22 0 38.5 -16.5t16.5 -39.5t-16 -39.5t-39 -16.5zM-12 0v81h158q29 0 48.5 19t19.5 50v497h81
v-519q0 -54 -37 -91t-91 -37h-179z" />
    <glyph glyph-name="uniFE98" unicode="&#x62a;" horiz-adv-x="491" arabic-form="medial" 
d="M149 769q-23 0 -39.5 16.5t-16.5 39.5t16.5 39.5t39.5 16.5t39.5 -16.5t16.5 -39.5t-16.5 -39.5t-39.5 -16.5zM348 769q-23 0 -39.5 16.5t-16.5 39.5t16.5 39.5t39.5 16.5q22 0 38.5 -16.5t16.5 -39.5t-16.5 -39.5t-38.5 -16.5zM401 81h100v-81h-111q-87 0 -143 76
q-52 -76 -151 -76h-99l-35 14v53l35 14h99q54 0 83 32.5t29 83.5v449h81v-425q0 -17 -1 -27q1 -50 31 -81.5t82 -31.5z" />
    <glyph glyph-name="uniFE9A" unicode="&#x62b;" horiz-adv-x="1224" arabic-form="final" 
d="M539 792q-23 0 -39.5 16.5t-16.5 39.5t16.5 39.5t39.5 16.5q22 0 38.5 -16.5t16.5 -39.5t-16 -39.5t-39 -16.5zM446 647q-22 0 -39 16.5t-17 39.5t17 39.5t39 16.5t38.5 -16.5t16.5 -39.5t-16.5 -39.5t-38.5 -16.5zM635 647q-23 0 -39.5 16.5t-16.5 39.5t16.5 39.5
t39.5 16.5t39.5 -16.5t16.5 -39.5t-16.5 -39.5t-39.5 -16.5zM1158 81h75v-81h-83q-89 0 -146 76q-52 -76 -152 -76h-533q-114 0 -189 75.5t-75 189.5v243h80v-243q0 -81 51.5 -132.5t132.5 -51.5h533q54 0 83.5 31.5t29.5 82.5l-1 451h82v-449q0 -51 29 -83.5t83 -32.5z" />
    <glyph glyph-name="uniFE9B" unicode="&#x62b;" horiz-adv-x="427" arabic-form="initial" 
d="M254 897q-23 0 -39.5 16.5t-16.5 39.5t16.5 39.5t39.5 16.5q22 0 38.5 -16.5t16.5 -39.5t-16.5 -39.5t-38.5 -16.5zM161 754q-23 0 -39.5 16.5t-16.5 39.5q0 22 16.5 39t39.5 17q22 0 38.5 -16.5t16.5 -39.5t-16 -39.5t-39 -16.5zM350 754q-23 0 -39.5 16.5t-16.5 39.5
q0 22 17 39t39 17q23 0 39.5 -16.5t16.5 -39.5t-16.5 -39.5t-39.5 -16.5zM-15 0v81h161q29 0 48.5 19t19.5 50v497h81v-519q0 -54 -37 -91t-91 -37h-182z" />
    <glyph glyph-name="uniFE9C" unicode="&#x62b;" horiz-adv-x="502" arabic-form="medial" 
d="M253 918q-23 0 -39.5 16t-16.5 39t16.5 39t39.5 16q22 0 38 -16t16 -39t-15.5 -39t-38.5 -16zM160 773q-22 0 -39 16.5t-17 39.5t17 39.5t39 16.5t38 -16.5t16 -39.5t-16 -39.5t-38 -16.5zM348 773q-22 0 -39 16.5t-17 39.5t17 39.5t39 16.5q23 0 39.5 -16.5t16.5 -39.5
t-16.5 -39.5t-39.5 -16.5zM442 81h70v-81h-101q-87 0 -143 76q-54 -76 -152 -76h-119l-35 14v53l35 14h119q54 0 83 32.5t29 83.5v449h81v-449q0 -49 38.5 -82.5t94.5 -33.5z" />
    <glyph glyph-name="uniFE9E" unicode="&#x62c;" horiz-adv-x="957" arabic-form="final" 
d="M885 81h83v-81h-616q-93 0 -149.5 -52t-56.5 -141q0 -71 44.5 -125t115 -79.5t162.5 -20.5t181 44v-77q-104 -48 -211 -50.5t-188 33t-132.5 108.5t-51.5 167q0 122 80 198t205 76h400q-11 7 -24.5 32t-24.5 51.5t-31 74.5t-33 79q-59 133 -137 204t-165.5 78.5
t-186.5 -31.5v74q66 26 130.5 31.5t128 -12.5t120.5 -59t108 -111t89 -164q28 -72 48 -116.5t33 -70t28 -37.5t23 -15t28 -7v-1zM392 -187q0 23 16.5 39.5t39.5 16.5q22 0 38 -16.5t16 -39.5t-16 -39.5t-38 -16.5q-23 0 -39.5 16.5t-16.5 39.5z" />
    <glyph glyph-name="uniFE9F" unicode="&#x62c;" horiz-adv-x="897" arabic-form="initial" 
d="M650 328q46 -116 74 -168.5t42 -62.5t44 -15v-82h-811l-36 14v53l36 14h678q-9 6 -18.5 21t-21 40.5t-22 50t-25.5 61.5t-27 64q-59 134 -135 204t-163 78t-190 -31v74q66 26 130.5 31.5t127.5 -12.5t120 -59t108 -111t89 -164zM362 -127q22 0 38 -16.5t16 -39.5
t-16 -39.5t-38 -16.5t-39 16.5t-17 39.5t17 39.5t39 16.5z" />
    <glyph glyph-name="uniFEA0" unicode="&#x62c;" horiz-adv-x="873" arabic-form="medial" 
d="M810 81h69v-81h-880l-36 14v53l36 14h678q-9 6 -18.5 21t-21 40.5t-22 50t-25.5 61.5t-27 64q-59 134 -135 204t-163 78t-190 -31v74q66 26 130.5 31.5t127.5 -12.5t120 -59t108 -111t89 -164q46 -116 74 -168.5t42 -62.5t44 -15v-1zM370 -127q22 0 38.5 -16.5
t16.5 -39.5t-16.5 -39.5t-38.5 -16.5t-39 16.5t-17 39.5t17 39.5t39 16.5z" />
    <glyph glyph-name="uniFEA2" unicode="&#x62d;" horiz-adv-x="974" arabic-form="final" 
d="M900 81h83v-81h-631q-93 0 -149.5 -52t-56.5 -141q0 -71 44.5 -125t115 -79.5t162.5 -20.5t181 44v-77q-104 -48 -211 -50.5t-188 33t-132.5 108.5t-51.5 167q0 122 80 198t205 76h425q-10 4 -20.5 18.5t-24 41.5t-23.5 49.5t-27.5 64t-27.5 63.5q-59 133 -137 204
t-165.5 78.5t-186.5 -31.5v74q66 26 130.5 31.5t128 -12.5t120.5 -59t108 -111t89 -164q37 -95 55.5 -138.5t37.5 -69.5t29.5 -29.5t37.5 -8.5v-1z" />
    <glyph glyph-name="uniFEA3" unicode="&#x62d;" horiz-adv-x="897" arabic-form="initial" 
d="M650 328q46 -116 74 -168.5t42 -62.5t44 -15v-82h-811l-36 14v53l36 14h678q-9 6 -18.5 21t-21 40.5t-22 50t-25.5 61.5t-27 64q-59 134 -135 204t-163 78t-190 -31v74q66 26 130.5 31.5t127.5 -12.5t120 -59t108 -111t89 -164z" />
    <glyph glyph-name="uniFEA4" unicode="&#x62d;" horiz-adv-x="879" arabic-form="medial" 
d="M815 81h70v-81h-881l-35 14v53l35 14h677q-11 7 -24.5 32t-24.5 51.5t-31 74.5t-33 79q-59 134 -134.5 204t-163 78t-189.5 -31v74q66 26 130 31.5t127.5 -12.5t120 -59t107 -111t89.5 -164q28 -72 48 -116.5t33.5 -70.5t28 -38t23 -15t27.5 -6v-1z" />
    <glyph glyph-name="uniFEA6" unicode="&#x62e;" horiz-adv-x="959" arabic-form="final" 
d="M332 826q-22 0 -39 17t-17 39t17 39t39 17t38 -16.5t16 -39.5t-16 -39.5t-38 -16.5zM900 81h83v-81h-631q-93 0 -149.5 -52t-56.5 -141q0 -71 44.5 -125t115 -79.5t162.5 -20.5t181 44v-77q-104 -48 -211 -50.5t-188 33t-132.5 108.5t-51.5 167q0 122 80 198t205 76h425
q-10 4 -20.5 18.5t-24 41.5t-23.5 49.5t-27.5 64t-27.5 63.5q-59 133 -137 204t-165.5 78.5t-186.5 -31.5v74q66 26 130.5 31.5t128 -12.5t120.5 -59t108 -111t89 -164q37 -95 55.5 -138.5t37.5 -69.5t29.5 -29.5t37.5 -8.5v-1z" />
    <glyph glyph-name="uniFEA7" unicode="&#x62e;" horiz-adv-x="897" arabic-form="initial" 
d="M242 777q-23 0 -39.5 16.5t-16.5 39.5q0 22 16.5 38t39.5 16t39.5 -16t16.5 -38q0 -23 -16.5 -39.5t-39.5 -16.5zM650 328q46 -116 74 -168.5t42 -62.5t44 -15v-82h-811l-36 14v53l36 14h678q-9 6 -18.5 21t-21 40.5t-22 50t-25.5 61.5t-27 64q-59 134 -135 204t-163 78
t-190 -31v74q66 26 130.5 31.5t127.5 -12.5t120 -59t108 -111t89 -164z" />
    <glyph glyph-name="uniFEA8" unicode="&#x62e;" horiz-adv-x="879" arabic-form="medial" 
d="M247 777q-23 0 -39.5 16.5t-16.5 39.5q0 22 16.5 38t39.5 16t39 -16t16 -38q0 -23 -16 -39.5t-39 -16.5zM815 81h70v-81h-881l-35 14v53l35 14h677q-11 7 -24.5 32t-24.5 51.5t-31 74.5t-33 79q-59 134 -134.5 204t-163 78t-189.5 -31v74q66 26 130 31.5t127.5 -12.5
t120 -59t107 -111t89.5 -164q28 -72 48 -116.5t33.5 -70.5t28 -38t23 -15t27.5 -6v-1z" />
    <glyph glyph-name="uniFEAA" unicode="&#x62f;" horiz-adv-x="748" arabic-form="final" 
d="M605 81h151v-81h-688v81h456v323q0 86 -55.5 141.5t-142.5 55.5h-143v80h143q120 0 199.5 -79t79.5 -198v-323z" />
    <glyph glyph-name="uniFEAC" unicode="&#x630;" horiz-adv-x="748" arabic-form="final" 
d="M332 826q-23 0 -39.5 16.5t-16.5 39.5q0 22 17 39t39 17q23 0 39.5 -16.5t16.5 -39.5t-16.5 -39.5t-39.5 -16.5zM605 81h151v-81h-688v81h456v323q0 86 -55.5 141.5t-142.5 55.5h-136v80h136q120 0 199.5 -79t79.5 -198v-323z" />
    <glyph glyph-name="uniFEAE" unicode="&#x631;" horiz-adv-x="442" arabic-form="final" 
d="M456 81v-81h-145v-38q0 -114 -75.5 -189t-189.5 -75h-69v81h69q81 0 133 51.5t52 131.5v689h80v-570h145z" />
    <glyph glyph-name="uniFEB0" unicode="&#x632;" horiz-adv-x="447" arabic-form="final" 
d="M269 776q-23 0 -39.5 16t-16.5 39t16.5 39.5t39.5 16.5q22 0 38.5 -16.5t16.5 -39.5t-16 -39t-39 -16zM456 81v-81h-145v-38q0 -114 -75.5 -189t-189.5 -75h-69v81h69q81 0 133 51.5t52 131.5v689h80v-570h145z" />
    <glyph glyph-name="uniFEB2" unicode="&#x633;" horiz-adv-x="1736" arabic-form="final" 
d="M1638 81h108v-81h-109q-89 0 -124 74q-24 -39 -52.5 -56.5t-78.5 -17.5h-115q-43 0 -74.5 22t-46.5 49q-35 -71 -129 -71q-53 0 -106 8q-63 6 -92 55v-59q0 -160 -107 -266.5t-267 -106.5h-4q-161 0 -267 106.5t-106 266.5v284h81v-284q0 -129 82 -210.5t210 -81.5h4
q129 0 211.5 81.5t82.5 210.5v542h80v-388q6 -39 30.5 -58t57.5 -19h99q41 0 67 28t26 68v369h79l-1 -369q0 -40 28 -68t70 -28h103q39 0 61 27.5t22 68.5v477h79v-477q0 -41 27 -68.5t71 -27.5z" />
    <glyph glyph-name="uniFEB3" unicode="&#x633;" horiz-adv-x="1094" arabic-form="initial" 
d="M901 677h81v-467q0 -87 -62 -148.5t-149 -61.5q-134 0 -188 78q-25 -38 -76 -58t-107 -20q-116 0 -173 76q-24 -34 -64.5 -55t-86.5 -21h-77l-36 14v54l36 13h83q45 0 75 30.5t30 74.5v360h81v-360q0 -103 132 -107q64 -1 103.5 29.5t39.5 77.5v360h81v-360q0 -49 38 -77
t109 -28q53 0 91.5 38t38.5 91v467z" />
    <glyph glyph-name="uniFEB4" unicode="&#x633;" horiz-adv-x="1191" arabic-form="medial" 
d="M1090 81h107v-81h-109q-88 0 -124 75q-24 -39 -52.5 -57t-78.5 -18h-135q-43 0 -75.5 22t-46.5 49q-35 -71 -131 -71h-124q-45 0 -79 23t-45 55q-37 -78 -152 -78h-41l-35 14v53l35 14h29q114 0 114 96v369h80l2 -369q0 -48 25.5 -72t62.5 -24h121q39 0 65.5 28t26.5 68
v369h79l-1 -369q0 -40 28 -68t70 -28h123q39 0 61 27.5t22 68.5v480h79v-480q0 -41 27.5 -68.5t71.5 -27.5z" />
    <glyph glyph-name="uniFEB6" unicode="&#x634;" horiz-adv-x="1736" arabic-form="final" 
d="M1118 831q-22 0 -39 16.5t-17 39.5t17 39.5t39 16.5t38.5 -16.5t16.5 -39.5t-16.5 -39.5t-38.5 -16.5zM1025 688q-23 0 -39.5 16.5t-16.5 39.5q0 22 16.5 38.5t39.5 16.5t39 -16.5t16 -38.5q0 -23 -16 -39.5t-39 -16.5zM1215 688q-23 0 -39.5 16.5t-16.5 39.5t16.5 39
t39.5 16t39 -16.5t16 -38.5q0 -23 -16 -39.5t-39 -16.5zM1638 81h108v-81h-109q-89 0 -124 74q-24 -39 -52.5 -56.5t-78.5 -17.5h-115q-43 0 -74.5 22t-46.5 49q-35 -71 -129 -71q-53 0 -106 8q-63 6 -92 55v-59q0 -160 -107 -266.5t-267 -106.5h-4q-161 0 -267 106.5
t-106 266.5v284h81v-284q0 -129 82 -210.5t210 -81.5h4q129 0 211.5 81.5t82.5 210.5v542h80v-388q6 -39 30.5 -58t57.5 -19h99q41 0 67 28t26 68v369h79l-1 -369q0 -40 28 -68t70 -28h103q39 0 61 27.5t22 68.5v477h79v-477q0 -41 27 -68.5t71 -27.5z" />
    <glyph glyph-name="uniFEB7" unicode="&#x634;" horiz-adv-x="1094" arabic-form="initial" 
d="M576 863q-23 0 -39.5 16.5t-16.5 39.5q0 22 16.5 38t39.5 16t39 -16t16 -38q0 -23 -16 -39.5t-39 -16.5zM483 718q-23 0 -39.5 17t-16.5 39t16.5 39t39.5 17t39.5 -16.5t16.5 -39.5t-16.5 -39.5t-39.5 -16.5zM673 718q-23 0 -39.5 17t-16.5 39t16.5 39t39.5 17
q22 0 38.5 -16.5t16.5 -39.5t-16.5 -39.5t-38.5 -16.5zM901 677h81v-467q0 -87 -62 -148.5t-149 -61.5q-134 0 -188 78q-25 -38 -76 -58t-107 -20q-116 0 -173 76q-24 -34 -64.5 -55t-86.5 -21h-77l-36 14v54l36 13h83q45 0 75 30.5t30 74.5v360h81v-360q0 -103 132 -107
q64 -1 103.5 29.5t39.5 77.5v360h81v-360q0 -49 38 -77t109 -28q53 0 91.5 38t38.5 91v467z" />
    <glyph glyph-name="uniFEB8" unicode="&#x634;" horiz-adv-x="1191" arabic-form="medial" 
d="M564 863q-23 0 -39.5 16.5t-16.5 39.5q0 22 16.5 38t39.5 16q22 0 38 -15.5t16 -38.5t-16 -39.5t-38 -16.5zM471 718q-23 0 -39.5 17t-16.5 39t16.5 39t39.5 17t39.5 -16.5t16.5 -39.5t-16.5 -39.5t-39.5 -16.5zM661 718q-23 0 -39.5 17t-16.5 39t16.5 39t39.5 17
q22 0 38 -16.5t16 -39.5t-16 -39.5t-38 -16.5zM1090 81h107v-81h-109q-88 0 -124 75q-24 -39 -52.5 -57t-78.5 -18h-135q-43 0 -75.5 22t-46.5 49q-35 -71 -131 -71h-124q-45 0 -79 23t-45 55q-37 -78 -152 -78h-41l-35 14v54l35 13h29q114 0 114 96v369h80l2 -369
q0 -48 25.5 -72t62.5 -24h121q39 0 65.5 28t26.5 68v369h79l-1 -369q0 -40 28 -68t70 -28h123q39 0 61 27.5t22 68.5v480h79v-480q0 -41 27.5 -68.5t71.5 -27.5z" />
    <glyph glyph-name="uniFEBA" unicode="&#x635;" horiz-adv-x="1638" arabic-form="final" 
d="M1517 81h130v-81h-831q-2 -159 -108.5 -264t-266.5 -105h-4q-160 0 -265.5 106t-105.5 267v284h80v-284q0 -129 81.5 -210.5t209.5 -81.5h4q129 0 212 81.5t83 210.5v587h80v-164q210 235 394 235q155 0 231 -83.5t76 -275.5v-222zM1439 81v222q0 152 -60 216t-173 64
q-179 0 -390 -238v-264h623z" />
    <glyph glyph-name="uniFEBB" unicode="&#x635;" horiz-adv-x="1043" arabic-form="initial" 
d="M635 661q153 0 230.5 -83t77.5 -263q0 -131 -92.5 -223t-222.5 -92l-638 1v80h162v510h80v-172q216 242 403 242zM625 81q98 0 168.5 70t70.5 168q0 143 -59.5 203t-173.5 60q-183 0 -399 -250v-251h393z" />
    <glyph glyph-name="uniFEBC" unicode="&#x635;" horiz-adv-x="984" arabic-form="medial" 
d="M904 81h90v-81h-997v1l-32 13v53l32 12v2h115v510h81v-176q217 246 402 246q155 0 232 -83.5t77 -275.5v-221zM825 81v221q0 151 -60 215.5t-174 64.5q-182 0 -398 -250v-251h632z" />
    <glyph glyph-name="uniFEBE" unicode="&#x636;" horiz-adv-x="1638" arabic-form="final" 
d="M1184 782q-22 0 -39 17t-17 39t17 39t39 17t38 -16.5t16 -39.5t-16 -39.5t-38 -16.5zM1517 81h130v-81h-831q-2 -159 -108.5 -264t-266.5 -105h-4q-160 0 -265.5 106t-105.5 267v284h80v-284q0 -129 81.5 -210.5t209.5 -81.5h4q129 0 212 81.5t83 210.5v587h80v-164
q210 235 394 235q155 0 231 -83.5t76 -275.5v-222zM1439 81v222q0 152 -60 216t-173 64q-179 0 -390 -238v-264h623z" />
    <glyph glyph-name="uniFEBF" unicode="&#x636;" horiz-adv-x="1043" arabic-form="initial" 
d="M638 774q-23 0 -39.5 16.5t-16.5 39.5t16.5 39.5t39.5 16.5q22 0 38 -16.5t16 -39.5t-16 -39.5t-38 -16.5zM635 661q153 0 230.5 -83t77.5 -263q0 -131 -92.5 -223t-222.5 -92l-638 1v80h162v510h80v-172q216 242 403 242zM625 81q98 0 168.5 70t70.5 168
q0 143 -59.5 203t-173.5 60q-183 0 -399 -250v-251h393z" />
    <glyph glyph-name="uniFEC0" unicode="&#x636;" horiz-adv-x="984" arabic-form="medial" 
d="M593 765q-23 0 -39.5 16.5t-16.5 39.5t16.5 39.5t39.5 16.5t39.5 -16.5t16.5 -39.5t-16.5 -39.5t-39.5 -16.5zM904 81h90v-81h-997v1l-32 13v54l32 11v2h115v510h81v-176q217 246 402 246q155 0 232 -83.5t77 -275.5v-221zM825 81v221q0 151 -60 215.5t-174 64.5
q-182 0 -398 -250v-251h632z" />
    <glyph glyph-name="uniFEC2" unicode="&#x637;" horiz-adv-x="1133" arabic-form="final" 
d="M1012 81h129v-81h-1075v81h154v869h80v-535q217 246 403 246q155 0 232 -83.5t77 -275.5v-221zM933 81v221q0 151 -60 215.5t-174 64.5q-183 0 -399 -250v-251h633z" />
    <glyph glyph-name="uniFEC3" unicode="&#x637;" horiz-adv-x="1036" arabic-form="initial" 
d="M632 661q309 0 309 -339q0 -133 -95 -227.5t-228 -94.5h-623v81h154v869h80v-532q219 243 403 243zM627 81q98 0 166.5 68.5t68.5 165.5q0 267 -234 267q-183 0 -399 -250v-251h398z" />
    <glyph glyph-name="uniFEC4" unicode="&#x637;" horiz-adv-x="1103" arabic-form="medial" 
d="M943 81h171v-81h-1117v1l-32 13v53l32 12v2h155v869h80v-536q218 247 404 247q154 0 230.5 -83.5t76.5 -275.5v-221zM864 81v221q0 152 -59.5 216t-173.5 64q-93 0 -196 -67t-203 -183v-251h632z" />
    <glyph glyph-name="uniFEC6" unicode="&#x638;" horiz-adv-x="1134" arabic-form="final" 
d="M1012 81h129v-81h-1075v81h154v869h80v-535q217 246 403 246q155 0 232 -83.5t77 -275.5v-221zM700 781q-23 0 -39.5 16.5t-16.5 39.5q0 22 16.5 38.5t39.5 16.5t39.5 -16t16.5 -39t-16.5 -39.5t-39.5 -16.5zM933 81v221q0 151 -60 215.5t-174 64.5q-183 0 -399 -250
v-251h633z" />
    <glyph glyph-name="uniFEC7" unicode="&#x638;" horiz-adv-x="1036" arabic-form="initial" 
d="M632 661q309 0 309 -339q0 -133 -95 -227.5t-228 -94.5h-623v81h154v869h80v-532q219 243 403 243zM635 777q-23 0 -39.5 16.5t-16.5 39.5t16.5 39.5t39.5 16.5q22 0 38 -16.5t16 -39.5t-16 -39.5t-38 -16.5zM627 81q98 0 166.5 68.5t68.5 165.5q0 267 -234 267
q-183 0 -399 -250v-251h398z" />
    <glyph glyph-name="uniFEC8" unicode="&#x638;" horiz-adv-x="1103" arabic-form="medial" 
d="M943 81h171v-81h-1117v1l-32 13v54l32 11v2h155v869h80v-536q218 247 404 247q154 0 230.5 -83.5t76.5 -275.5v-221zM634 777q-23 0 -39.5 16.5t-16.5 39.5t16.5 39.5t39.5 16.5q22 0 38 -16.5t16 -39.5t-16 -39.5t-38 -16.5zM864 81v221q0 152 -59.5 216t-173.5 64
q-93 0 -196 -67t-203 -183v-251h632z" />
    <glyph glyph-name="uniFECA" unicode="&#x639;" horiz-adv-x="817" arabic-form="final" 
d="M102 -194q0 59 17 108.5t53 90.5t75.5 71.5t99.5 68.5l-265 394v62q163 76 324 76q144 0 216.5 -67t45.5 -181q-21 -88 -66.5 -154t-130.5 -141q45 -53 119 -53h235v-81h-250q-105 0 -174 85q-16 -12 -52.5 -36.5t-53 -36.5t-42.5 -36.5t-38 -46t-21.5 -53.5t-9.5 -70
q0 -94 81.5 -143.5t204 -45t244.5 58.5v-75q-105 -49 -215.5 -59.5t-197.5 15t-143 91t-56 158.5zM168 546v-8l240 -361q178 164 178 306q0 71 -71.5 102t-169.5 18.5t-177 -57.5z" />
    <glyph glyph-name="uniFECB" unicode="&#x639;" horiz-adv-x="660" arabic-form="initial" 
d="M414 81h222v-81h-637l-34 14v53l34 14h184q-108 77 -108 252q0 100 31.5 174.5t83 114t117 56.5t134.5 10t135 -34v-74q-60 24 -119 31.5t-112.5 -5t-94 -44.5t-64.5 -91t-24 -139q0 -73 19.5 -124t55.5 -78t78.5 -38t98.5 -11z" />
    <glyph glyph-name="uniFECC" unicode="&#x639;" horiz-adv-x="790" arabic-form="medial" 
d="M601 81h199v-81h-240q-103 0 -165 79q-91 -79 -182 -79h-216v1l-32 13v53l32 12v2h201q32 0 79.5 16t76.5 40l-264 395v69q161 76 313 76q125 0 198 -50t73 -138q0 -43 -13 -82q-14 -45 -34 -82.5t-48.5 -73t-50 -58t-60.5 -59.5q53 -53 133 -53zM406 177q44 44 68.5 72
t53 74.5t44.5 97.5q11 34 11 62q0 55 -47.5 86.5t-135.5 31.5q-115 0 -235 -55v-8z" />
    <glyph glyph-name="uniFECE" unicode="&#x63a;" horiz-adv-x="817" arabic-form="final" 
d="M374 812q-22 0 -39 17t-17 39t17 39t39 17t38.5 -16.5t16.5 -39.5t-16.5 -39.5t-38.5 -16.5zM102 -194q0 59 17 108.5t53 90.5t75.5 71.5t99.5 68.5l-265 394v62q163 76 324 76q144 0 216.5 -67t45.5 -181q-21 -88 -66.5 -154t-130.5 -141q45 -53 119 -53h235v-81h-250
q-105 0 -174 85q-16 -12 -52.5 -36.5t-53 -36.5t-42.5 -36.5t-38 -46t-21.5 -53.5t-9.5 -70q0 -94 81.5 -143.5t204 -45t244.5 58.5v-75q-105 -49 -215.5 -59.5t-197.5 15t-143 91t-56 158.5zM168 546v-8l240 -361q178 164 178 306q0 71 -71.5 102t-169.5 18.5t-177 -57.5z
" />
    <glyph glyph-name="uniFECF" unicode="&#x63a;" horiz-adv-x="660" arabic-form="initial" 
d="M362 812q-22 0 -39 17t-17 39t17 39t39 17t38 -16.5t16 -39.5t-16 -39.5t-38 -16.5zM414 81h222v-81h-637l-34 14v54l34 13h184q-108 77 -108 252q0 100 31.5 174.5t83 114t117 56.5t134.5 10t135 -34v-74q-60 24 -119 31.5t-112.5 -5t-94 -44.5t-64.5 -91t-24 -139
q0 -73 19.5 -124t55.5 -78t78.5 -38t98.5 -11z" />
    <glyph glyph-name="uniFED0" unicode="&#x63a;" horiz-adv-x="790" arabic-form="medial" 
d="M373 812q-23 0 -39.5 16.5t-16.5 39.5t16.5 39.5t39.5 16.5q22 0 38 -16.5t16 -39.5t-16 -39.5t-38 -16.5zM601 81h199v-81h-240q-103 0 -165 79q-91 -79 -182 -79h-216v1l-32 13v54l32 11v2h201q32 0 79.5 16t76.5 40l-264 395v69q161 76 313 76q125 0 198 -50t73 -138
q0 -43 -13 -82q-14 -45 -34 -82.5t-48.5 -73t-50 -58t-60.5 -59.5q53 -53 133 -53zM406 177q44 44 68.5 72t53 74.5t44.5 97.5q11 34 11 62q0 55 -47.5 86.5t-135.5 31.5q-115 0 -235 -55v-8z" />
    <glyph glyph-name="uniFED2" unicode="&#x641;" horiz-adv-x="1217" arabic-form="final" 
d="M793 826q-23 0 -39.5 16.5t-16.5 39.5t16.5 39t39.5 16t39 -16.5t16 -38.5q0 -23 -16 -39.5t-39 -16.5zM975 81h250v-81h-908q-112 1 -187 76.5t-75 188.5v179h80v-179q0 -81 51.5 -132.5t132.5 -51.5h293q-44 32 -70 81t-26 106v147q0 118 73.5 192t203.5 74
q132 0 204.5 -72.5t72.5 -193.5v-147q0 -57 -25.5 -106.5t-69.5 -80.5zM786 81q97 0 150.5 53t53.5 134v147q0 84 -51 135t-142 51q-99 0 -149.5 -49.5t-50.5 -136.5v-147q0 -77 55.5 -132t133.5 -55z" />
    <glyph glyph-name="uniFED3" unicode="&#x641;" horiz-adv-x="716" arabic-form="initial" 
d="M360 821q-20 0 -36 15t-17 35q-2 24 14.5 42t40.5 18q23 0 39 -16t17 -38q0 -23 -17.5 -40t-40.5 -16zM366 683q110 0 188 -77.5t78 -189.5v-163q0 -104 -74 -178t-178 -74h-380l-35 14v53l35 14h180q-43 31 -69 80.5t-26 105.5v148q0 112 77 189.5t189 77.5h15zM550 261
v155q0 78 -53.5 132t-130.5 54h-15q-78 0 -132 -54t-54 -132v-148q0 -76 53 -131t125 -55h30q74 0 125.5 52t51.5 127z" />
    <glyph glyph-name="uniFED4" unicode="&#x641;" horiz-adv-x="767" arabic-form="medial" 
d="M389 816q-23 0 -39.5 16.5t-16.5 39.5t16.5 39t39.5 16t39 -16.5t16 -38.5q0 -23 -16 -39.5t-39 -16.5zM575 81h221v-81h-825l-34 14v53l34 14h241q-44 32 -70 81t-26 106v147q0 118 73.5 192t203.5 74q132 0 204.5 -72.5t72.5 -193.5v-147q0 -57 -26 -106t-69 -81z
M386 81q97 0 150.5 53t53.5 134v147q0 84 -51 135t-142 51q-99 0 -149.5 -49.5t-50.5 -136.5v-147q0 -77 55 -132t134 -55z" />
    <glyph glyph-name="uniFED6" unicode="&#x642;" horiz-adv-x="1032" arabic-form="final" 
d="M576 766q-23 0 -39.5 16.5t-16.5 39.5q0 22 16.5 38.5t39.5 16.5t39.5 -16t16.5 -39t-16.5 -39.5t-39.5 -16.5zM776 766q-23 0 -39.5 16.5t-16.5 39.5t16.5 39t39.5 16q22 0 38 -16t16 -39t-16 -39.5t-38 -16.5zM957 81h82v-81h-85q-17 -174 -139.5 -284.5t-301.5 -110.5
h-4q-191 0 -317 126.5t-126 319.5v155h81v-155q0 -159 102 -261.5t260 -102.5h4q149 0 246.5 86.5t114.5 226.5h-200q-112 0 -186 74.5t-74 186.5v157q0 112 74 186.5t186 74.5h22q112 0 186.5 -74.5t74.5 -186.5v-337zM494 261q0 -79 51 -129.5t129 -50.5h203v337
q0 78 -51.5 129t-129.5 51h-22q-78 0 -129 -50.5t-51 -129.5v-157z" />
    <glyph glyph-name="uniFED7" unicode="&#x642;" horiz-adv-x="716" arabic-form="initial" 
d="M259 819q-23 0 -39.5 16.5t-16.5 39.5t16.5 39.5t39.5 16.5q22 0 38.5 -16.5t16.5 -39.5t-16.5 -39.5t-38.5 -16.5zM457 819q-23 0 -39.5 16.5t-16.5 39.5t16.5 39.5t39.5 16.5t39.5 -16.5t16.5 -39.5t-16.5 -39.5t-39.5 -16.5zM366 683q110 0 188 -77.5t78 -189.5v-163
q0 -104 -74 -178t-178 -74h-380l-35 14v53l35 14h180q-43 31 -69 80.5t-26 105.5v148q0 112 77 189.5t189 77.5h15zM550 261v155q0 78 -53.5 132t-130.5 54h-15q-78 0 -132 -54t-54 -132v-148q0 -76 53 -131t125 -55h30q74 0 125.5 52t51.5 127z" />
    <glyph glyph-name="uniFED8" unicode="&#x642;" horiz-adv-x="767" arabic-form="medial" 
d="M285 815q-23 0 -39.5 16.5t-16.5 39.5t16.5 39.5t39.5 16.5q22 0 38.5 -16.5t16.5 -39.5t-16 -39.5t-39 -16.5zM483 815q-23 0 -39.5 16.5t-16.5 39.5t16.5 39.5t39.5 16.5q22 0 38.5 -16.5t16.5 -39.5t-16 -39.5t-39 -16.5zM575 81h203v-81h-781l-34 14v54l34 13h215
q-44 32 -70 81t-26 106v147q0 118 73.5 192t203.5 74q132 0 204.5 -72.5t72.5 -193.5v-147q0 -57 -26 -106t-69 -81zM386 81q97 0 150.5 53t53.5 134v147q0 84 -51 135t-142 51q-99 0 -149.5 -49.5t-50.5 -136.5v-147q0 -77 55 -132t134 -55z" />
    <glyph glyph-name="uniFEDA" unicode="&#x643;" horiz-adv-x="1231" arabic-form="final" 
d="M1158 81h80v-81h-88q-90 0 -146 78q-52 -78 -152 -78h-533q-114 0 -189 75.5t-75 189.5v243h80v-243q0 -81 51.5 -132.5t132.5 -51.5h533q54 0 83.5 32t29.5 82l-1 755h82v-753q0 -51 29 -83.5t83 -32.5zM654 535v-46h-232v46h50q-35 32 -35 89q0 52 26.5 80.5t74.5 28.5
q96 0 111 -108h-43q-14 62 -67 62q-30 0 -43.5 -15.5t-13.5 -50.5q0 -64 52 -86h120z" />
    <glyph glyph-name="uniFEDB" unicode="&#x643;" horiz-adv-x="851" arabic-form="initial" 
d="M493 526q117 0 197.5 -81.5t80.5 -197.5q0 -103 -72 -175t-175 -72h-516l-35 14v54l35 13h511q72 0 122 51t50 123q0 82 -57 136t-141 54h-402l-8 30l247 475l63 -27l-195 -397h295z" />
    <glyph glyph-name="uniFEDC" unicode="&#x643;" horiz-adv-x="901" arabic-form="medial" 
d="M760 81h158v-81h-925l-35 14v54l35 13h687v166q0 87 -55.5 142.5t-141.5 55.5h-402l-9 14l249 491h80l-213 -424h295q120 0 198.5 -79.5t78.5 -199.5v-166z" />
    <glyph glyph-name="uniFEDE" unicode="&#x644;" horiz-adv-x="996" arabic-form="final" 
d="M999 81v-81h-183q-2 -159 -108.5 -264t-266.5 -105h-4q-160 0 -265.5 106t-105.5 267v284h80v-284q0 -129 81.5 -210.5t209.5 -81.5h4q129 0 212 81.5t83 210.5v946h80v-869h183z" />
    <glyph glyph-name="uniFEDF" unicode="&#x644;" horiz-adv-x="339" arabic-form="initial" 
d="M162 950h81v-822q0 -54 -36.5 -91t-91.5 -37h-116l-34 14v53l34 14h95q29 0 48.5 19t19.5 50v800z" />
    <glyph glyph-name="uniFEE0" unicode="&#x644;" horiz-adv-x="404" arabic-form="medial" 
d="M365 81h50v-81h-61q-88 0 -144 76q-52 -76 -151 -76h-62v1l-32 13v53l32 12v2h63q52 0 82 32t30 82l-1 755h82v-753q0 -51 29 -83.5t83 -32.5z" />
    <glyph glyph-name="uniFEE2" unicode="&#x645;" horiz-adv-x="954" arabic-form="final" 
d="M924 81h33v-81h-33q-59 0 -105 29t-69 79q-32 -60 -92 -95.5t-135 -35.5q-84 0 -143 24t-104 77q-72 -2 -112.5 -43t-40.5 -107v-283h-81v283q0 93 59 156.5t149 71.5v254q0 118 77.5 195.5t195.5 77.5t195.5 -77.5t77.5 -195.5v-198q0 -57 36 -94t92 -37zM523 59
q84 0 137.5 53.5t53.5 137.5v160q0 85 -53.5 138.5t-137.5 53.5t-137.5 -53.5t-53.5 -138.5v-273q33 -42 77.5 -60t113.5 -18z" />
    <glyph glyph-name="uniFEE3" unicode="&#x645;" horiz-adv-x="821" arabic-form="initial" 
d="M470 683q115 0 190.5 -76t75.5 -191v-144q0 -110 -76 -188.5t-182 -78.5q-148 0 -240 103q-24 -50 -71 -79t-108 -29h-60l-36 14v54l36 13h60q57 0 94 37t37 95v203q0 115 75.5 191t190.5 76h14zM655 272v144q0 81 -52 133.5t-133 52.5h-14q-82 0 -134 -52.5t-52 -133.5
v-226q34 -49 89 -76.5t119 -27.5q73 0 125 55t52 131z" />
    <glyph glyph-name="uniFEE4" unicode="&#x645;" horiz-adv-x="895" arabic-form="medial" 
d="M863 81h46v-81h-46q-65 0 -114 33.5t-69 89.5q-34 -54 -88 -86t-118 -32q-149 0 -241 103q-24 -50 -70.5 -79t-107.5 -29h-56l-36 14v54l36 13h56q57 0 94 37t37 95v203q0 115 75.5 191t190.5 76h14q115 0 190.5 -76t75.5 -191v-203q0 -58 37 -95t94 -37zM474 86
q73 0 125 55t52 131v144q0 81 -52 133.5t-133 52.5h-14q-82 0 -134 -52.5t-52 -133.5v-226q34 -49 89 -76.5t119 -27.5z" />
    <glyph glyph-name="uniFEE6" unicode="&#x646;" horiz-adv-x="989" arabic-form="final" 
d="M412 643q-23 0 -39.5 16.5t-16.5 39.5q0 22 16.5 38.5t39.5 16.5q22 0 38.5 -16t16.5 -39t-16 -39.5t-39 -16.5zM997 81v-81h-181v-5q0 -160 -107 -266t-268 -106h-4q-160 0 -265.5 106t-105.5 266v285h80v-285q0 -128 81.5 -209.5t209.5 -81.5h4q129 0 212 81.5
t83 209.5v656h80v-570h181z" />
    <glyph glyph-name="uniFEE7" unicode="&#x646;" horiz-adv-x="360" arabic-form="initial" 
d="M224 748q-22 0 -39 17t-17 39t17 39t39 17t38.5 -16.5t16.5 -39.5t-16.5 -39.5t-38.5 -16.5zM-19 0v81h145q28 0 47.5 19t19.5 50v497h81v-519q0 -54 -37 -91t-91 -37h-165z" />
    <glyph glyph-name="uniFEE8" unicode="&#x646;" horiz-adv-x="405" arabic-form="medial" 
d="M208 769q-23 0 -39.5 16.5t-16.5 39.5q0 22 16.5 38t39.5 16q22 0 38 -15.5t16 -38.5t-16 -39.5t-38 -16.5zM369 81h50v-81h-61q-88 0 -144 76q-52 -76 -151 -76h-66l-35 14v53l35 14h66q54 0 83 32.5t29 83.5v449h82v-425q0 -7 -2 -27q1 -50 31 -81.5t83 -31.5z" />
    <glyph glyph-name="uniFEEA" unicode="&#x647;" horiz-adv-x="790" arabic-form="final" 
d="M763 81h29v-81h-29q-63 0 -112.5 30t-75.5 82q-89 -107 -231 -107q-106 0 -182 78.5t-76 188.5v144q0 115 75.5 191t190.5 76h282v-279l-2 -19h2v-172q0 -58 36 -95t93 -37zM552 190v412h-200q-81 0 -133 -52.5t-52 -133.5v-144q0 -76 52.5 -131t124.5 -55
q65 0 119.5 27.5t88.5 76.5z" />
    <glyph glyph-name="uniFEEB" unicode="&#x647;" horiz-adv-x="1021" arabic-form="initial" 
d="M255 632q129 41 255 45t220 -24.5t152.5 -87t59.5 -135.5v-175q0 -106 -74.5 -180.5t-180.5 -74.5h-702l-36 14v54l36 13h209q-38 27 -61.5 71t-23.5 94v128q2 77 40.5 133.5t105.5 78.5v46zM677 81q76 0 130.5 54t54.5 130l-2 165q0 70 -74 116.5t-183 53.5t-236 -20
q102 5 167 -50t65 -161v-288h78zM528 81v289q0 74 -44.5 118t-124.5 44q-88 0 -132.5 -42.5t-44.5 -119.5v-122q0 -66 47 -112.5t118 -54.5h181z" />
    <glyph glyph-name="uniFEEC" unicode="&#x647;" horiz-adv-x="813" arabic-form="medial" 
d="M623 81h219v-81h-144v-66q0 -139 -75 -225t-205 -86q-127 0 -204 90.5t-77 230.5v56h-149v81h149v269q0 145 83 239t210 94q138 0 216.5 -96t78.5 -266q0 -138 -91.5 -229.5t-229.5 -91.5h-191v-56q0 -109 56 -176.5t149 -67.5q92 0 148.5 68t56.5 176v137zM213 341v-260
h191q107 0 178 67t71 173q0 139 -58.5 212t-163.5 73q-95 0 -156.5 -75t-61.5 -190zM-49 14v54l35 13v-81z" />
    <glyph glyph-name="uniFEEE" unicode="&#x648;" horiz-adv-x="700" arabic-form="final" 
d="M707 81v-81h-87v-63q0 -142 -107.5 -197t-328.5 -25v76q196 -20 275.5 16t79.5 145v49h-210q-105 1 -180 79.5t-75 187.5v148q0 114 76 190.5t190 76.5h14q114 0 190 -76.5t76 -190.5v-335h87zM332 82h207v334q0 81 -52 133.5t-133 52.5h-14q-82 0 -134 -52.5t-52 -133.5
v-148q0 -76 52.5 -131t125.5 -55z" />
    <glyph glyph-name="uniFEF0" unicode="&#x649;" horiz-adv-x="1324" arabic-form="final" 
d="M1189 81h142v-81h-222v598h-112q-79 0 -130 -51t-51 -129v-415q0 -160 -107 -266.5t-268 -106.5h-3q-160 0 -266 106t-106 267v284h80v-284q0 -129 81.5 -210.5t210.5 -81.5h3q129 0 212 81.5t83 210.5v415q0 112 74.5 186.5t186.5 74.5h192v-598z" />
    <glyph glyph-name="uniFEF2" unicode="&#x64a;" horiz-adv-x="1324" arabic-form="final" 
d="M1189 81h142v-81h-222v598h-112q-79 0 -130 -51t-51 -129v-415q0 -160 -107 -266.5t-268 -106.5h-3q-160 0 -266 106t-106 267v284h80v-284q0 -129 81.5 -210.5t210.5 -81.5h3q129 0 212 81.5t83 210.5v415q0 112 74.5 186.5t186.5 74.5h192v-598zM336 -451
q22 0 38 -16.5t16 -39.5t-16 -39.5t-38 -16.5q-23 0 -39.5 16.5t-16.5 39.5t16.5 39.5t39.5 16.5zM532 -451q22 0 38.5 -16.5t16.5 -39.5t-16.5 -39.5t-38.5 -16.5t-38.5 16.5t-16.5 39.5t16.5 39.5t38.5 16.5z" />
    <glyph glyph-name="uniFEF3" unicode="&#x64a;" horiz-adv-x="421" arabic-form="initial" 
d="M-16 0v81h192q28 0 47.5 19t19.5 50v497h82v-519q0 -54 -37 -91t-91 -37h-213zM87 -243q-23 0 -39.5 16.5t-16.5 39.5t16.5 39.5t39.5 16.5q22 0 38.5 -16.5t16.5 -39.5t-16.5 -39.5t-38.5 -16.5zM284 -243q-22 0 -39 16.5t-17 39.5t17 39.5t39 16.5q23 0 39.5 -16.5
t16.5 -39.5t-16.5 -39.5t-39.5 -16.5z" />
    <glyph glyph-name="uniFEF4" unicode="&#x64a;" horiz-adv-x="471" arabic-form="medial" 
d="M404 81h81v-81h-92q-87 0 -143 76q-54 -76 -152 -76h-101l-35 14v53l35 14h101q54 0 83 32.5t29 83.5v449h81v-449q0 -51 29.5 -83.5t83.5 -32.5zM141 -124q22 0 38 -16.5t16 -39.5t-16 -39.5t-38 -16.5q-23 0 -39.5 16.5t-16.5 39.5t16.5 39.5t39.5 16.5zM337 -124
q22 0 38.5 -16.5t16.5 -39.5t-16 -39.5t-39 -16.5t-39.5 16.5t-16.5 39.5q0 22 16.5 39t39.5 17z" />
    <glyph glyph-name=".notdef" horiz-adv-x="510" 
 />
    <glyph glyph-name=".null" 
 />
    <glyph glyph-name="nonmarkingreturn" horiz-adv-x="682" 
 />
    <glyph glyph-name="space" unicode=" " horiz-adv-x="255" 
 />
    <glyph glyph-name="exclam" unicode="!" horiz-adv-x="370" 
d="M220 284h-71l-6 654h82zM184 -5q-22 0 -38 16.5t-16 39.5t16 38.5t38 15.5q23 0 39.5 -16t16.5 -38q0 -23 -16.5 -39.5t-39.5 -16.5z" />
    <glyph glyph-name="quotedbl" unicode="&#x22;" horiz-adv-x="458" 
d="M164 629h-60v313h60v-313zM355 629h-61v313h61v-313z" />
    <glyph glyph-name="numbersign" unicode="#" horiz-adv-x="843" 
d="M522 273h-264l-45 -273h-64l44 273h-159l11 66h158l43 259h-160l14 66h157l45 271h65l-45 -271h264l45 271h64l-45 -271h160l-11 -66h-159l-43 -259h159l-11 -66h-158l-45 -273h-65zM532 339l43 259h-264l-42 -259h263z" />
    <glyph glyph-name="dollar" unicode="$" horiz-adv-x="819" 
d="M384 -126v107q-135 6 -215.5 77t-85.5 189h84q6 -81 64.5 -132t153.5 -56v389l-42 13q-237 74 -238 244q0 107 79.5 179.5t203.5 80.5v107h56v-107q123 -8 199 -81t81 -186h-85q-6 80 -59 132t-138 57v-372l39 -11q257 -70 255 -257q0 -114 -80.5 -186t-215.5 -80v-107
h-56zM386 530v359q-84 -8 -137 -57t-54 -122q0 -68 45 -109.5t146 -70.5zM441 59q94 6 150 57t56 131q0 69 -46.5 110t-159.5 76v-374z" />
    <glyph glyph-name="percent" unicode="%" horiz-adv-x="1309" 
d="M337 389q-104 0 -160.5 82.5t-56.5 227.5q0 142 56.5 222.5t160.5 80.5q105 0 161 -80.5t56 -222.5q0 -145 -56 -227.5t-161 -82.5zM337 451q79 0 115.5 70.5t36.5 177.5q0 106 -36.5 174t-115.5 68t-115 -68t-36 -174q0 -69 13.5 -122t48.5 -89.5t89 -36.5zM728 926h82
l-269 -1078h-81zM982 -132q-105 0 -160.5 81.5t-55.5 227.5q0 142 56 223t160 81q105 0 161.5 -81t56.5 -223q0 -146 -56.5 -227.5t-161.5 -81.5zM982 -71q80 0 116.5 70t36.5 178q0 106 -36.5 174t-116.5 68q-79 0 -115 -68t-36 -174q0 -69 13.5 -122t48.5 -89.5t89 -36.5z
" />
    <glyph glyph-name="ampersand" unicode="&#x26;" horiz-adv-x="804" 
d="M356 -12q-122 0 -203 74t-81 182q-2 76 41 133t159 136l-7 9q-64 76 -92 128t-28 105q0 89 65 153.5t159 64.5q89 0 147.5 -59.5t58.5 -147.5q0 -118 -135 -216l-63 -48l239 -297q51 79 63 183l73 -3q-17 -146 -83 -240l117 -142h-92l-78 94q-3 -4 -10 -11
q-43 -49 -110 -73.5t-140 -24.5zM396 599q69 53 95 124.5t-6 124t-116 52.5q-61 0 -105 -43t-44 -102q0 -37 20.5 -73t92.5 -129zM318 460q-97 -72 -129 -113t-32 -97q0 -79 59 -133.5t146 -55.5q121 1 205 93z" />
    <glyph glyph-name="quotesingle" unicode="'" horiz-adv-x="311" 
d="M224 954q-26 -182 -68 -308h-55q3 19 15 76t23 116t18 114l8 52h67z" />
    <glyph glyph-name="parenleft" unicode="(" horiz-adv-x="449" 
d="M145 373q0 310 147 583h81q-145 -270 -145 -583q0 -307 145 -583h-81q-147 274 -147 583z" />
    <glyph glyph-name="parenright" unicode=")" horiz-adv-x="449" 
d="M304 373q0 -310 -147 -583h-81q145 270 145 583q0 150 -38 301.5t-107 281.5h81q147 -274 147 -583z" />
    <glyph glyph-name="asterisk" unicode="*" horiz-adv-x="690" 
d="M321 632l-190 -113l-29 49l193 106l-193 108l29 49l190 -113l-4 220h57l-4 -220l190 113l28 -49l-192 -108l192 -106l-28 -49l-190 113l4 -220h-57z" />
    <glyph glyph-name="plus" unicode="+" horiz-adv-x="729" 
d="M623 407v-67h-226v-227l-67 2l2 225h-224v67h224l1 222l66 -1v-221h224z" />
    <glyph glyph-name="comma" unicode="," horiz-adv-x="350" 
d="M224 75q-11 -74 -31.5 -167t-36.5 -141h-55q3 15 15 74t23 117.5t18 113.5l8 52h67z" />
    <glyph glyph-name="hyphen" unicode="-" horiz-adv-x="585" 
d="M478 340h-370v67h370v-67z" />
    <glyph glyph-name="period" unicode="." horiz-adv-x="348" 
d="M173 -3q-20 0 -34.5 14.5t-14.5 36.5q-1 20 14 34.5t35 14.5t35.5 -14.5t15.5 -34.5q0 -21 -15 -36t-36 -15z" />
    <glyph glyph-name="slash" unicode="/" horiz-adv-x="438" 
d="M124 -152h-80l269 1078h80z" />
    <glyph glyph-name="zero" unicode="0" horiz-adv-x="858" 
d="M430 -19q-165 0 -253 129.5t-88 359.5q0 225 88 351.5t253 126.5q164 0 252 -126.5t88 -351.5q0 -229 -88 -359t-252 -130zM430 57q69 0 119.5 34t78 94.5t40.5 131t13 153.5t-13 152t-40.5 126.5t-78 90t-119.5 32.5t-119.5 -32.5t-79 -90t-41.5 -126.5t-13 -152
t13 -154t41.5 -130.5t79 -94t119.5 -34.5z" />
    <glyph glyph-name="one" unicode="1" horiz-adv-x="430" 
d="M250 -5l1 853l-175 -111l-27 79l231 123h16h43v-944h-89z" />
    <glyph glyph-name="two" unicode="2" horiz-adv-x="708" 
d="M51 67q276 239 377.5 366t101.5 239q0 55 -19.5 96t-51.5 63t-67.5 32.5t-73.5 10.5q-124 0 -248 -63l-19 66q144 71 284 71q131 0 207 -72.5t76 -194.5q0 -48 -7 -86.5t-31.5 -83.5t-51 -81t-87 -98t-116.5 -115t-161 -149h470v-73h-583v72z" />
    <glyph glyph-name="three" unicode="3" horiz-adv-x="746" 
d="M419 479q112 -14 175.5 -79.5t63.5 -159.5q0 -127 -82.5 -193t-238.5 -66q-181 0 -289 67v71q136 -64 281 -64q62 0 108 14t70 34t38.5 48t18 49t3.5 44q0 89 -67 137t-189 48h-113v71h111q103 0 168 55t65 136q0 23 -4 45t-17.5 48.5t-36 45.5t-63 32t-93.5 13
q-128 0 -246 -60l-18 66q127 67 277 67q135 0 211.5 -64t76.5 -184q0 -91 -57.5 -150t-152.5 -71z" />
    <glyph glyph-name="four" unicode="4" horiz-adv-x="772" 
d="M587 325h131v-74h-131v-256h-89v256h-443v71l427 612h105v-609zM149 325h349l2 505z" />
    <glyph glyph-name="five" unicode="5" horiz-adv-x="746" 
d="M190 582q240 -4 361 -80t121 -234q0 -128 -88.5 -207.5t-235.5 -79.5q-153 0 -282 72v73q125 -71 278 -71q111 0 175 57.5t64 153.5q0 126 -114 184.5t-358 60.5l20 423h486l-30 -74h-378z" />
    <glyph glyph-name="six" unicode="6" horiz-adv-x="797" 
d="M416 627q136 0 214.5 -85t78.5 -239q0 -143 -84.5 -232.5t-216.5 -89.5q-74 0 -131 24.5t-92 64.5t-57 97.5t-30.5 117t-8.5 129.5q0 266 102 400t284 134q45 0 87 -7t57.5 -12t60.5 -20l-6 -67q-104 33 -197 33q-70 0 -124.5 -29t-85 -69.5t-51.5 -97t-28.5 -98.5
t-11.5 -88q46 64 109 99t131 35zM407 55q96 0 156 68t60 177q0 36 -5.5 69t-20.5 68t-39.5 60t-65 41t-93.5 16q-61 0 -121 -37.5t-101 -101.5q0 -63 5 -112.5t20 -97.5t39.5 -79.5t66.5 -51t99 -19.5z" />
    <glyph glyph-name="seven" unicode="7" horiz-adv-x="628" 
d="M44 934h542v-57l-376 -882h-87l374 867l-453 -2v74z" />
    <glyph glyph-name="eight" unicode="8" horiz-adv-x="823" 
d="M497 489q114 -44 176.5 -102.5t62.5 -150.5q0 -124 -88.5 -189.5t-237.5 -65.5q-147 0 -235.5 63.5t-88.5 183.5q0 169 238 253q-212 77 -212 233q0 110 84 172t216 62q130 0 213.5 -62t83.5 -169q0 -83 -53 -133.5t-159 -94.5zM205 713q0 -67 53 -112.5t161 -76.5
q98 35 149.5 76.5t51.5 109.5q0 49 -20.5 84t-54 52t-66.5 24.5t-68 7.5q-33 0 -65 -7.5t-65.5 -24.5t-54.5 -51.5t-21 -81.5zM410 52q114 0 173.5 47t59.5 133q0 35 -15 64.5t-35.5 50t-56.5 40t-64 31.5t-71 27q-225 -74 -225 -209q0 -88 60 -136t174 -48z" />
    <glyph glyph-name="nine" unicode="9" horiz-adv-x="797" 
d="M389 948q74 0 130.5 -24.5t92 -64.5t58 -97.5t31 -117t8.5 -128.5q0 -267 -103 -401t-285 -134q-97 0 -205 34v68q113 -30 203 -30q59 0 107 19t79 53t53.5 72t35.5 85t19.5 82t9.5 72q-47 -64 -110.5 -99t-131.5 -35q-136 0 -214 84.5t-78 238.5q0 144 84 233.5
t216 89.5zM399 374q61 0 120 38t101 103q0 63 -5 112t-20 97t-39.5 79.5t-66.5 51t-99 19.5q-95 0 -155 -68.5t-60 -177.5q0 -36 5.5 -69t20.5 -68t39.5 -60t65 -41t93.5 -16z" />
    <glyph glyph-name="colon" unicode=":" horiz-adv-x="348" 
d="M173 504q-22 0 -38 16.5t-16 39.5q0 22 16 38t38 16q23 0 39.5 -16t16.5 -38q0 -23 -16.5 -39.5t-39.5 -16.5zM173 29q-23 0 -38.5 15.5t-15.5 38.5t15.5 39t38.5 16t39.5 -16t16.5 -39q0 -22 -16.5 -38t-39.5 -16z" />
    <glyph glyph-name="semicolon" unicode=";" horiz-adv-x="350" 
d="M214 531q-26 0 -45 19t-19 47q0 26 19 45t45 19t46 -19t20 -45q0 -27 -19.5 -46.5t-46.5 -19.5zM239 257q-8 -55 -32 -162t-32 -148h-60q41 201 60 314l8 43h63z" />
    <glyph glyph-name="less" unicode="&#x3c;" horiz-adv-x="849" 
d="M145 588l560 320v-85l-469 -271v-6l469 -270v-85l-560 320v77z" />
    <glyph glyph-name="equal" unicode="=" horiz-adv-x="729" 
d="M623 340h-515v67h515v-67zM623 130h-515v67h515v-67z" />
    <glyph glyph-name="greater" unicode="&#x3e;" horiz-adv-x="849" 
d="M146 191v85l468 270v6l-468 271v85l559 -320v-77z" />
    <glyph glyph-name="question" unicode="?" horiz-adv-x="666" 
d="M270 336q0 72 26 116.5t93 90.5q65 45 92 82.5t27 83.5q0 74 -51.5 123t-127.5 49q-80 0 -133.5 -54t-53.5 -135h-76q0 114 75 185.5t188 71.5q112 0 187 -66t75 -170q0 -63 -32 -110t-107 -99q-62 -43 -85.5 -79t-23.5 -89v-55h-73v55zM307 -10q-22 0 -38 16.5t-16 39.5
q-1 23 15 39t39 16t39.5 -16t16.5 -39t-16.5 -39.5t-39.5 -16.5z" />
    <glyph glyph-name="at" unicode="@" horiz-adv-x="1280" 
d="M647 -122q-165 0 -297.5 79t-206 215t-73.5 302q0 168 74.5 306t208 217.5t298.5 79.5q160 0 290.5 -76t205 -211.5t74.5 -302.5q1 -145 -68 -233.5t-182 -91.5q-58 -2 -86 31t-29 102h-3q-30 -64 -94.5 -103t-140.5 -38q-113 2 -192.5 92t-78.5 229q0 139 78.5 230
t186.5 95q77 3 141.5 -35t93.5 -100h4v126h67v-462q0 -58 13 -77.5t48 -19.5q74 0 122.5 72t48.5 188q0 93 -27 175.5t-74.5 143.5t-110.5 105.5t-136.5 67t-150.5 22.5q-145 0 -262 -71.5t-181.5 -192t-64.5 -265.5q1 -227 145.5 -377.5t362.5 -150.5q158 0 283 82l29 -60
q-129 -93 -316 -93zM636 225q92 0 151.5 72t59.5 181q0 105 -59 177.5t-152 72.5q-92 0 -154.5 -72t-62.5 -179q0 -105 61.5 -178.5t155.5 -73.5z" />
    <glyph glyph-name="A" unicode="A" horiz-adv-x="845" 
d="M472 941l346 -946h-92l-92 262h-413l-94 -262h-89l358 946h76zM242 328h374l-185 516z" />
    <glyph glyph-name="B" unicode="B" horiz-adv-x="831" 
d="M583 475q85 -21 134.5 -80t49.5 -149q0 -119 -71.5 -185t-199.5 -66h-394v939h366q125 0 197 -64t72 -176q0 -83 -40.5 -140t-113.5 -79zM191 857v-346h272q188 0 188 173q0 83 -49 128t-139 45h-272zM487 71q92 0 142 46.5t50 135.5q0 88 -55.5 134.5t-157.5 46.5h-275
v-363h296z" />
    <glyph glyph-name="C" unicode="C" horiz-adv-x="856" 
d="M786 44q-159 -63 -307 -63q-196 0 -293 125t-97 358q0 234 97 359t293 125q148 0 307 -63v-73q-180 59 -300 59q-152 0 -230.5 -103t-78.5 -304t78.5 -304t230.5 -103q120 0 300 59v-72z" />
    <glyph glyph-name="D" unicode="D" horiz-adv-x="894" 
d="M102 -5v939h324q191 0 286.5 -119.5t95.5 -344.5q0 -231 -95.5 -353t-286.5 -122h-324zM426 71q146 0 220 100.5t74 298.5q0 387 -294 387h-235v-786h235z" />
    <glyph glyph-name="E" unicode="E" horiz-adv-x="746" 
d="M676 857h-485v-335h422v-77h-422v-374h492v-76h-581v939h574v-77z" />
    <glyph glyph-name="F" unicode="F" horiz-adv-x="709" 
d="M658 857h-467v-363h406v-76h-406v-423h-89v939h556v-77z" />
    <glyph glyph-name="G" unicode="G" horiz-adv-x="887" 
d="M696 452h89v-408q-159 -63 -306 -63q-196 0 -293 125t-97 358q0 234 97 359t293 125q144 0 303 -63v-74q-160 60 -296 60q-152 0 -230.5 -103t-78.5 -304q0 -199 78.5 -303t225.5 -104q98 0 215 39v356z" />
    <glyph glyph-name="H" unicode="H" horiz-adv-x="883" 
d="M102 -5v939h89v-412h501v412h89v-939h-89v450h-501v-450h-89z" />
    <glyph glyph-name="I" unicode="I" horiz-adv-x="293" 
d="M102 -5v939h89v-939h-89z" />
    <glyph glyph-name="J" unicode="J" horiz-adv-x="408" 
d="M306 188q0 -207 -176 -207q-54 0 -112 11l11 74q63 -9 80 -9q108 0 108 134v743h89v-746z" />
    <glyph glyph-name="K" unicode="K" horiz-adv-x="819" 
d="M777 -5h-118l-468 466v-466h-89v939h89v-467l462 467h112l-466 -467z" />
    <glyph glyph-name="L" unicode="L" horiz-adv-x="705" 
d="M191 934v-863h474v-76h-563v939h89z" />
    <glyph glyph-name="M" unicode="M" horiz-adv-x="1101" 
d="M893 934h106v-939h-88l1 794l-333 -636h-63l-333 636l1 -794h-82v939h104l201 -387l145 -275l144 275z" />
    <glyph glyph-name="N" unicode="N" horiz-adv-x="899" 
d="M715 939h82v-939h-84l-530 782l1 -782h-82v939h81l534 -789z" />
    <glyph glyph-name="O" unicode="O" horiz-adv-x="940" 
d="M471 -19q-190 0 -286 126.5t-96 362.5q0 229 96 353.5t286 124.5q188 0 284.5 -124.5t96.5 -353.5q0 -235 -96 -362t-285 -127zM471 57q82 0 141 34t91 94.5t46 130.5t14 154q0 198 -73.5 299.5t-218.5 101.5t-219.5 -101.5t-74.5 -299.5q0 -84 14.5 -154t46.5 -130.5
t91.5 -94.5t141.5 -34z" />
    <glyph glyph-name="P" unicode="P" horiz-adv-x="819" 
d="M191 403v-408h-89v939h376q125 0 201 -72.5t76 -193.5q0 -125 -74 -195t-203 -70h-287zM191 479h280q94 0 144.5 48t50.5 141q0 90 -53 139.5t-142 49.5h-280v-378z" />
    <glyph glyph-name="Q" unicode="Q" horiz-adv-x="940" 
d="M687 -229l-219 210q-188 1 -283.5 128t-95.5 361q0 229 96 353.5t286 124.5q188 0 284.5 -124.5t96.5 -353.5q0 -207 -73.5 -327t-217.5 -143l182 -176zM471 57q82 0 141 34t91 94.5t46 130.5t14 154q0 198 -73.5 299.5t-218.5 101.5t-219.5 -101.5t-74.5 -299.5
q0 -84 14.5 -154t46.5 -130.5t91.5 -94.5t141.5 -34z" />
    <glyph glyph-name="R" unicode="R" horiz-adv-x="831" 
d="M537 396l251 -401h-101l-242 393h-254v-393h-89v939h376q124 0 200.5 -75t76.5 -198q0 -111 -58 -181t-160 -84zM191 464h280q90 0 142.5 52t52.5 145q0 89 -54.5 142.5t-139.5 53.5h-281v-393z" />
    <glyph glyph-name="S" unicode="S" horiz-adv-x="776" 
d="M389 -19q-168 0 -325 45v74q189 -44 321 -44q122 0 180.5 54.5t58.5 129.5q0 26 -8 48t-18.5 38.5t-33 32t-38.5 25t-48.5 22t-50.5 18.5t-56 18t-61.5 20t-58 22t-56 27.5t-46 34.5t-38.5 43.5t-23.5 53.5t-9.5 67q0 116 82.5 177t228.5 61t307 -47v-75q-177 46 -306 46
q-223 0 -223 -162q0 -34 13.5 -61t33 -44.5t54.5 -34.5t63 -26.5t74 -24.5q2 -1 3.5 -1t3 -1t3.5 -1q54 -16 87 -27.5t78 -34.5t70.5 -49t44 -67t18.5 -92q0 -125 -88.5 -195t-235.5 -70z" />
    <glyph glyph-name="T" unicode="T" horiz-adv-x="738" 
d="M688 857h-274v-862h-89v862h-274v77h637v-77z" />
    <glyph glyph-name="U" unicode="U" horiz-adv-x="886" 
d="M191 330q0 -37 3.5 -67.5t18.5 -71t40.5 -68t74.5 -47t116 -19.5t116 19.5t74 47t40 68t18 70.5t3 68v604h89v-604q0 -175 -87 -262t-253 -87q-167 0 -254.5 87t-87.5 262v604h89v-604z" />
    <glyph glyph-name="V" unicode="V" horiz-adv-x="856" 
d="M730 934h88l-344 -946h-103l-333 946h92l206 -590l89 -258l92 258z" />
    <glyph glyph-name="W" unicode="W" horiz-adv-x="1254" 
d="M1128 934h89l-264 -946h-102l-223 800l-224 -800h-102l-264 946h93l153 -548l72 -269l73 269l153 548h95l154 -548l73 -269l71 269z" />
    <glyph glyph-name="X" unicode="X" horiz-adv-x="869" 
d="M489 489l334 -494h-103l-177 258l-114 170l-115 -170l-172 -258h-96l331 494l-298 445h103l136 -202l118 -176l117 177l135 201h100z" />
    <glyph glyph-name="Y" unicode="Y" horiz-adv-x="813" 
d="M685 934h92l-326 -602v-337h-88v337l-326 602h95l145 -273l133 -239l131 239z" />
    <glyph glyph-name="Z" unicode="Z" horiz-adv-x="775" 
d="M177 71h534v-76h-647v61l519 801h-492v77h605v-62z" />
    <glyph glyph-name="bracketleft" unicode="[" horiz-adv-x="449" 
d="M156 946h221v-65h-141v-1035h141v-64h-221v1164z" />
    <glyph glyph-name="backslash" unicode="\" horiz-adv-x="438" 
d="M126 926l267 -1078h-80l-269 1078h82z" />
    <glyph glyph-name="bracketright" unicode="]" horiz-adv-x="449" 
d="M294 -218h-222v64h141v1035h-141v65h222v-1164z" />
    <glyph glyph-name="underscore" unicode="_" horiz-adv-x="891" 
d="M823 11h-722v67h722v-67z" />
    <glyph glyph-name="grave" unicode="`" horiz-adv-x="117" 
d="M0 1335h63l12 -60q4 -34 20 -106t22 -104h-58q-4 17 -22 90.5t-23 110.5z" />
    <glyph glyph-name="a" unicode="a" horiz-adv-x="686" 
d="M516 471q0 76 -33 118.5t-90 50.5t-123.5 -4t-145.5 -42l-12 59q89 38 173 50.5t155.5 -3t114.5 -73t43 -153.5v-474h-83v101q-109 -109 -251 -109q-90 0 -143 47.5t-53 125.5q0 116 124 191.5t324 61.5v53zM516 363q-84 9 -156 -5t-117.5 -43t-70.5 -66t-25 -76
q0 -53 39 -83.5t105 -30.5q70 0 123 26t102 75v203z" />
    <glyph glyph-name="b" unicode="b" horiz-adv-x="730" 
d="M377 711q133 0 205.5 -96t72.5 -263q0 -169 -70.5 -264.5t-203.5 -95.5q-120 0 -210 78l-2 -70h-80v943h82v-307q90 75 206 75zM356 61q102 0 157.5 76t55.5 215q0 138 -55.5 214t-157.5 76q-103 0 -185 -70v-441q82 -70 185 -70z" />
    <glyph glyph-name="c" unicode="c" horiz-adv-x="630" 
d="M578 26q-89 -34 -181 -34q-154 0 -239.5 95.5t-85.5 268.5q0 174 85.5 270t239.5 96q83 0 176 -31l-17 -64q-98 26 -152 26q-118 0 -182.5 -77t-64.5 -220q0 -142 64.5 -218.5t182.5 -76.5q64 0 159 30z" />
    <glyph glyph-name="d" unicode="d" horiz-adv-x="730" 
d="M558 943h84v-943h-81l-3 70q-90 -78 -208 -78q-133 0 -204 96t-71 264q0 167 72 263t205 96q116 0 206 -75v307zM161 352q0 -138 55.5 -214.5t156.5 -76.5q105 0 185 70v441q-80 70 -185 70q-101 0 -156.5 -76t-55.5 -214z" />
    <glyph glyph-name="e" unicode="e" horiz-adv-x="744" 
d="M164 350q2 -145 66.5 -217t198.5 -72q109 0 195 30l20 -61q-64 -23 -112.5 -30.5t-115.5 -7.5q-168 0 -252.5 94.5t-84.5 271.5q0 173 81 271.5t226 98.5q139 0 205.5 -105.5t54.5 -272.5h-482zM572 406q0 113 -50 186t-137 73q-98 0 -155.5 -67.5t-65.5 -191.5h408z" />
    <glyph glyph-name="f" unicode="f" horiz-adv-x="394" 
d="M229 681h190l-16 -65h-174v-621h-82v621h-112l25 65h87v90q0 130 78.5 178.5t216.5 -11.5l-9 -59q-72 36 -117.5 27.5t-66 -44.5t-20.5 -97v-84z" />
    <glyph glyph-name="g" unicode="g" horiz-adv-x="730" 
d="M558 694h84v-721q0 -86 -44.5 -145.5t-117 -84.5t-166.5 -20t-192 42l15 64q76 -30 151 -36t135 10t97.5 60.5t37.5 110.5v89q-93 -77 -206 -77q-132 0 -204.5 97t-72.5 264q0 168 71 264t204 96q115 0 206 -82h2v69zM161 347q0 -138 55.5 -214t156.5 -76q105 0 185 70
v434q-80 70 -185 70q-101 0 -156.5 -75.5t-55.5 -208.5z" />
    <glyph glyph-name="h" unicode="h" horiz-adv-x="726" 
d="M422 703q105 1 160.5 -55.5t55.5 -169.5v-478h-82v456q0 164 -150 165q-108 1 -235 -101v-520h-82v934h82v-333q121 102 251 102z" />
    <glyph glyph-name="i" unicode="i" horiz-adv-x="278" 
d="M130 776q-22 0 -37 15t-15 35t15 35.5t37 15.5q20 0 35 -15.5t15 -35.5t-15 -35t-35 -15zM171 681v-681h-82v681h82z" />
    <glyph glyph-name="j" unicode="j" horiz-adv-x="259" 
d="M130 776q-22 0 -37 15t-15 35t15 35.5t37 15.5q20 0 35 -15.5t15 -35.5t-15 -35t-35 -15zM89 681h82v-719q0 -114 -39.5 -170.5t-124.5 -56.5q-52 0 -89 10l10 64q37 -8 62 -8q51 0 75 39t24 122v719z" />
    <glyph glyph-name="k" unicode="k" horiz-adv-x="658" 
d="M631 898l-387 -437l384 -461h-102l-355 441v-441h-82v934h82v-460l361 424h99z" />
    <glyph glyph-name="l" unicode="l" horiz-adv-x="352" 
d="M217 0h-82v934h82v-934z" />
    <glyph glyph-name="m" unicode="m" horiz-adv-x="1172" 
d="M875 702q209 0 209 -224v-478h-82v456q0 165 -155 165q-104 0 -224 -104q5 -24 5 -61v-456h-83v456q0 165 -155 165q-103 0 -219 -101v-520h-82v688h82v-98q124 112 247 112q154 0 194 -123q69 64 130.5 93.5t132.5 29.5z" />
    <glyph glyph-name="n" unicode="n" horiz-adv-x="726" 
d="M171 0h-82v688h82v-89q132 103 258 103q209 0 209 -224v-478h-82v456q0 165 -156 165q-113 0 -229 -101v-520z" />
    <glyph glyph-name="o" unicode="o" horiz-adv-x="750" 
d="M375 -8q-143 0 -221.5 98t-78.5 262q0 163 78.5 261t221.5 98t222 -98t79 -261q0 -164 -79 -262t-222 -98zM375 649q-57 0 -101 -24t-69.5 -65.5t-38.5 -94t-13 -113.5q0 -130 55 -213t167 -83t167 83t55 213q0 61 -13 113.5t-38.5 94t-69.5 65.5t-101 24z" />
    <glyph glyph-name="p" unicode="p" horiz-adv-x="730" 
d="M381 715q133 0 203.5 -96t70.5 -264t-72.5 -264t-205.5 -96q-118 0 -206 76v-309h-82v940h80l2 -64q93 77 210 77zM356 64q102 0 157.5 76t55.5 215q0 134 -55.5 208.5t-157.5 74.5q-98 0 -185 -69v-435q88 -70 185 -70z" />
    <glyph glyph-name="q" unicode="q" horiz-adv-x="730" 
d="M561 702h81v-940h-84v309q-88 -76 -206 -76q-133 0 -205 96t-72 264t71 264t204 96q115 0 208 -77zM161 355q0 -138 55.5 -214.5t156.5 -76.5q99 0 185 70v435q-84 69 -185 69t-156.5 -75t-55.5 -208z" />
    <glyph glyph-name="r" unicode="r" horiz-adv-x="445" 
d="M171 572q115 126 266 124v-68q-76 5 -152.5 -36t-113.5 -90v-502h-82v688h82v-116z" />
    <glyph glyph-name="s" unicode="s" horiz-adv-x="655" 
d="M321 -16q-132 0 -254 41v65q122 -39 240 -39q56 0 96 13.5t58 35t25.5 40t7.5 37.5q0 24 -11 44t-25.5 33.5t-43 27t-48.5 20.5t-57 19q-41 14 -65 23t-59.5 27.5t-54.5 37.5t-33.5 49.5t-14.5 67.5q0 88 72 140t198 52q104 0 221 -39v-66q-115 40 -203 40
q-105 0 -151 -38t-46 -84q0 -25 12 -45.5t25.5 -33t46 -27t49 -20.5t60.5 -20q51 -17 81 -30t67 -36.5t55 -57t18 -77.5q0 -92 -73 -146t-193 -54z" />
    <glyph glyph-name="t" unicode="t" horiz-adv-x="387" 
d="M199 616v-471q0 -99 89 -99q52 0 70 10v-66q-45 -9 -96 -9q-145 0 -145 157v478h-101l17 65h84v174l82 24v-198h163l-18 -65h-145z" />
    <glyph glyph-name="u" unicode="u" horiz-adv-x="726" 
d="M556 688h82v-693h-82v90q-126 -104 -258 -104q-209 0 -209 224v483h82v-460q0 -167 155 -167q116 0 230 101v526z" />
    <glyph glyph-name="v" unicode="v" horiz-adv-x="688" 
d="M571 700h88l-269 -700h-92l-271 700h93l157 -409l68 -201l69 201z" />
    <glyph glyph-name="w" unicode="w" horiz-adv-x="1064" 
d="M948 700h90l-231 -700h-97l-179 578l-179 -578h-93l-232 700h90l192 -613l181 613h86l180 -610z" />
    <glyph glyph-name="x" unicode="x" horiz-adv-x="709" 
d="M410 345l266 -350h-103l-143 184l-80 113l-84 -117l-136 -180h-96l264 350l-263 343h102l143 -184l79 -111l82 115l141 180h90z" />
    <glyph glyph-name="y" unicode="y" horiz-adv-x="688" 
d="M571 688h88l-360 -939h-79l86 229l-279 710h93l224 -609v-4z" />
    <glyph glyph-name="z" unicode="z" horiz-adv-x="641" 
d="M152 61h445v-66h-552v61l438 565h-417v67h520v-61z" />
    <glyph glyph-name="braceleft" unicode="{" horiz-adv-x="454" 
d="M429 -218q-106 0 -160.5 47t-54.5 164v200q0 76 -28.5 104.5t-107.5 28.5v74q79 1 107.5 29.5t28.5 105.5v200q0 115 55 163t160 48v-65q-74 0 -104.5 -36t-29.5 -119v-206q-1 -62 -21.5 -98.5t-72.5 -54.5v-8q51 -16 72 -53t22 -98v-207q-1 -83 29.5 -119t104.5 -36v-64
z" />
    <glyph glyph-name="bar" unicode="|" horiz-adv-x="143" 
d="M16 1410h111v-1410h-111v1410z" />
    <glyph glyph-name="braceright" unicode="}" horiz-adv-x="454" 
d="M26 -218v64q74 0 104.5 36t30.5 119v207q0 60 21 97t72 55v7q-51 18 -72 55t-21 98v206q0 83 -30.5 119t-104.5 36v65q105 0 159.5 -47.5t54.5 -163.5v-200q0 -77 29 -105.5t108 -29.5v-74q-79 0 -108 -28.5t-29 -104.5v-200q0 -117 -54.5 -164t-159.5 -47z" />
    <glyph glyph-name="asciitilde" unicode="~" horiz-adv-x="1208" 
d="M176 366l-53 76l243 196q27 -63 116 -105.5t184 -42.5q71 0 172.5 35t148.5 73l30 -91q-54 -48 -163.5 -85t-187.5 -37q-178 0 -319 120z" />
    <glyph glyph-name="exclamdown" unicode="&#xa1;" horiz-adv-x="370" 
d="M184 938q23 0 39.5 -16t16.5 -39t-16.5 -38.5t-39.5 -15.5t-38.5 15.5t-15.5 38.5t15.5 39t38.5 16zM220 649l5 -654h-82l6 654h71z" />
    <glyph glyph-name="cent" unicode="&#xa2;" horiz-adv-x="630" 
d="M578 26q-84 -32 -174 -34v-123h-44v124q-137 11 -212.5 105.5t-75.5 257.5t75.5 258.5t212.5 106.5v119h44v-118q84 -1 169 -31l-17 -64q-98 26 -152 26v-592q64 0 159 30zM157 356q0 -128 52.5 -203t150.5 -89v586q-98 -14 -150.5 -89.5t-52.5 -204.5z" />
    <glyph glyph-name="sterling" unicode="&#xa3;" horiz-adv-x="1228" 
 />
    <glyph glyph-name="currency" unicode="&#xa4;" horiz-adv-x="779" 
d="M706 504q0 -200 -112 -295l98 -175l-58 -11l-89 154q-62 -34 -139 -34q-91 0 -156 43l-83 -163l-61 11l96 187q-97 97 -97 283q0 164 81 262l-118 206l60 11l101 -175q77 55 177 55q80 0 141 -33l80 153l61 -11l-93 -179q111 -94 111 -289zM406 208q108 0 164.5 82
t56.5 214q0 131 -55.5 213.5t-165.5 82.5q-112 0 -168 -83t-56 -213q0 -134 58 -215t166 -81z" />
    <glyph glyph-name="yen" unicode="&#xa5;" horiz-adv-x="813" 
d="M453 332l-2 -63h217v-40h-217v-71h217v-36h-217v-127h-88v127h-209v36h209v71h-209v40h209v63l-326 602h95l145 -273l134 -240l130 240l144 273h92z" />
    <glyph glyph-name="brokenbar" unicode="&#xa6;" horiz-adv-x="143" 
d="M16 1410h111v-618h-111v618zM16 564h111v-564h-111v564z" />
    <glyph glyph-name="dieresis" unicode="&#xa8;" horiz-adv-x="256" 
d="M45 1062q-19 0 -32 13t-13 32q0 20 13 33.5t32 13.5t32 -13.5t13 -33.5q0 -19 -13 -32t-32 -13zM212 1062q-19 0 -32 13t-13 32q0 20 13 33.5t32 13.5t32 -13.5t13 -33.5q0 -19 -13 -32t-32 -13z" />
    <glyph glyph-name="copyright" unicode="&#xa9;" horiz-adv-x="1280" 
d="M1046 771q166 -168 166 -405q0 -115 -42.5 -220.5t-123.5 -186.5q-82 -80 -187 -123.5t-219 -43.5t-218.5 43.5t-186.5 123.5q-81 82 -124 187t-43 220q0 114 43 218.5t124 186.5q82 80 186.5 123.5t218.5 43.5t219 -43.5t187 -123.5zM1013 -8q154 159 154 374
q0 214 -154 373q-159 154 -373 154q-215 0 -372 -154q-155 -160 -155 -373q0 -214 155 -374q159 -154 372 -154t373 154zM834 26q-90 -34 -180 -34q-154 0 -239.5 95.5t-85.5 268.5q0 174 85.5 270t239.5 96q81 0 176 -31l-19 -64q-96 26 -150 26q-119 0 -183 -77t-64 -220
q0 -142 64 -218.5t183 -76.5q64 0 157 30z" />
    <glyph glyph-name="guillemotleft" unicode="&#xab;" horiz-adv-x="617" 
d="M248 104l-169 250l169 247h50l-160 -247l160 -250h-50zM489 104l-170 250l170 247h49l-161 -247l161 -250h-49z" />
    <glyph glyph-name="uni00AD" unicode="&#xad;" horiz-adv-x="498" 
d="M478 340h-370v67h370v-67z" />
    <glyph glyph-name="macron" unicode="&#xaf;" horiz-adv-x="670" 
d="M1 806h669v-80h-669v80z" />
    <glyph glyph-name="degree" unicode="&#xb0;" horiz-adv-x="357" 
d="M179 1118q-64 0 -109 45.5t-45 110.5q0 64 45 109t109 45q63 0 108 -45t45 -109t-45.5 -110t-107.5 -46zM179 1188q37 0 61 24.5t24 65.5q0 37 -24.5 61t-60.5 24q-37 0 -61 -24t-24 -61q0 -41 24 -65.5t61 -24.5z" />
    <glyph glyph-name="plusminus" unicode="&#xb1;" horiz-adv-x="729" 
d="M399 699h224v-67h-226v-225h-67l2 225h-224v67h224l1 223l66 -2v-221zM108 247v67h515v-67h-515z" />
    <glyph glyph-name="acute" unicode="&#xb4;" horiz-adv-x="117" 
d="M117 1364l-12 -70q-6 -36 -23 -107t-22 -93h-60q7 38 23.5 108t20.5 102l12 60h61z" />
    <glyph glyph-name="paragraph" unicode="&#xb6;" horiz-adv-x="940" 
d="M638 403h-287q-129 0 -203 70t-74 195q0 121 76 193.5t201 72.5h375v-939h-88v408zM784 -5v939h88v-939h-88z" />
    <glyph glyph-name="periodcentered" unicode="&#xb7;" horiz-adv-x="348" 
d="M173 220q-20 0 -34.5 14.5t-14.5 34.5q-1 21 13.5 35.5t35.5 14.5t36 -14.5t15 -35.5q0 -20 -15.5 -34.5t-35.5 -14.5z" />
    <glyph glyph-name="cedilla" unicode="&#xb8;" horiz-adv-x="296" 
d="M66 -183l144 -1q34 -3 60 -27t26 -55q0 -36 -24.5 -61t-59.5 -25h-212v50h212q14 0 24 10.5t10 25.5q0 14 -10 24t-24 10h-212q3 14 11 43t13.5 57t12.5 80l7 52h56l-9 -49q-18 -107 -25 -134z" />
    <glyph glyph-name="guillemotright" unicode="&#xbb;" horiz-adv-x="629" 
d="M179 104h-49l161 250l-161 247h49l169 -247zM419 104h-49l160 250l-160 247h49l169 -247z" />
    <glyph glyph-name="questiondown" unicode="&#xbf;" horiz-adv-x="666" 
d="M348 949q23 0 39 -16.5t17 -39.5q0 -23 -16.5 -39t-39.5 -16t-39.5 16.5t-16.5 38.5q1 23 17.5 39.5t38.5 16.5zM385 605q0 -74 -26 -118.5t-93 -90.5q-65 -45 -92 -81.5t-27 -83.5q0 -74 51.5 -123t127.5 -49q80 0 133.5 53.5t53.5 134.5h78q-1 -114 -76.5 -185.5
t-188.5 -71.5q-112 0 -186 66t-74 171q0 63 32 110.5t107 98.5q62 43 85 78.5t23 90.5v54h72v-54z" />
    <glyph glyph-name="Agrave" unicode="&#xc0;" horiz-adv-x="845" 
d="M395 1066q-4 19 -22 91.5t-23 108.5l-14 71h63l12 -60q4 -33 20.5 -104t23.5 -107h-60zM472 941l346 -946h-92l-92 262h-413l-94 -262h-89l358 946h76zM242 328h374l-185 516z" />
    <glyph glyph-name="Aacute" unicode="&#xc1;" horiz-adv-x="845" 
d="M489 1256q-6 -35 -22.5 -103t-22.5 -98h-60q6 31 22 104t20 107l12 60h63zM472 941l346 -946h-92l-92 262h-413l-94 -262h-89l358 946h76zM242 328h374l-185 516z" />
    <glyph glyph-name="Acircumflex" unicode="&#xc2;" horiz-adv-x="845" 
d="M618 1058l-181 160l-182 -160l2 49l181 170l182 -170zM472 941l346 -946h-92l-92 262h-413l-94 -262h-89l358 946h76zM242 328h374l-185 516z" />
    <glyph glyph-name="Atilde" unicode="&#xc3;" horiz-adv-x="845" 
d="M319 1182l-69 -54l-17 43l92 70q8 -20 43.5 -37.5t72.5 -17.5q25 0 65.5 15t60.5 31l16 -43q-22 -19 -67 -35.5t-75 -16.5q-65 0 -122 45zM472 941l346 -946h-92l-92 262h-413l-94 -262h-89l358 946h76zM242 328h374l-185 516z" />
    <glyph glyph-name="Adieresis" unicode="&#xc4;" horiz-adv-x="845" 
d="M340 1031q-19 0 -32 13t-13 32t13 32t32 13t32 -13t13 -32t-13 -32t-32 -13zM507 1031q-19 0 -32.5 13t-13.5 32t13.5 32t32.5 13t32 -13t13 -32t-13 -32t-32 -13zM472 941l346 -946h-92l-92 262h-413l-94 -262h-89l358 946h76zM242 328h374l-185 516z" />
    <glyph glyph-name="Aring" unicode="&#xc5;" horiz-adv-x="845" 
d="M423 1070q-35 0 -60.5 26t-25.5 62t25.5 61t60.5 25q36 0 61 -25t25 -61t-25 -62t-61 -26zM423 1207q-19 0 -32.5 -13.5t-13.5 -32.5q0 -22 13 -36.5t33 -14.5t33.5 14.5t13.5 36.5q0 20 -13.5 33t-33.5 13zM472 941l346 -946h-92l-92 262h-413l-94 -262h-89l358 946h76z
M242 328h374l-185 516z" />
    <glyph glyph-name="AE" unicode="&#xc6;" horiz-adv-x="1228" 
d="M700 71h491v-76h-579v262h-391l-94 -262h-89l358 946h788v-78h-485v-341h423v-77h-422v-374zM610 328v520h-177l-191 -520h368z" />
    <glyph glyph-name="Ccedilla" unicode="&#xc7;" horiz-adv-x="856" 
d="M486 871q-152 0 -230.5 -103t-78.5 -304t78.5 -304t230.5 -103q120 0 300 59v-72q-155 -62 -299 -63l-4 -30q-16 -97 -26 -134l144 -1q34 -3 60 -27t26 -55q0 -36 -24.5 -61t-59.5 -25h-211v50h211q14 0 24.5 10.5t10.5 25.5q0 13 -10.5 23.5t-24.5 10.5h-211q3 14 11 43
t13.5 57t12.5 80l4 34q-172 15 -258 139t-86 343q0 234 97 359t293 125q148 0 307 -63v-73q-180 59 -300 59z" />
    <glyph glyph-name="Egrave" unicode="&#xc8;" horiz-adv-x="746" 
d="M298 1337h62l13 -60q4 -34 20 -107t22 -104h-59q-4 19 -22 91.5t-23 108.5zM676 857h-485v-335h422v-77h-422v-374h492v-76h-581v939h574v-77z" />
    <glyph glyph-name="Eacute" unicode="&#xc9;" horiz-adv-x="746" 
d="M463 1326l-14 -70q-5 -37 -23 -110.5t-22 -90.5h-59q6 34 22.5 106t20.5 105l12 60h63zM676 857h-485v-335h422v-77h-422v-374h492v-76h-581v939h574v-77z" />
    <glyph glyph-name="Ecircumflex" unicode="&#xca;" horiz-adv-x="746" 
d="M218 1107l181 170l183 -170l-2 -49l-181 160l-182 -160zM676 857h-485v-335h422v-77h-422v-374h492v-76h-581v939h574v-77z" />
    <glyph glyph-name="Edieresis" unicode="&#xcb;" horiz-adv-x="746" 
d="M302 1031q-19 0 -32 13t-13 32t13 32t32 13t32 -13t13 -32t-13 -32t-32 -13zM468 1031q-19 0 -32 13t-13 32t13 32t32 13t32 -13t13 -32t-13 -32t-32 -13zM676 857h-485v-335h422v-77h-422v-374h492v-76h-581v939h574v-77z" />
    <glyph glyph-name="Igrave" unicode="&#xcc;" horiz-adv-x="293" 
d="M57 1337h63l12 -60q4 -33 20.5 -104t23.5 -107h-60q-4 19 -22 91.5t-23 108.5zM102 -5v939h89v-939h-89z" />
    <glyph glyph-name="Iacute" unicode="&#xcd;" horiz-adv-x="293" 
d="M236 1326l-12 -70q-6 -35 -22.5 -103t-22.5 -98h-60q6 31 22 104t20 107l12 60h63zM102 -5v939h89v-939h-89z" />
    <glyph glyph-name="Icircumflex" unicode="&#xce;" horiz-adv-x="293" 
d="M-22 1107l182 170l181 -162l-1 -49l-182 152l-181 -160zM102 -5v939h89v-939h-89z" />
    <glyph glyph-name="Idieresis" unicode="&#xcf;" horiz-adv-x="293" 
d="M61 1031q-19 0 -32 13t-13 32t13 32t32 13t32 -13t13 -32t-13 -32t-32 -13zM228 1031q-19 0 -32 13t-13 32t13 32t32 13t32 -13t13 -32t-13 -32t-32 -13zM102 -5v939h89v-939h-89z" />
    <glyph glyph-name="Eth" unicode="&#xd0;" horiz-adv-x="894" 
d="M426 934q191 0 286.5 -119.5t95.5 -344.5q0 -231 -95.5 -353t-286.5 -122h-324v408h-131v87h131v444h324zM426 71q146 0 220 100.5t74 298.5q0 387 -294 387h-235v-367h201v-87h-201v-332h235z" />
    <glyph glyph-name="Ntilde" unicode="&#xd1;" horiz-adv-x="899" 
d="M341 1182l-69 -54l-17 43l92 70q8 -20 43.5 -37.5t72.5 -17.5q25 0 65 15t60 31l17 -43q-22 -19 -67 -35.5t-75 -16.5q-65 0 -122 45zM715 934h82v-939h-84l-530 782l1 -782h-82v939h81l534 -789z" />
    <glyph glyph-name="Ograve" unicode="&#xd2;" horiz-adv-x="940" 
d="M384 1337h61l12 -60q4 -32 20.5 -102.5t23.5 -108.5h-60q-5 23 -22 94t-23 106zM471 -19q-190 0 -286 126.5t-96 362.5q0 229 96 353.5t286 124.5q188 0 284.5 -124.5t96.5 -353.5q0 -235 -96 -362t-285 -127zM471 57q82 0 141 34t91 94.5t46 130.5t14 154
q0 198 -73.5 299.5t-218.5 101.5t-219.5 -101.5t-74.5 -299.5q0 -84 14.5 -154t46.5 -130.5t91.5 -94.5t141.5 -34z" />
    <glyph glyph-name="Oacute" unicode="&#xd3;" horiz-adv-x="940" 
d="M547 1326l-12 -70q-6 -37 -23.5 -109t-21.5 -92h-60q7 38 23.5 108t20.5 103l12 60h61zM471 -19q-190 0 -286 126.5t-96 362.5q0 229 96 353.5t286 124.5q188 0 284.5 -124.5t96.5 -353.5q0 -235 -96 -362t-285 -127zM471 57q82 0 141 34t91 94.5t46 130.5t14 154
q0 198 -73.5 299.5t-218.5 101.5t-219.5 -101.5t-74.5 -299.5q0 -84 14.5 -154t46.5 -130.5t91.5 -94.5t141.5 -34z" />
    <glyph glyph-name="Ocircumflex" unicode="&#xd4;" horiz-adv-x="940" 
d="M304 1107l181 170l181 -170l-1 -49l-180 160l-183 -160zM471 -19q-190 0 -286 126.5t-96 362.5q0 229 96 353.5t286 124.5q188 0 284.5 -124.5t96.5 -353.5q0 -235 -96 -362t-285 -127zM471 57q82 0 141 34t91 94.5t46 130.5t14 154q0 198 -73.5 299.5t-218.5 101.5
t-219.5 -101.5t-74.5 -299.5q0 -84 14.5 -154t46.5 -130.5t91.5 -94.5t141.5 -34z" />
    <glyph glyph-name="Otilde" unicode="&#xd5;" horiz-adv-x="940" 
d="M296 1128l-16 43l91 70q8 -20 43.5 -37.5t72.5 -17.5q25 0 65.5 15t60.5 31l16 -43q-22 -19 -67 -35.5t-75 -16.5q-64 0 -121 45zM471 -19q-190 0 -286 126.5t-96 362.5q0 229 96 353.5t286 124.5q188 0 284.5 -124.5t96.5 -353.5q0 -235 -96 -362t-285 -127zM471 57
q82 0 141 34t91 94.5t46 130.5t14 154q0 198 -73.5 299.5t-218.5 101.5t-219.5 -101.5t-74.5 -299.5q0 -84 14.5 -154t46.5 -130.5t91.5 -94.5t141.5 -34z" />
    <glyph glyph-name="Odieresis" unicode="&#xd6;" horiz-adv-x="940" 
d="M388 1031q-20 0 -33.5 13t-13.5 32t13.5 32t33.5 13q19 0 31 -13t12 -32t-12 -32t-31 -13zM553 1031q-19 0 -32 13t-13 32t13 32t32 13t32 -13t13 -32t-13 -32t-32 -13zM471 -19q-190 0 -286 126.5t-96 362.5q0 229 96 353.5t286 124.5q188 0 284.5 -124.5t96.5 -353.5
q0 -235 -96 -362t-285 -127zM471 57q82 0 141 34t91 94.5t46 130.5t14 154q0 198 -73.5 299.5t-218.5 101.5t-219.5 -101.5t-74.5 -299.5q0 -84 14.5 -154t46.5 -130.5t91.5 -94.5t141.5 -34z" />
    <glyph glyph-name="multiply" unicode="&#xd7;" horiz-adv-x="718" 
d="M556 188l-47 -47l-161 157l-155 -160l-50 45l157 161l-158 156l45 47l160 -155l155 160l48 -45l-155 -162z" />
    <glyph glyph-name="Oslash" unicode="&#xd8;" horiz-adv-x="940" 
d="M852 470q0 -183 -59 -302t-176 -163l29 -113h-60l-25 97q-43 -8 -90 -8q-190 0 -286 126.5t-96 362.5q0 180 60 296t177 158l-28 118h61l26 -103q47 9 86 9q188 0 284.5 -124.5t96.5 -353.5zM598 85q165 80 165 385q0 198 -73.5 299.5t-218.5 101.5q-29 0 -68 -7zM471 57
q31 0 71 9l-195 781q-170 -77 -170 -377q0 -84 14.5 -154t46.5 -130.5t91.5 -94.5t141.5 -34z" />
    <glyph glyph-name="Ugrave" unicode="&#xd9;" horiz-adv-x="886" 
d="M337 1337h63l12 -60q4 -33 20.5 -104t23.5 -107h-60q-4 19 -22 91.5t-23 108.5zM191 330q0 -37 3.5 -67.5t18.5 -71t40.5 -68t74.5 -47t116 -19.5t116 19.5t74 47t40 68t18 70.5t3 68v604h89v-604q0 -175 -87 -262t-253 -87q-167 0 -254.5 87t-87.5 262v604h89v-604z" />
    <glyph glyph-name="Uacute" unicode="&#xda;" horiz-adv-x="886" 
d="M520 1326l-12 -70q-6 -37 -23.5 -109t-21.5 -92h-60q7 36 23 107t20 104l13 60h61zM191 330q0 -37 3.5 -67.5t18.5 -71t40.5 -68t74.5 -47t116 -19.5t116 19.5t74 47t40 68t18 70.5t3 68v604h89v-604q0 -175 -87 -262t-253 -87q-167 0 -254.5 87t-87.5 262v604h89v-604z
" />
    <glyph glyph-name="Ucircumflex" unicode="&#xdb;" horiz-adv-x="886" 
d="M258 1107l182 170l181 -170l-1 -49l-182 160l-181 -160zM191 330q0 -37 3.5 -67.5t18.5 -71t40.5 -68t74.5 -47t116 -19.5t116 19.5t74 47t40 68t18 70.5t3 68v604h89v-604q0 -175 -87 -262t-253 -87q-167 0 -254.5 87t-87.5 262v604h89v-604z" />
    <glyph glyph-name="Udieresis" unicode="&#xdc;" horiz-adv-x="886" 
d="M341 1031q-19 0 -32 13t-13 32t13 32t32 13t32 -13t13 -32t-13 -32t-32 -13zM508 1031q-19 0 -32 13t-13 32t13 32t32 13t32 -13t13 -32t-13 -32t-32 -13zM191 330q0 -37 3.5 -67.5t18.5 -71t40.5 -68t74.5 -47t116 -19.5t116 19.5t74 47t40 68t18 70.5t3 68v604h89v-604
q0 -175 -87 -262t-253 -87q-167 0 -254.5 87t-87.5 262v604h89v-604z" />
    <glyph glyph-name="Yacute" unicode="&#xdd;" horiz-adv-x="813" 
d="M468 1256q-6 -35 -22.5 -103t-22.5 -98h-60q6 34 22.5 106t20.5 105l12 60h63zM685 934h92l-326 -602v-337h-88v337l-326 602h95l145 -273l133 -239l131 239z" />
    <glyph glyph-name="Thorn" unicode="&#xde;" horiz-adv-x="730" 
d="M381 715q133 0 203.5 -96t70.5 -264t-72.5 -264t-205.5 -96q-118 0 -206 76v-309h-82v1136h80l2 -260q93 77 210 77zM356 64q102 0 157.5 76t55.5 215q0 134 -55.5 208.5t-157.5 74.5q-98 0 -185 -69v-435q88 -70 185 -70z" />
    <glyph glyph-name="germandbls" unicode="&#xdf;" horiz-adv-x="831" 
d="M193 0h-91v934h366q125 0 197 -64t72 -176q0 -83 -39 -139.5t-110 -79.5q85 -23 132 -83t47 -146q0 -117 -73 -183t-201 -68h-93v76h90q91 1 140 47.5t49 134.5q0 84 -52 131t-145 50h-22v77h19q172 8 172 173q0 83 -49 128t-139 45h-272z" />
    <glyph glyph-name="agrave" unicode="&#xe0;" horiz-adv-x="686" 
d="M259 1211h62l12 -60q4 -32 20.5 -102t23.5 -108h-60q-5 24 -22 94t-23 105zM516 471q0 76 -33 118.5t-90 50.5t-123.5 -4t-145.5 -42l-12 59q89 38 173 50.5t155.5 -3t114.5 -73t43 -153.5v-474h-83v101q-109 -109 -251 -109q-90 0 -143 47.5t-53 125.5q0 116 124 191.5
t324 61.5v53zM516 363q-84 9 -156 -5t-117.5 -43t-70.5 -66t-25 -76q0 -53 39 -83.5t105 -30.5q70 0 123 26t102 75v203z" />
    <glyph glyph-name="aacute" unicode="&#xe1;" horiz-adv-x="686" 
d="M423 1200l-12 -70q-6 -36 -23 -107t-22 -93h-60q7 38 23.5 108t20.5 102l12 60h61zM516 471q0 76 -33 118.5t-90 50.5t-123.5 -4t-145.5 -42l-12 59q89 38 173 50.5t155.5 -3t114.5 -73t43 -153.5v-474h-83v101q-109 -109 -251 -109q-90 0 -143 47.5t-53 125.5
q0 116 124 191.5t324 61.5v53zM516 363q-84 9 -156 -5t-117.5 -43t-70.5 -66t-25 -76q0 -53 39 -83.5t105 -30.5q70 0 123 26t102 75v203z" />
    <glyph glyph-name="acircumflex" unicode="&#xe2;" horiz-adv-x="686" 
d="M180 982l180 169l182 -169l-1 -49l-181 159l-183 -159zM516 471q0 76 -33 118.5t-90 50.5t-123.5 -4t-145.5 -42l-12 59q89 38 173 50.5t155.5 -3t114.5 -73t43 -153.5v-474h-83v101q-109 -109 -251 -109q-90 0 -143 47.5t-53 125.5q0 116 124 191.5t324 61.5v53z
M516 363q-84 9 -156 -5t-117.5 -43t-70.5 -66t-25 -76q0 -53 39 -83.5t105 -30.5q70 0 123 26t102 75v203z" />
    <glyph glyph-name="atilde" unicode="&#xe3;" horiz-adv-x="686" 
d="M172 1002l-16 44l91 69q8 -19 43.5 -36.5t72.5 -17.5q25 0 65.5 15t60.5 30l16 -42q-22 -19 -67 -35.5t-75 -16.5q-64 0 -121 45zM516 471q0 76 -33 118.5t-90 50.5t-123.5 -4t-145.5 -42l-12 59q89 38 173 50.5t155.5 -3t114.5 -73t43 -153.5v-474h-83v101
q-109 -109 -251 -109q-90 0 -143 47.5t-53 125.5q0 116 124 191.5t324 61.5v53zM516 363q-84 9 -156 -5t-117.5 -43t-70.5 -66t-25 -76q0 -53 39 -83.5t105 -30.5q70 0 123 26t102 75v203z" />
    <glyph glyph-name="adieresis" unicode="&#xe4;" horiz-adv-x="686" 
d="M264 905q-20 0 -33.5 13t-13.5 32t13.5 32t33.5 13q19 0 31 -13t12 -32t-12 -32t-31 -13zM429 905q-19 0 -32 13t-13 32t13 32t32 13t32 -13t13 -32t-13 -32t-32 -13zM516 471q0 76 -33 118.5t-90 50.5t-123.5 -4t-145.5 -42l-12 59q89 38 173 50.5t155.5 -3t114.5 -73
t43 -153.5v-474h-83v101q-109 -109 -251 -109q-90 0 -143 47.5t-53 125.5q0 116 124 191.5t324 61.5v53zM516 363q-84 9 -156 -5t-117.5 -43t-70.5 -66t-25 -76q0 -53 39 -83.5t105 -30.5q70 0 123 26t102 75v203z" />
    <glyph glyph-name="aring" unicode="&#xe5;" horiz-adv-x="686" 
d="M345 945q-35 0 -60.5 25.5t-25.5 61.5t25.5 61t60.5 25q36 0 61 -25t25 -61t-25 -61.5t-61 -25.5zM345 984q20 0 33.5 14.5t13.5 36.5q0 20 -13.5 33t-33.5 13q-19 0 -32.5 -13.5t-13.5 -32.5q0 -22 13 -36.5t33 -14.5zM516 471q0 76 -33 118.5t-90 50.5t-123.5 -4
t-145.5 -42l-12 59q89 38 173 50.5t155.5 -3t114.5 -73t43 -153.5v-474h-83v101q-109 -109 -251 -109q-90 0 -143 47.5t-53 125.5q0 116 124 191.5t324 61.5v53zM516 363q-84 9 -156 -5t-117.5 -43t-70.5 -66t-25 -76q0 -53 39 -83.5t105 -30.5q70 0 123 26t102 75v203z" />
    <glyph glyph-name="ae" unicode="&#xe6;" horiz-adv-x="1159" 
d="M825 728q93 0 154.5 -51t86.5 -135t17 -192h-482q3 -145 67.5 -217t197.5 -72q109 0 195 30l20 -61q-64 -23 -112.5 -30.5t-115.5 -7.5q-210 0 -290 150q-56 -74 -136 -112t-163 -38q-90 0 -143 47.5t-53 125.5q0 116 124 191.5t324 61.5v53q0 76 -33 118.5t-90 50.5
t-123.5 -4t-145.5 -42l-12 59q97 42 187.5 54t165.5 -15.5t108 -96.5q83 133 252 133zM601 406h409q0 112 -50.5 185.5t-136.5 73.5q-98 0 -155.5 -67.5t-66.5 -191.5zM516 168v195q-84 9 -156 -5t-117.5 -43t-70.5 -66t-25 -76q0 -53 39 -83.5t105 -30.5q69 0 121 28.5
t104 80.5z" />
    <glyph glyph-name="ccedilla" unicode="&#xe7;" horiz-adv-x="630" 
d="M528 -184q34 -3 60 -27t26 -55q0 -36 -24.5 -61t-59.5 -25h-211v50h211q14 0 24 10.5t10 25.5q0 14 -10 24t-24 10h-211q3 14 11 43t13.5 57t12.5 80l6 45q-138 11 -214 106t-76 257q0 174 85.5 270t239.5 96q83 0 176 -31l-17 -64q-98 26 -152 26q-118 0 -182.5 -77
t-64.5 -220q0 -142 64.5 -218.5t182.5 -76.5q64 0 159 30l15 -65q-78 -29 -162 -34l-6 -41q-13 -83 -25 -134z" />
    <glyph glyph-name="egrave" unicode="&#xe8;" horiz-adv-x="740" 
d="M268 1211h61l12 -60q4 -32 20.5 -102t23.5 -108h-60q-5 24 -22 94t-23 105zM161 350q2 -145 66.5 -217t197.5 -72q109 0 195 30l22 -61q-64 -23 -113.5 -30.5t-116.5 -7.5q-167 0 -252 95t-85 271q0 172 82 271t227 99q138 0 204 -105.5t55 -272.5h-482zM569 406
q0 112 -50.5 185.5t-136.5 73.5q-98 0 -155.5 -67.5t-65.5 -191.5h408z" />
    <glyph glyph-name="eacute" unicode="&#xe9;" horiz-adv-x="740" 
d="M431 1200l-12 -70q-6 -36 -23 -107t-22 -93h-60q7 38 23.5 108t20.5 102l12 60h61zM161 350q2 -145 66.5 -217t197.5 -72q109 0 195 30l22 -61q-64 -23 -113.5 -30.5t-116.5 -7.5q-167 0 -252 95t-85 271q0 172 82 271t227 99q138 0 204 -105.5t55 -272.5h-482zM569 406
q0 112 -50.5 185.5t-136.5 73.5q-98 0 -155.5 -67.5t-65.5 -191.5h408z" />
    <glyph glyph-name="ecircumflex" unicode="&#xea;" horiz-adv-x="740" 
d="M195 976l174 175l181 -169l-1 -56l-180 159l-175 -165zM161 350q2 -145 66.5 -217t197.5 -72q109 0 195 30l22 -61q-64 -23 -113.5 -30.5t-116.5 -7.5q-167 0 -252 95t-85 271q0 172 82 271t227 99q138 0 204 -105.5t55 -272.5h-482zM569 406q0 112 -50.5 185.5
t-136.5 73.5q-98 0 -155.5 -67.5t-65.5 -191.5h408z" />
    <glyph glyph-name="edieresis" unicode="&#xeb;" horiz-adv-x="740" 
d="M272 905q-20 0 -33.5 13t-13.5 32t13.5 32t33.5 13q19 0 31 -13t12 -32t-12 -32t-31 -13zM437 905q-19 0 -32 13t-13 32t13 32t32 13t32 -13t13 -32t-13 -32t-32 -13zM161 350q2 -145 66.5 -217t197.5 -72q109 0 195 30l22 -61q-64 -23 -113.5 -30.5t-116.5 -7.5
q-167 0 -252 95t-85 271q0 172 82 271t227 99q138 0 204 -105.5t55 -272.5h-482zM569 406q0 112 -50.5 185.5t-136.5 73.5q-98 0 -155.5 -67.5t-65.5 -191.5h408z" />
    <glyph glyph-name="igrave" unicode="&#xec;" horiz-adv-x="238" 
d="M34 1085h62l12 -60q4 -33 20.5 -103.5t23.5 -106.5h-61q-3 13 -21 87.5t-24 111.5zM161 707v-707h-82v707h82z" />
    <glyph glyph-name="iacute" unicode="&#xed;" horiz-adv-x="238" 
d="M208 1091l-14 -70q-5 -37 -23 -109.5t-22 -90.5h-60q6 34 22.5 105.5t20.5 104.5l13 60h63zM161 655v-655h-82v655h82z" />
    <glyph glyph-name="icircumflex" unicode="&#xee;" horiz-adv-x="238" 
d="M-75 778l181 170l183 -170l-1 -49l-182 160l-182 -160zM153 655l8 -655h-82l-9 655h83z" />
    <glyph glyph-name="idieresis" unicode="&#xef;" horiz-adv-x="238" 
d="M30 1162q-19 0 -32.5 13t-13.5 32t13.5 32.5t32.5 13.5t32 -13.5t13 -32.5t-13 -32t-32 -13zM197 1162q-20 0 -33.5 13t-13.5 32t13.5 32.5t33.5 13.5q19 0 31 -13t12 -33q0 -19 -12 -32t-31 -13zM161 0h-82v934h82v-934z" />
    <glyph glyph-name="eth" unicode="&#xf0;" horiz-adv-x="797" 
d="M475 918q112 -48 173 -174.5t61 -329.5q0 -69 -8.5 -129t-31 -117.5t-58 -97.5t-92 -64.5t-130.5 -24.5q-132 0 -216 89.5t-84 232.5q0 154 78 239t214 85q68 0 131 -35t109 -99q-23 284 -184 359l-59 -98h-59l66 114q-35 7 -66 7q-92 0 -196 -33l-7 67q43 14 60.5 19.5
t59 12.5t85.5 7q52 0 102 -13l44 75l65 3zM390 55q57 0 99 19.5t66.5 51t39.5 79.5t20 97.5t5 112.5q-42 64 -101 101.5t-120 37.5q-53 0 -93.5 -16t-65 -41t-39.5 -60t-20.5 -68t-5.5 -69q0 -109 60 -177t155 -68z" />
    <glyph glyph-name="ntilde" unicode="&#xf1;" horiz-adv-x="726" 
d="M180 1002l-16 44l91 69q8 -19 43.5 -36.5t72.5 -17.5q25 0 65.5 15t60.5 30l16 -42q-22 -19 -67 -35.5t-75 -16.5q-64 0 -121 45zM171 0h-82v688h82v-89q132 103 258 103q209 0 209 -224v-478h-82v456q0 165 -156 165q-113 0 -229 -101v-520z" />
    <glyph glyph-name="ograve" unicode="&#xf2;" horiz-adv-x="750" 
d="M273 1211h62l12 -60q4 -33 20 -103.5t23 -106.5h-60q-5 24 -22 94t-23 105zM375 -8q-143 0 -221.5 98t-78.5 262q0 163 78.5 261t221.5 98t222 -98t79 -261q0 -164 -79 -262t-222 -98zM375 649q-57 0 -101 -24t-69.5 -65.5t-38.5 -94t-13 -113.5q0 -130 55 -213t167 -83
t167 83t55 213q0 61 -13 113.5t-38.5 94t-69.5 65.5t-101 24z" />
    <glyph glyph-name="oacute" unicode="&#xf3;" horiz-adv-x="750" 
d="M437 1200l-12 -70q-6 -36 -23 -107t-22 -93h-61q7 38 23.5 108t20.5 102l12 60h62zM375 -8q-143 0 -221.5 98t-78.5 262q0 163 78.5 261t221.5 98t222 -98t79 -261q0 -164 -79 -262t-222 -98zM375 649q-57 0 -101 -24t-69.5 -65.5t-38.5 -94t-13 -113.5q0 -130 55 -213
t167 -83t167 83t55 213q0 61 -13 113.5t-38.5 94t-69.5 65.5t-101 24z" />
    <glyph glyph-name="ocircumflex" unicode="&#xf4;" horiz-adv-x="750" 
d="M199 976l174 175l181 -169l-1 -56l-182 159l-174 -165zM375 -8q-143 0 -221.5 98t-78.5 262q0 163 78.5 261t221.5 98t222 -98t79 -261q0 -164 -79 -262t-222 -98zM375 649q-57 0 -101 -24t-69.5 -65.5t-38.5 -94t-13 -113.5q0 -130 55 -213t167 -83t167 83t55 213
q0 61 -13 113.5t-38.5 94t-69.5 65.5t-101 24z" />
    <glyph glyph-name="otilde" unicode="&#xf5;" horiz-adv-x="750" 
d="M186 1002l-17 44l92 69q8 -19 43.5 -36.5t72.5 -17.5q25 0 65 14.5t60 30.5l17 -42q-22 -19 -67 -35.5t-75 -16.5q-65 0 -122 45zM375 -8q-143 0 -221.5 98t-78.5 262q0 163 78.5 261t221.5 98t222 -98t79 -261q0 -164 -79 -262t-222 -98zM375 649q-57 0 -101 -24
t-69.5 -65.5t-38.5 -94t-13 -113.5q0 -130 55 -213t167 -83t167 83t55 213q0 61 -13 113.5t-38.5 94t-69.5 65.5t-101 24z" />
    <glyph glyph-name="odieresis" unicode="&#xf6;" horiz-adv-x="750" 
d="M277 905q-19 0 -32.5 13t-13.5 32t13.5 32t32.5 13t31.5 -13t12.5 -32t-12.5 -32t-31.5 -13zM442 905q-19 0 -32 13t-13 32t13 32t32 13t32 -13t13 -32t-13 -32t-32 -13zM375 -8q-143 0 -221.5 98t-78.5 262q0 163 78.5 261t221.5 98t222 -98t79 -261q0 -164 -79 -262
t-222 -98zM375 649q-57 0 -101 -24t-69.5 -65.5t-38.5 -94t-13 -113.5q0 -130 55 -213t167 -83t167 83t55 213q0 61 -13 113.5t-38.5 94t-69.5 65.5t-101 24z" />
    <glyph glyph-name="divide" unicode="&#xf7;" horiz-adv-x="729" 
d="M360 554q-25 0 -43 18.5t-18 44.5t18 44t43 18q26 0 44 -18.5t18 -43.5q0 -26 -18 -44.5t-44 -18.5zM623 340h-515v67h515v-67zM360 97q-26 0 -43.5 17.5t-17.5 43.5t18 44t43 18q26 0 44 -18t18 -44q0 -25 -18 -43t-44 -18z" />
    <glyph glyph-name="oslash" unicode="&#xf8;" horiz-adv-x="750" 
d="M676 352q0 -185 -100 -285t-267 -68l-29 -111h-51l32 124q-90 34 -138 123.5t-48 216.5q0 179 98 281t260 74l33 127h51l-35 -139q93 -33 143.5 -124t50.5 -219zM279 82l137 562q-124 18 -193 -62.5t-69 -229.5q0 -95 31 -166.5t94 -103.5zM325 60q127 -24 200 57.5
t73 234.5q0 98 -33 172t-101 103z" />
    <glyph glyph-name="ugrave" unicode="&#xf9;" horiz-adv-x="726" 
d="M317 941q-5 24 -22 94t-23 105l-13 71h62l12 -60q4 -32 20.5 -102t23.5 -108h-60zM556 688h82v-693h-82v90q-126 -104 -258 -104q-209 0 -209 224v483h82v-460q0 -167 155 -167q116 0 230 101v526z" />
    <glyph glyph-name="uacute" unicode="&#xfa;" horiz-adv-x="726" 
d="M411 1130q-6 -36 -23 -107t-22 -93h-60q7 38 23.5 108t20.5 102l12 60h61zM556 688h82v-693h-82v90q-126 -104 -258 -104q-209 0 -209 224v483h82v-460q0 -167 155 -167q116 0 230 101v526z" />
    <glyph glyph-name="ucircumflex" unicode="&#xfb;" horiz-adv-x="726" 
d="M547 931l-181 160l-175 -165l2 56l173 173l183 -169zM556 688h82v-693h-82v90q-126 -104 -258 -104q-209 0 -209 224v483h82v-460q0 -167 155 -167q116 0 230 101v526z" />
    <glyph glyph-name="udieresis" unicode="&#xfc;" horiz-adv-x="726" 
d="M264 905q-20 0 -33.5 13t-13.5 32t13.5 32t33.5 13q19 0 31 -13t12 -32t-12 -32t-31 -13zM429 905q-19 0 -32 13t-13 32t13 32t32 13t32 -13t13 -32t-13 -32t-32 -13zM556 688h82v-693h-82v90q-126 -104 -258 -104q-209 0 -209 224v483h82v-460q0 -167 155 -167
q116 0 230 101v526z" />
    <glyph glyph-name="yacute" unicode="&#xfd;" horiz-adv-x="688" 
d="M422 1135q-5 -33 -22 -100.5t-23 -99.5h-60q6 31 22 104t20 107l12 60h63zM571 688h88l-360 -939h-79l86 229l-279 710h93l224 -609v-4z" />
    <glyph glyph-name="thorn" unicode="&#xfe;" horiz-adv-x="730" 
d="M381 715q133 0 203.5 -96t70.5 -264t-72.5 -264t-205.5 -96q-118 0 -206 76v-309h-82v1136h80l2 -260q93 77 210 77zM356 64q102 0 157.5 76t55.5 215q0 134 -55.5 208.5t-157.5 74.5q-98 0 -185 -69v-435q88 -70 185 -70z" />
    <glyph glyph-name="ydieresis" unicode="&#xff;" horiz-adv-x="688" 
d="M273 909q-19 0 -32 13t-13 32q0 20 13 33.5t32 13.5t32 -13.5t13 -33.5q0 -19 -13 -32t-32 -13zM440 909q-19 0 -32 13t-13 32q0 20 13 33.5t32 13.5t32 -13.5t13 -33.5q0 -19 -13 -32t-32 -13zM571 688h88l-360 -939h-79l86 229l-279 710h93l224 -609v-4z" />
    <glyph glyph-name="Amacron" unicode="&#x100;" horiz-adv-x="845" 
d="M657 1204v-79h-398v79h398zM472 941l346 -946h-92l-92 262h-413l-94 -262h-89l358 946h76zM242 328h374l-185 516z" />
    <glyph glyph-name="amacron" unicode="&#x101;" horiz-adv-x="686" 
d="M149 997h397v-79h-397v79zM516 471q0 76 -33 118.5t-90 50.5t-123.5 -4t-145.5 -42l-12 59q89 38 173 50.5t155.5 -3t114.5 -73t43 -153.5v-474h-83v101q-109 -109 -251 -109q-90 0 -143 47.5t-53 125.5q0 116 124 191.5t324 61.5v53zM516 363q-84 9 -156 -5t-117.5 -43
t-70.5 -66t-25 -76q0 -53 39 -83.5t105 -30.5q70 0 123 26t102 75v203z" />
    <glyph glyph-name="Abreve" unicode="&#x102;" horiz-adv-x="845" 
d="M588 1094q-74 -38 -157 -36q-82 1 -154 44v44q71 -39 154 -44q86 -2 157 35v-43zM472 941l346 -946h-92l-92 262h-413l-94 -262h-89l358 946h76zM242 328h374l-185 516z" />
    <glyph glyph-name="abreve" unicode="&#x103;" horiz-adv-x="686" 
d="M354 933q-84 2 -155 43v44q69 -39 155 -44q82 -1 157 36v-44q-72 -37 -157 -35zM516 471q0 76 -33 118.5t-90 50.5t-123.5 -4t-145.5 -42l-12 59q89 38 173 50.5t155.5 -3t114.5 -73t43 -153.5v-474h-83v101q-109 -109 -251 -109q-90 0 -143 47.5t-53 125.5
q0 116 124 191.5t324 61.5v53zM516 363q-84 9 -156 -5t-117.5 -43t-70.5 -66t-25 -76q0 -53 39 -83.5t105 -30.5q70 0 123 26t102 75v203z" />
    <glyph glyph-name="Aogonek" unicode="&#x104;" horiz-adv-x="845" 
d="M715 -83q-12 0 -21 -9t-9 -21q0 -14 9 -23t21 -9h99v-48h-99q-34 0 -55.5 22.5t-21.5 57.5q0 29 23 50.5t57 25.5l33 2l-4 30h-21l-92 262h-413l-94 -262h-89l358 946h76l346 -946h-19l15 -78h-99zM242 328h374l-185 516z" />
    <glyph glyph-name="aogonek" unicode="&#x105;" horiz-adv-x="686" 
d="M598 474v-474h-18l11 -86h-99q-14 0 -24.5 -10t-10.5 -24t10.5 -24t24.5 -10h105v-51h-105q-36 0 -60 24t-24 61q0 32 24 55.5t62 27.5l37 3l-4 34h-12v101q-109 -109 -251 -109q-90 0 -143 47.5t-53 125.5q0 116 124 191.5t324 61.5v53q0 76 -33 118.5t-90 50.5
t-123.5 -4t-145.5 -42l-12 59q89 38 173 50.5t155.5 -3t114.5 -73t43 -153.5zM516 160v203q-84 9 -156 -5t-117.5 -43t-70.5 -66t-25 -76q0 -53 39 -83.5t105 -30.5q70 0 123 26t102 75z" />
    <glyph glyph-name="Cacute" unicode="&#x106;" horiz-adv-x="856" 
d="M549 1326l-14 -70q-5 -37 -23 -110.5t-22 -90.5h-60q7 36 23.5 107t20.5 104l12 60h63zM786 44q-159 -63 -307 -63q-196 0 -293 125t-97 358q0 234 97 359t293 125q148 0 307 -63v-73q-180 59 -300 59q-152 0 -230.5 -103t-78.5 -304t78.5 -304t230.5 -103q120 0 300 59
v-72z" />
    <glyph glyph-name="cacute" unicode="&#x107;" horiz-adv-x="630" 
d="M423 1200l-12 -70q-6 -36 -23 -107t-22 -93h-60q7 38 23.5 108t20.5 102l12 60h61zM578 26q-89 -34 -181 -34q-154 0 -239.5 95.5t-85.5 268.5q0 174 85.5 270t239.5 96q83 0 176 -31l-17 -64q-98 26 -152 26q-118 0 -182.5 -77t-64.5 -220q0 -142 64.5 -218.5
t182.5 -76.5q64 0 159 30z" />
    <glyph glyph-name="Cdotaccent" unicode="&#x10a;" horiz-adv-x="856" 
d="M481 1072q-19 0 -32 13t-13 32t13 32.5t32 13.5t32 -13.5t13 -32.5t-13 -32t-32 -13zM786 44q-159 -63 -307 -63q-196 0 -293 125t-97 358q0 234 97 359t293 125q148 0 307 -63v-73q-180 59 -300 59q-152 0 -230.5 -103t-78.5 -304t78.5 -304t230.5 -103q120 0 300 59
v-72z" />
    <glyph glyph-name="cdotaccent" unicode="&#x10b;" horiz-adv-x="630" 
d="M356 946q-19 0 -32 13t-13 32q0 20 13 33.5t32 13.5t32 -13.5t13 -33.5q0 -19 -13 -32t-32 -13zM578 26q-89 -34 -181 -34q-154 0 -239.5 95.5t-85.5 268.5q0 174 85.5 270t239.5 96q83 0 176 -31l-17 -64q-98 26 -152 26q-118 0 -182.5 -77t-64.5 -220
q0 -142 64.5 -218.5t182.5 -76.5q64 0 159 30z" />
    <glyph glyph-name="Ccaron" unicode="&#x10c;" horiz-adv-x="856" 
d="M292 1238l-1 50l181 -160l181 160l1 -50l-182 -169zM786 44q-159 -63 -307 -63q-196 0 -293 125t-97 358q0 234 97 359t293 125q148 0 307 -63v-73q-180 59 -300 59q-152 0 -230.5 -103t-78.5 -304t78.5 -304t230.5 -103q120 0 300 59v-72z" />
    <glyph glyph-name="ccaron" unicode="&#x10d;" horiz-adv-x="630" 
d="M168 1113l-3 49l183 -160l180 160l2 -49l-182 -170zM578 26q-89 -34 -181 -34q-154 0 -239.5 95.5t-85.5 268.5q0 174 85.5 270t239.5 96q83 0 176 -31l-17 -64q-98 26 -152 26q-118 0 -182.5 -77t-64.5 -220q0 -142 64.5 -218.5t182.5 -76.5q64 0 159 30z" />
    <glyph glyph-name="Dcaron" unicode="&#x10e;" horiz-adv-x="894" 
d="M173 1238l-1 50l182 -160l181 160l2 -50l-183 -169zM102 -5v939h324q191 0 286.5 -119.5t95.5 -344.5q0 -231 -95.5 -353t-286.5 -122h-324zM426 71q146 0 220 100.5t74 298.5q0 387 -294 387h-235v-786h235z" />
    <glyph glyph-name="dcaron" unicode="&#x10f;" horiz-adv-x="730" 
d="M329 943l-180 170l-2 49l182 -160l182 160l1 -49zM558 943h84v-943h-81l-3 70q-90 -78 -208 -78q-133 0 -204 96t-71 264q0 167 72 263t205 96q116 0 206 -75v307zM161 352q0 -138 55.5 -214.5t156.5 -76.5q105 0 185 70v441q-80 70 -185 70q-101 0 -156.5 -76
t-55.5 -214z" />
    <glyph glyph-name="Dcroat" unicode="&#x110;" horiz-adv-x="894" 
d="M426 934q191 0 286.5 -119.5t95.5 -344.5q0 -231 -95.5 -353t-286.5 -122h-324v408h-131v87h131v444h324zM426 71q146 0 220 100.5t74 298.5q0 387 -294 387h-235v-367h201v-87h-201v-332h235z" />
    <glyph glyph-name="dcroat" unicode="&#x111;" horiz-adv-x="730" 
d="M796 841v-59h-154v-782h-81l-3 70q-90 -78 -208 -78q-133 0 -204 96t-71 264q0 167 72 263t205 96q116 0 206 -75v146h-159v59h159v102h84v-102h154zM161 352q0 -138 55.5 -214.5t156.5 -76.5q105 0 185 70v441q-80 70 -185 70q-101 0 -156.5 -76t-55.5 -214z" />
    <glyph glyph-name="Emacron" unicode="&#x112;" horiz-adv-x="746" 
d="M182 1181h397v-78h-397v78zM676 857h-485v-335h422v-77h-422v-374h492v-76h-581v939h574v-77z" />
    <glyph glyph-name="emacron" unicode="&#x113;" horiz-adv-x="740" 
d="M197 976h386v-78h-386v78zM161 350q2 -145 66.5 -217t197.5 -72q109 0 195 30l22 -61q-64 -23 -113.5 -30.5t-116.5 -7.5q-167 0 -252 95t-85 271q0 172 82 271t227 99q138 0 204 -105.5t55 -272.5h-482zM569 406q0 112 -50.5 185.5t-136.5 73.5q-98 0 -155.5 -67.5
t-65.5 -191.5h408z" />
    <glyph glyph-name="Edotaccent" unicode="&#x116;" horiz-adv-x="746" 
d="M396 1072q-19 0 -32.5 13t-13.5 32t13 32.5t33 13.5q18 0 31 -13.5t13 -32.5t-13 -32t-31 -13zM676 857h-485v-335h422v-77h-422v-374h492v-76h-581v939h574v-77z" />
    <glyph glyph-name="edotaccent" unicode="&#x117;" horiz-adv-x="740" 
d="M365 946q-19 0 -32.5 13t-13.5 32t13.5 33t32.5 14t32 -13.5t13 -33.5q0 -19 -13 -32t-32 -13zM161 350q2 -145 66.5 -217t197.5 -72q109 0 195 30l22 -61q-64 -23 -113.5 -30.5t-116.5 -7.5q-167 0 -252 95t-85 271q0 172 82 271t227 99q138 0 204 -105.5t55 -272.5
h-482zM569 406q0 112 -50.5 185.5t-136.5 73.5q-98 0 -155.5 -67.5t-65.5 -191.5h408z" />
    <glyph glyph-name="Eogonek" unicode="&#x118;" horiz-adv-x="746" 
d="M191 71h492v-156h-105q-14 0 -24.5 -10t-10.5 -24q0 -15 10.5 -25t24.5 -10h105v-51h-105q-37 0 -61 24.5t-24 61.5q0 31 24.5 55t61.5 29h38v30h-515v939h574v-77h-485v-335h422v-77h-422v-374z" />
    <glyph glyph-name="eogonek" unicode="&#x119;" horiz-adv-x="740" 
d="M384 728q138 0 204 -105.5t55 -272.5h-482q2 -145 66.5 -217t197.5 -72q109 0 195 30l22 -61q-102 -37 -201 -38l16 -88h-105q-14 0 -24 -10t-10 -24q0 -15 10 -25t24 -10h105v-51h-105q-36 0 -60 24t-24 62q0 31 24.5 54.5t61.5 27.5l38 2l-7 38q-154 8 -232 102.5
t-78 263.5q0 172 82 271t227 99zM161 406h408q0 112 -50.5 185.5t-136.5 73.5q-98 0 -155.5 -67.5t-65.5 -191.5z" />
    <glyph glyph-name="Ecaron" unicode="&#x11a;" horiz-adv-x="746" 
d="M206 1238l-1 50l181 -160l182 160l1 -50l-183 -169zM676 857h-485v-335h422v-77h-422v-374h492v-76h-581v939h574v-77z" />
    <glyph glyph-name="ecaron" unicode="&#x11b;" horiz-adv-x="740" 
d="M183 1118l-1 55l174 -165l181 161l1 -56l-182 -170zM161 350q2 -145 66.5 -217t197.5 -72q109 0 195 30l22 -61q-64 -23 -113.5 -30.5t-116.5 -7.5q-167 0 -252 95t-85 271q0 172 82 271t227 99q138 0 204 -105.5t55 -272.5h-482zM569 406q0 112 -50.5 185.5t-136.5 73.5
q-98 0 -155.5 -67.5t-65.5 -191.5h408z" />
    <glyph glyph-name="Gbreve" unicode="&#x11e;" horiz-adv-x="887" 
d="M471 1058q-82 1 -154 44v57q74 -42 154 -44q84 -1 157 36v-57q-74 -38 -157 -36zM696 452h89v-408q-159 -63 -306 -63q-196 0 -293 125t-97 358q0 234 97 359t293 125q144 0 303 -63v-74q-160 60 -296 60q-152 0 -230.5 -103t-78.5 -304q0 -199 78.5 -303t225.5 -104
q98 0 215 39v356z" />
    <glyph glyph-name="gbreve" unicode="&#x11f;" horiz-adv-x="730" 
d="M511 968q-72 -37 -157 -35q-84 2 -155 43v58q72 -42 155 -44q84 -2 157 35v-57zM558 694h84v-721q0 -86 -44.5 -145.5t-117 -84.5t-166.5 -20t-192 42l15 64q76 -30 151 -36t135 10t97.5 60.5t37.5 110.5v89q-93 -77 -206 -77q-132 0 -204.5 97t-72.5 264q0 168 71 264
t204 96q115 0 206 -82h2v69zM161 347q0 -138 55.5 -214t156.5 -76q105 0 185 70v434q-80 70 -185 70q-101 0 -156.5 -75.5t-55.5 -208.5z" />
    <glyph glyph-name="Gdotaccent" unicode="&#x120;" horiz-adv-x="887" 
d="M475 1072q-19 0 -32 13t-13 32t13 32.5t32 13.5t32 -13.5t13 -32.5t-13 -32t-32 -13zM696 452h89v-408q-159 -63 -306 -63q-196 0 -293 125t-97 358q0 234 97 359t293 125q144 0 303 -63v-74q-160 60 -296 60q-152 0 -230.5 -103t-78.5 -304q0 -199 78.5 -303t225.5 -104
q98 0 215 39v356z" />
    <glyph glyph-name="gdotaccent" unicode="&#x121;" horiz-adv-x="730" 
d="M356 946q-19 0 -32 13t-13 32q0 20 13 33.5t32 13.5t32 -13.5t13 -33.5q0 -19 -13 -32t-32 -13zM558 694h84v-721q0 -86 -44.5 -145.5t-117 -84.5t-166.5 -20t-192 42l15 64q76 -30 151 -36t135 10t97.5 60.5t37.5 110.5v89q-93 -77 -206 -77q-132 0 -204.5 97t-72.5 264
q0 168 71 264t204 96q115 0 206 -82h2v69zM161 347q0 -138 55.5 -214t156.5 -76q105 0 185 70v434q-80 70 -185 70q-101 0 -156.5 -75.5t-55.5 -208.5z" />
    <glyph glyph-name="uni0122" unicode="&#x122;" horiz-adv-x="887" 
d="M696 452h89v-408q-159 -63 -306 -63q-196 0 -293 125t-97 358q0 234 97 359t293 125q144 0 303 -63v-74q-160 60 -296 60q-152 0 -230.5 -103t-78.5 -304q0 -199 78.5 -303t225.5 -104q98 0 215 39v356zM527 -179q-24 -167 -68 -308h-55q3 15 15 73.5t23 117t18 113.5
l7 52h68z" />
    <glyph glyph-name="uni0123" unicode="&#x123;" horiz-adv-x="730" 
d="M295 967q-7 125 -7 142l-9 101l61 -7l11 -90q2 -66 5 -109q17 2 26 1q22 -3 36 -20.5t11 -39.5q-2 -23 -21 -37t-42 -10q-28 3 -47.5 22t-23.5 47zM558 694h84v-721q0 -86 -44.5 -145.5t-117 -84.5t-166.5 -20t-192 42l15 64q76 -30 151 -36t135 10t97.5 60.5t37.5 110.5
v89q-93 -77 -206 -77q-132 0 -204.5 97t-72.5 264q0 168 71 264t204 96q115 0 206 -82h2v69zM161 347q0 -138 55.5 -214t156.5 -76q105 0 185 70v434q-80 70 -185 70q-101 0 -156.5 -75.5t-55.5 -208.5z" />
    <glyph glyph-name="Hbar" unicode="&#x126;" horiz-adv-x="883" 
d="M841 713v-69h-60v-649h-89v450h-501v-450h-89v649h-68v69h68v221h89v-221h501v221h89v-221h60zM692 522v122h-501v-122h501z" />
    <glyph glyph-name="hbar" unicode="&#x127;" horiz-adv-x="726" 
d="M422 703q105 1 160.5 -55.5t55.5 -169.5v-478h-82v456q0 164 -150 165q-108 1 -235 -101v-520h-82v797h-131v60h131v77h82v-77h146v-60h-146v-196q121 102 251 102z" />
    <glyph glyph-name="Imacron" unicode="&#x12a;" horiz-adv-x="293" 
d="M-40 1237h398v-78h-398v78zM102 -5v939h89v-939h-89z" />
    <glyph glyph-name="imacron" unicode="&#x12b;" horiz-adv-x="293" 
d="M-44 969h398v-71h-398v71zM171 681v-681h-82v681h82z" />
    <glyph glyph-name="Iogonek" unicode="&#x12e;" horiz-adv-x="293" 
d="M57 -141q0 -15 10 -25t24 -10h106v-51h-106q-36 0 -60 24.5t-24 61.5q0 31 24.5 55t61.5 29h38l-8 52h-21v939h89v-939h-14l20 -101h-106q-14 0 -24 -10.5t-10 -24.5z" />
    <glyph glyph-name="iogonek" unicode="&#x12f;" horiz-adv-x="238" 
d="M117 776q-20 0 -35 15t-15 35t15 35.5t35 15.5q21 0 36 -15t15 -36q0 -20 -15 -35t-36 -15zM31 -141q0 -15 10.5 -25t24.5 -10h105v-51h-105q-36 0 -60.5 24.5t-24.5 61.5q0 31 24.5 55t62.5 29h37l-9 57h-17v655h82v-655h-11l21 -106h-105q-14 0 -24.5 -10.5
t-10.5 -24.5z" />
    <glyph glyph-name="Idotaccent" unicode="&#x130;" horiz-adv-x="293" 
d="M156 1072q-19 0 -32 13t-13 32t13 32.5t32 13.5t31 -13t12 -33q0 -19 -12 -32t-31 -13zM102 -5v939h89v-939h-89z" />
    <glyph glyph-name="dotlessi" unicode="&#x131;" horiz-adv-x="259" 
d="M171 681v-681h-82v681h82z" />
    <glyph glyph-name="uni0136" unicode="&#x136;" horiz-adv-x="819" 
d="M299 467l478 -472h-118l-468 466v-466h-89v939h89v-467l462 467h112zM348 -150l7 52h68l-8 -48q-24 -168 -68 -309h-55q3 15 15.5 74t23 117.5t17.5 113.5z" />
    <glyph glyph-name="uni0137" unicode="&#x137;" horiz-adv-x="658" 
d="M631 898l-387 -437l384 -461h-102l-355 441v-441h-82v934h82v-460l361 424h99zM281 -182l7 52h67l-7 -49q-29 -187 -69 -308h-55q4 20 16 76t23 115.5t18 113.5z" />
    <glyph glyph-name="Lacute" unicode="&#x139;" horiz-adv-x="705" 
d="M579 1326l-12 -70q-6 -37 -23.5 -109t-21.5 -92h-61q7 38 23.5 108t20.5 103l12 60h62zM191 934v-863h474v-76h-563v939h89z" />
    <glyph glyph-name="lacute" unicode="&#x13a;" horiz-adv-x="238" 
d="M216 1345l-14 -70q-5 -37 -23 -109.5t-22 -90.5h-59q6 34 22.5 105.5t20.5 104.5l12 60h63zM161 0h-82v934h82v-934z" />
    <glyph glyph-name="uni013B" unicode="&#x13b;" horiz-adv-x="705" 
d="M191 934v-863h474v-76h-563v939h89zM399 -197q-28 -181 -70 -308h-55q4 21 16 76.5t23.5 115.5t18.5 114l7 52h67z" />
    <glyph glyph-name="uni013C" unicode="&#x13c;" horiz-adv-x="238" 
d="M161 0h-82v934h82v-934zM143 -150q-26 -171 -68 -309h-55q3 19 15 76t23 116t18 114l7 52h69z" />
    <glyph glyph-name="Lcaron" unicode="&#x13d;" horiz-adv-x="705" 
d="M324 1211l-3 49l183 -161l180 161l1 -49l-181 -169zM191 934v-863h474v-76h-563v939h89z" />
    <glyph glyph-name="lcaron" unicode="&#x13e;" horiz-adv-x="238" 
d="M-53 1259l-2 54l175 -165l182 161l1 -56l-183 -169zM161 0h-82v934h82v-934z" />
    <glyph glyph-name="Lslash" unicode="&#x141;" horiz-adv-x="705" 
d="M191 71h474v-76h-563v439l-99 -93h-96l195 183v410h89v-328l133 124h95l-228 -213v-446z" />
    <glyph glyph-name="lslash" unicode="&#x142;" horiz-adv-x="293" 
d="M412 715l-221 -206v-514h-89v431l-106 -100h-96l202 189v419h89v-336l126 117h95z" />
    <glyph glyph-name="Nacute" unicode="&#x143;" horiz-adv-x="899" 
d="M511 1256q-6 -35 -22.5 -103t-22.5 -98h-60q6 31 22 104t20 107l12 60h63zM715 934h82v-939h-84l-530 782l1 -782h-82v939h81l534 -789z" />
    <glyph glyph-name="nacute" unicode="&#x144;" horiz-adv-x="726" 
d="M431 1200l-12 -70q-6 -35 -22.5 -102t-22.5 -98h-60q6 32 22 104t20 106l13 60h62zM171 0h-82v688h82v-89q132 103 258 103q209 0 209 -224v-478h-82v456q0 165 -156 165q-113 0 -229 -101v-520z" />
    <glyph glyph-name="uni0145" unicode="&#x145;" horiz-adv-x="899" 
d="M715 934h82v-939h-84l-530 782l1 -782h-82v939h81l534 -789zM388 -212l7 52h68l-8 -49q-22 -152 -69 -308h-54q3 19 15 75.5t23 115.5t18 114z" />
    <glyph glyph-name="uni0146" unicode="&#x146;" horiz-adv-x="726" 
d="M171 0h-82v688h82v-89q132 103 258 103q209 0 209 -224v-478h-82v456q0 165 -156 165q-113 0 -229 -101v-520zM371 -126q-26 -169 -68 -308h-55q3 19 15 76t23 116t18 114l7 52h69z" />
    <glyph glyph-name="Ncaron" unicode="&#x147;" horiz-adv-x="899" 
d="M448 1069l-182 169l-1 55l181 -161l182 161l1 -55zM715 934h82v-939h-84l-530 782l1 -782h-82v939h81l534 -789z" />
    <glyph glyph-name="ncaron" unicode="&#x148;" horiz-adv-x="726" 
d="M176 1085l-1 55l175 -165l180 161l1 -56l-181 -169zM171 0h-82v688h82v-89q132 103 258 103q209 0 209 -224v-478h-82v456q0 165 -156 165q-113 0 -229 -101v-520z" />
    <glyph glyph-name="Eng" unicode="&#x14a;" horiz-adv-x="899" 
d="M715 939h82v-939l-8 -49q-30 -194 -68 -309h-77q2 8 27 120.5t35 185.5l7 52l-530 782l1 -782h-82v939h81l534 -789z" />
    <glyph glyph-name="eng" unicode="&#x14b;" horiz-adv-x="726" 
d="M429 702q209 0 209 -224v-478l-7 -49q-28 -183 -70 -309h-72q3 15 25.5 125t34.5 181l8 52h-1v456q0 165 -156 165q-113 0 -229 -101v-520h-82v688h82v-89q132 103 258 103z" />
    <glyph glyph-name="Omacron" unicode="&#x14c;" horiz-adv-x="940" 
d="M197 1161h626v-78h-626v78zM471 -19q-190 0 -286 126.5t-96 362.5q0 229 96 353.5t286 124.5q188 0 284.5 -124.5t96.5 -353.5q0 -235 -96 -362t-285 -127zM471 57q82 0 141 34t91 94.5t46 130.5t14 154q0 198 -73.5 299.5t-218.5 101.5t-219.5 -101.5t-74.5 -299.5
q0 -84 14.5 -154t46.5 -130.5t91.5 -94.5t141.5 -34z" />
    <glyph glyph-name="omacron" unicode="&#x14d;" horiz-adv-x="750" 
d="M180 997h398v-79h-398v79zM375 -8q-143 0 -221.5 98t-78.5 262q0 163 78.5 261t221.5 98t222 -98t79 -261q0 -164 -79 -262t-222 -98zM375 649q-57 0 -101 -24t-69.5 -65.5t-38.5 -94t-13 -113.5q0 -130 55 -213t167 -83t167 83t55 213q0 61 -13 113.5t-38.5 94
t-69.5 65.5t-101 24z" />
    <glyph glyph-name="Ohungarumlaut" unicode="&#x150;" horiz-adv-x="940" 
d="M464 1399q-8 -56 -19.5 -111.5t-25.5 -115t-20 -89.5h-60q2 11 26.5 136t33.5 178l8 43h63zM687 1402q-5 -36 -15 -84t-25.5 -117.5t-25.5 -117.5h-58l60 316l8 41h63zM471 -19q-190 0 -286 126.5t-96 362.5q0 229 96 353.5t286 124.5q188 0 284.5 -124.5t96.5 -353.5
q0 -235 -96 -362t-285 -127zM471 57q82 0 141 34t91 94.5t46 130.5t14 154q0 198 -73.5 299.5t-218.5 101.5t-219.5 -101.5t-74.5 -299.5q0 -84 14.5 -154t46.5 -130.5t91.5 -94.5t141.5 -34z" />
    <glyph glyph-name="ohungarumlaut" unicode="&#x151;" horiz-adv-x="750" 
d="M354 1274q-11 -75 -38 -194t-28 -123h-60q2 11 26.5 136t33.5 178l8 44h63zM576 1277q-5 -36 -14.5 -83.5t-25.5 -119t-25 -117.5h-59l60 317l8 41h63zM375 -8q-143 0 -221.5 98t-78.5 262q0 163 78.5 261t221.5 98t222 -98t79 -261q0 -164 -79 -262t-222 -98zM375 649
q-57 0 -101 -24t-69.5 -65.5t-38.5 -94t-13 -113.5q0 -130 55 -213t167 -83t167 83t55 213q0 61 -13 113.5t-38.5 94t-69.5 65.5t-101 24z" />
    <glyph glyph-name="OE" unicode="&#x152;" horiz-adv-x="1429" 
d="M849 71h492v-76h-579v121q-98 -135 -291 -135q-190 0 -286 126.5t-96 362.5q0 229 96 353.5t286 124.5q194 0 291 -133v119h572v-77h-485v-314q0 -3 1 -10t1 -11h421v-77h-420q0 -8 -0.5 -16.5t-1.5 -19t-1 -16.5v-322zM471 57q76 0 132 29t88.5 81t49.5 113.5t21 137.5
v104q-9 172 -83 260.5t-208 88.5q-145 0 -219.5 -101.5t-74.5 -299.5q0 -84 14.5 -154t46.5 -130.5t91.5 -94.5t141.5 -34z" />
    <glyph glyph-name="oe" unicode="&#x153;" horiz-adv-x="1243" 
d="M902 728q138 0 204.5 -105.5t55.5 -272.5h-482q2 -145 66 -217t197 -72q110 0 196 30l22 -61q-64 -23 -113.5 -30.5t-116.5 -7.5q-216 0 -296 160q-35 -76 -101.5 -118t-158.5 -42q-143 0 -221.5 98t-78.5 262q0 163 78.5 261t221.5 98q181 0 257 -153q37 82 106 126
t164 44zM680 406h408q0 112 -50.5 185.5t-136.5 73.5q-98 0 -155.5 -67.5t-65.5 -191.5zM375 56q103 0 157.5 71.5t62.5 186.5q-1 14 -1 44q0 26 1 38q-9 112 -63.5 182.5t-156.5 70.5q-57 0 -101 -24t-69.5 -65.5t-38.5 -94t-13 -113.5q0 -130 55 -213t167 -83z" />
    <glyph glyph-name="Racute" unicode="&#x154;" horiz-adv-x="831" 
d="M429 1256q-5 -37 -23 -110.5t-22 -90.5h-60q6 34 22.5 106t20.5 105l13 60h62zM537 396l251 -401h-101l-242 393h-254v-393h-89v939h376q124 0 200.5 -75t76.5 -198q0 -111 -58 -181t-160 -84zM191 464h280q90 0 142.5 52t52.5 145q0 89 -54.5 142.5t-139.5 53.5h-281
v-393z" />
    <glyph glyph-name="racute" unicode="&#x155;" horiz-adv-x="445" 
d="M358 1130q-6 -36 -23 -107t-22 -93h-60q7 36 23 106.5t20 103.5l13 60h61zM171 572q115 126 266 124v-68q-76 5 -152.5 -36t-113.5 -90v-502h-82v688h82v-116z" />
    <glyph glyph-name="uni0156" unicode="&#x156;" horiz-adv-x="831" 
d="M537 396l251 -401h-101l-242 393h-254v-393h-89v939h376q124 0 200.5 -75t76.5 -198q0 -111 -58 -181t-160 -84zM191 464h280q90 0 142.5 52t52.5 145q0 89 -54.5 142.5t-139.5 53.5h-281v-393zM369 -152l6 52h69l-8 -49q-22 -152 -69 -308h-54q3 19 15 75.5t23 115.5
t18 114z" />
    <glyph glyph-name="uni0157" unicode="&#x157;" horiz-adv-x="445" 
d="M171 572q115 126 266 124v-68q-76 5 -152.5 -36t-113.5 -90v-502h-82v688h82v-116zM86 -137l8 52h67l-8 -47q-31 -200 -68 -309h-55q3 15 15 73.5t23 117t18 113.5z" />
    <glyph glyph-name="Rcaron" unicode="&#x158;" horiz-adv-x="831" 
d="M366 1069l-180 169l-2 50l182 -160l180 160l1 -50zM537 396l251 -401h-101l-242 393h-254v-393h-89v939h376q124 0 200.5 -75t76.5 -198q0 -111 -58 -181t-160 -84zM191 464h280q90 0 142.5 52t52.5 145q0 89 -54.5 142.5t-139.5 53.5h-281v-393z" />
    <glyph glyph-name="rcaron" unicode="&#x159;" horiz-adv-x="445" 
d="M287 931l-174 174l-1 56l175 -166l180 160l1 -55zM171 572q115 126 266 124v-68q-76 5 -152.5 -36t-113.5 -90v-502h-82v688h82v-116z" />
    <glyph glyph-name="Sacute" unicode="&#x15a;" horiz-adv-x="776" 
d="M471 1326l-12 -70q-6 -37 -23.5 -109t-21.5 -92h-60q7 36 23 107t20 104l13 60h61zM389 -19q-168 0 -325 45v74q189 -44 321 -44q122 0 180.5 54.5t58.5 129.5q0 26 -8 48t-18.5 38.5t-33 32t-38.5 25t-48.5 22t-50.5 18.5t-56 18t-61.5 20t-58 22t-56 27.5t-46 34.5
t-38.5 43.5t-23.5 53.5t-9.5 67q0 116 82.5 177t228.5 61t307 -47v-75q-177 46 -306 46q-223 0 -223 -162q0 -34 13.5 -61t33 -44.5t54.5 -34.5t63 -26.5t74 -24.5q2 -1 3.5 -1t3 -1t3.5 -1q54 -16 87 -27.5t78 -34.5t70.5 -49t44 -67t18.5 -92q0 -125 -88.5 -195
t-235.5 -70z" />
    <glyph glyph-name="sacute" unicode="&#x15b;" horiz-adv-x="655" 
d="M411 1200l-14 -70q-5 -37 -23 -109.5t-22 -90.5h-60q7 36 23.5 106.5t20.5 103.5l12 60h63zM321 -16q-132 0 -254 41v65q122 -39 240 -39q56 0 96 13.5t58 35t25.5 40t7.5 37.5q0 24 -11 44t-25.5 33.5t-43 27t-48.5 20.5t-57 19q-41 14 -65 23t-59.5 27.5t-54.5 37.5
t-33.5 49.5t-14.5 67.5q0 88 72 140t198 52q104 0 221 -39v-66q-115 40 -203 40q-105 0 -151 -38t-46 -84q0 -25 12 -45.5t25.5 -33t46 -27t49 -20.5t60.5 -20q51 -17 81 -30t67 -36.5t55 -57t18 -77.5q0 -92 -73 -146t-193 -54z" />
    <glyph glyph-name="Scedilla" unicode="&#x15e;" horiz-adv-x="776" 
d="M385 -19l-3 -19q-14 -94 -24 -134l143 -1q34 -3 60 -27t26 -55q0 -36 -25 -61t-60 -25h-210v50h210q14 0 24.5 10.5t10.5 25.5q0 14 -10.5 24t-24.5 10h-210q3 14 11 43t13.5 57t12.5 80l3 23q-140 6 -268 44v74q189 -44 321 -44q122 0 180.5 54.5t58.5 129.5q0 26 -8 48
t-18.5 38.5t-33 32t-38.5 25t-48.5 22t-50.5 18.5t-56 18t-61.5 20t-58 22t-56 27.5t-46 34.5t-38.5 43.5t-23.5 53.5t-9.5 67q0 116 82.5 177t228.5 61t307 -47v-75q-177 46 -306 46q-223 0 -223 -162q0 -34 13.5 -61t33 -44.5t54.5 -34.5t63 -26.5t74 -24.5q2 -1 3.5 -1
t3 -1t3.5 -1q54 -16 87 -27.5t78 -34.5t70.5 -49t44 -67t18.5 -92q0 -125 -88.5 -195t-235.5 -70h-4z" />
    <glyph glyph-name="scedilla" unicode="&#x15f;" horiz-adv-x="655" 
d="M453 -193q34 -3 60 -26.5t26 -54.5q0 -36 -24.5 -61t-59.5 -25h-211v50h211q14 0 24 10.5t10 25.5q0 14 -10 24t-24 10h-211q3 14 11 43t13.5 57t12.5 80l6 44q-110 4 -220 41v65q122 -39 240 -39q56 0 96 13.5t58 35t25.5 40t7.5 37.5q0 24 -11 44t-25.5 33.5t-43 27
t-48.5 20.5t-57 19q-41 14 -65 23t-59.5 27.5t-54.5 37.5t-33.5 49.5t-14.5 67.5q0 88 72 140t198 52q104 0 221 -39v-66q-115 40 -203 40q-105 0 -151 -38t-46 -84q0 -25 12 -45.5t25.5 -33t46 -27t49 -20.5t60.5 -20q51 -17 81 -30t67 -36.5t55 -57t18 -77.5
q0 -88 -67 -141.5t-179 -58.5l-6 -41q-13 -83 -25 -134z" />
    <glyph glyph-name="Scaron" unicode="&#x160;" horiz-adv-x="776" 
d="M216 1238l-3 50l183 -160l180 160l2 -50l-182 -169zM389 -19q-168 0 -325 45v74q189 -44 321 -44q122 0 180.5 54.5t58.5 129.5q0 26 -8 48t-18.5 38.5t-33 32t-38.5 25t-48.5 22t-50.5 18.5t-56 18t-61.5 20t-58 22t-56 27.5t-46 34.5t-38.5 43.5t-23.5 53.5t-9.5 67
q0 116 82.5 177t228.5 61t307 -47v-75q-177 46 -306 46q-223 0 -223 -162q0 -34 13.5 -61t33 -44.5t54.5 -34.5t63 -26.5t74 -24.5q2 -1 3.5 -1t3 -1t3.5 -1q54 -16 87 -27.5t78 -34.5t70.5 -49t44 -67t18.5 -92q0 -125 -88.5 -195t-235.5 -70z" />
    <glyph glyph-name="scaron" unicode="&#x161;" horiz-adv-x="655" 
d="M158 1105l-2 56l174 -166l182 160l1 -55l-181 -169zM321 -16q-132 0 -254 41v65q122 -39 240 -39q56 0 96 13.5t58 35t25.5 40t7.5 37.5q0 24 -11 44t-25.5 33.5t-43 27t-48.5 20.5t-57 19q-41 14 -65 23t-59.5 27.5t-54.5 37.5t-33.5 49.5t-14.5 67.5q0 88 72 140
t198 52q104 0 221 -39v-66q-115 40 -203 40q-105 0 -151 -38t-46 -84q0 -25 12 -45.5t25.5 -33t46 -27t49 -20.5t60.5 -20q51 -17 81 -30t67 -36.5t55 -57t18 -77.5q0 -92 -73 -146t-193 -54z" />
    <glyph glyph-name="uni0162" unicode="&#x162;" horiz-adv-x="738" 
d="M395 -5l-6 -35q-16 -95 -26 -133l145 -2q34 -4 60 -28t26 -55q0 -36 -25 -60.5t-60 -24.5h-211v49h211q14 0 24 11t10 25t-10 24t-24 10h-211q3 14 9.5 37t9 35t7.5 40t11 68l5 39h-15v862h-274v77h637v-77h-274v-862h-19z" />
    <glyph glyph-name="uni0163" unicode="&#x163;" horiz-adv-x="387" 
d="M414 -184q34 -3 60 -27t26 -55q0 -36 -25 -61t-60 -25h-210v50h210q14 0 24 10.5t10 25.5q0 14 -10 24t-24 10h-210q3 14 11 43t13.5 57t12.5 80l4 33q-129 10 -129 157v478h-101l17 65h84v174l82 24v-198h163l-18 -65h-145v-471q0 -99 89 -99q52 0 70 10v-66
q-8 -2 -29.5 -4.5t-28.5 -3.5l-5 -31q-13 -83 -25 -134z" />
    <glyph glyph-name="Tcaron" unicode="&#x164;" horiz-adv-x="738" 
d="M182 1238l-3 50l183 -160l180 160l1 -50l-181 -169zM688 857h-274v-862h-89v862h-274v77h637v-77z" />
    <glyph glyph-name="tcaron" unicode="&#x165;" horiz-adv-x="387" 
d="M141 1129l-2 56l175 -165l182 160l1 -56l-183 -170zM199 616v-471q0 -99 89 -99q52 0 70 10v-66q-45 -9 -96 -9q-145 0 -145 157v478h-101l17 65h84v174l82 24v-198h163l-18 -65h-145z" />
    <glyph glyph-name="Tbar" unicode="&#x166;" horiz-adv-x="738" 
d="M688 857h-274v-252h184v-75h-184v-535h-89v535h-188v75h188v252h-274v77h637v-77z" />
    <glyph glyph-name="tbar" unicode="&#x167;" horiz-adv-x="387" 
d="M199 145q0 -99 89 -99q52 0 70 10v-66q-45 -9 -96 -9q-145 0 -145 157v265h-84v63h84v150h-101l17 65h84v174l82 24v-198h163l-18 -65h-145v-150h145v-63h-145v-258z" />
    <glyph glyph-name="Umacron" unicode="&#x16a;" horiz-adv-x="886" 
d="M258 1159h388v-78h-388v78zM191 330q0 -37 3.5 -67.5t18.5 -71t40.5 -68t74.5 -47t116 -19.5t116 19.5t74 47t40 68t18 70.5t3 68v604h89v-604q0 -175 -87 -262t-253 -87q-167 0 -254.5 87t-87.5 262v604h89v-604z" />
    <glyph glyph-name="umacron" unicode="&#x16b;" horiz-adv-x="726" 
d="M563 997v-79h-379v79h379zM556 688h82v-693h-82v90q-126 -104 -258 -104q-209 0 -209 224v483h82v-460q0 -167 155 -167q116 0 230 101v526z" />
    <glyph glyph-name="Uring" unicode="&#x16e;" horiz-adv-x="886" 
d="M425 1070q-35 0 -60.5 26t-25.5 62t25.5 61t60.5 25q36 0 61 -25t25 -61t-25 -62t-61 -26zM425 1110q20 0 33 14.5t13 36.5q0 20 -13 33t-33 13t-33.5 -13.5t-13.5 -32.5q0 -22 13.5 -36.5t33.5 -14.5zM191 330q0 -37 3.5 -67.5t18.5 -71t40.5 -68t74.5 -47t116 -19.5
t116 19.5t74 47t40 68t18 70.5t3 68v604h89v-604q0 -175 -87 -262t-253 -87q-167 0 -254.5 87t-87.5 262v604h89v-604z" />
    <glyph glyph-name="uring" unicode="&#x16f;" horiz-adv-x="726" 
d="M345 945q-35 0 -60.5 25.5t-25.5 61.5t25.5 61t60.5 25q36 0 61 -25t25 -61t-25 -61.5t-61 -25.5zM345 1081q-19 0 -32.5 -13.5t-13.5 -32.5q0 -22 13 -36.5t33 -14.5t33.5 14.5t13.5 36.5q0 20 -13.5 33t-33.5 13zM556 688h82v-693h-82v90q-126 -104 -258 -104
q-209 0 -209 224v483h82v-460q0 -167 155 -167q116 0 230 101v526z" />
    <glyph glyph-name="Uhungarumlaut" unicode="&#x170;" horiz-adv-x="886" 
d="M418 1399q-11 -75 -38 -192.5t-28 -123.5h-58q2 11 26.5 136t33.5 178l8 43h63zM642 1402q-6 -46 -31 -158t-35 -161h-60q53 268 62 316l8 41h61zM191 330q0 -37 3.5 -67.5t18.5 -71t40.5 -68t74.5 -47t116 -19.5t116 19.5t74 47t40 68t18 70.5t3 68v604h89v-604
q0 -175 -87 -262t-253 -87q-167 0 -254.5 87t-87.5 262v604h89v-604z" />
    <glyph glyph-name="uhungarumlaut" unicode="&#x171;" horiz-adv-x="726" 
d="M340 1274q-11 -75 -38 -194t-28 -123h-60q2 11 26.5 136t33.5 178l9 44h62zM563 1277q-5 -36 -15 -84t-25.5 -118t-25.5 -118h-59l60 317l9 41h62zM556 688h82v-693h-82v90q-126 -104 -258 -104q-209 0 -209 224v483h82v-460q0 -167 155 -167q116 0 230 101v526z" />
    <glyph glyph-name="Uogonek" unicode="&#x172;" horiz-adv-x="886" 
d="M695 934h89v-604q0 -169 -81 -256t-237 -93l17 -89h-105q-14 0 -24 -10t-10 -24q0 -15 10 -25t24 -10h105v-51h-105q-37 0 -60.5 24.5t-23.5 61.5q0 31 24.5 54.5t61.5 28.5h38l-8 41q-150 8 -229 95t-79 253v604h89v-604q0 -37 3.5 -67.5t18.5 -71t40.5 -68t74.5 -47
t116 -19.5t116 19.5t74 47t40 68t18 70.5t3 68v604z" />
    <glyph glyph-name="uogonek" unicode="&#x173;" horiz-adv-x="726" 
d="M502 -141q0 -15 10.5 -25t24.5 -10h105v-51h-105q-37 0 -61 24.5t-24 61.5q0 31 24.5 55t61.5 29h38l-9 52h-11v90q-126 -104 -258 -104q-209 0 -209 224v483h82v-460q0 -167 155 -167q116 0 230 101v526h82v-693h-15l19 -101h-105q-14 0 -24.5 -10.5t-10.5 -24.5z" />
    <glyph glyph-name="Wcircumflex" unicode="&#x174;" horiz-adv-x="1254" 
d="M814 1058l-182 160l-181 -160l1 49l182 170l181 -170zM1128 934h89l-264 -946h-102l-223 800l-224 -800h-102l-264 946h93l153 -548l72 -269l73 269l153 548h95l154 -548l73 -269l71 269z" />
    <glyph glyph-name="wcircumflex" unicode="&#x175;" horiz-adv-x="1064" 
d="M714 931l-182 160l-174 -165l1 56l173 173l183 -169zM948 688h90l-231 -700h-97l-179 577l-179 -577h-93l-232 700h90l192 -613l181 613h86l180 -610z" />
    <glyph glyph-name="Ycircumflex" unicode="&#x176;" horiz-adv-x="813" 
d="M598 1058l-182 160l-181 -160l1 49l182 170l181 -170zM685 934h92l-326 -602v-337h-88v337l-326 602h95l145 -273l133 -239l131 239z" />
    <glyph glyph-name="ycircumflex" unicode="&#x177;" horiz-adv-x="688" 
d="M561 931l-181 160l-175 -165l1 56l174 173l183 -169zM571 688h88l-360 -939h-79l86 229l-279 710h93l224 -609v-4z" />
    <glyph glyph-name="Ydieresis" unicode="&#x178;" horiz-adv-x="813" 
d="M319 1031q-19 0 -32 13t-13 32t13 32t32 13t32.5 -13t13.5 -32t-13.5 -32t-32.5 -13zM486 1031q-19 0 -32 13t-13 32t13 32t32 13t32 -13t13 -32t-13 -32t-32 -13zM685 934h92l-326 -602v-337h-88v337l-326 602h95l145 -273l133 -239l131 239z" />
    <glyph glyph-name="Zacute" unicode="&#x179;" horiz-adv-x="775" 
d="M483 1256q-6 -37 -23.5 -109t-21.5 -92h-60q7 38 23.5 108t20.5 103l12 60h62zM177 71h534v-76h-647v61l519 801h-492v77h605v-62z" />
    <glyph glyph-name="zacute" unicode="&#x17a;" horiz-adv-x="641" 
d="M411 1135q-6 -35 -23 -106t-22 -94h-60q7 38 23.5 108t20.5 103l12 60h61zM152 61h445v-66h-552v61l438 565h-417v67h520v-61z" />
    <glyph glyph-name="Zdotaccent" unicode="&#x17b;" horiz-adv-x="775" 
d="M429 1072q-19 0 -32 13t-13 32t13 32.5t32 13.5t32 -13.5t13 -32.5t-13 -32t-32 -13zM177 71h534v-76h-647v61l519 801h-492v77h605v-62z" />
    <glyph glyph-name="zdotaccent" unicode="&#x17c;" horiz-adv-x="641" 
d="M356 950q-19 0 -32 14t-13 33t13 32t32 13t32 -13t13 -32t-13 -33t-32 -14zM152 61h445v-66h-552v61l438 565h-417v67h520v-61z" />
    <glyph glyph-name="Zcaron" unicode="&#x17d;" horiz-adv-x="775" 
d="M421 1069l-181 169l-2 50l183 -160l180 160l1 -50zM177 71h534v-76h-647v61l519 801h-492v77h605v-62z" />
    <glyph glyph-name="zcaron" unicode="&#x17e;" horiz-adv-x="641" 
d="M348 948l-180 169l-3 49l183 -160l180 160l2 -49zM152 61h445v-66h-552v61l438 565h-417v67h520v-61z" />
    <glyph glyph-name="uni0218" unicode="&#x218;" horiz-adv-x="776" 
d="M389 -19q-168 0 -325 45v74q189 -44 321 -44q122 0 180.5 54.5t58.5 129.5q0 26 -8 48t-18.5 38.5t-33 32t-38.5 25t-48.5 22t-50.5 18.5t-56 18t-61.5 20t-58 22t-56 27.5t-46 34.5t-38.5 43.5t-23.5 53.5t-9.5 67q0 116 82.5 177t228.5 61t307 -47v-75q-177 46 -306 46
q-223 0 -223 -162q0 -34 13.5 -61t33 -44.5t54.5 -34.5t63 -26.5t74 -24.5q2 -1 3.5 -1t3 -1t3.5 -1q54 -16 87 -27.5t78 -34.5t70.5 -49t44 -67t18.5 -92q0 -125 -88.5 -195t-235.5 -70zM386 -171q-26 -182 -68 -308h-54q3 17 15 75.5t22.5 117t17.5 113.5l9 51h67z" />
    <glyph glyph-name="uni0219" unicode="&#x219;" horiz-adv-x="655" 
d="M321 -16q-132 0 -254 41v65q122 -39 240 -39q56 0 96 13.5t58 35t25.5 40t7.5 37.5q0 24 -11 44t-25.5 33.5t-43 27t-48.5 20.5t-57 19q-41 14 -65 23t-59.5 27.5t-54.5 37.5t-33.5 49.5t-14.5 67.5q0 88 72 140t198 52q104 0 221 -39v-66q-115 40 -203 40
q-105 0 -151 -38t-46 -84q0 -25 12 -45.5t25.5 -33t46 -27t49 -20.5t60.5 -20q51 -17 81 -30t67 -36.5t55 -57t18 -77.5q0 -92 -73 -146t-193 -54zM328 -153q-22 -152 -69 -308h-54q3 19 15 75.5t23 115.5t18 114l7 52h68z" />
    <glyph glyph-name="uni021A" unicode="&#x21a;" horiz-adv-x="738" 
d="M688 857h-274v-862h-89v862h-274v77h637v-77zM399 -149q-22 -152 -69 -308h-54q3 19 15 75.5t23 115.5t18 114l7 52h68z" />
    <glyph glyph-name="uni021B" unicode="&#x21b;" horiz-adv-x="387" 
d="M199 616v-471q0 -99 89 -99q52 0 70 10v-66q-45 -9 -96 -9q-145 0 -145 157v478h-101l17 65h84v174l82 24v-198h163l-18 -65h-145zM295 -143q-11 -74 -32.5 -167.5t-37.5 -141.5h-54q3 17 15.5 74.5t23.5 116.5t18 114l7 51h67z" />
    <glyph glyph-name="circumflex" unicode="&#x2c6;" horiz-adv-x="364" 
d="M1 1125l182 169l182 -169l-2 -49l-181 161l-182 -161z" />
    <glyph glyph-name="caron" unicode="&#x2c7;" horiz-adv-x="364" 
d="M1 1253l-1 50l182 -160l181 160l2 -50l-182 -169z" />
    <glyph glyph-name="breve" unicode="&#x2d8;" horiz-adv-x="311" 
d="M154 1065q-85 2 -154 45v45q66 -39 154 -44q82 -1 157 36v-47q-69 -35 -157 -35z" />
    <glyph glyph-name="dotaccent" unicode="&#x2d9;" horiz-adv-x="86" 
d="M42 1057q-19 0 -32.5 13.5t-13.5 32.5t13.5 32t32.5 13q18 0 31 -13t13 -32t-13.5 -32.5t-30.5 -13.5z" />
    <glyph glyph-name="ring" unicode="&#x2da;" horiz-adv-x="196" 
d="M98 1042q-35 0 -60.5 25.5t-25.5 61.5q0 35 26 60.5t60 25.5q36 0 61 -25.5t25 -60.5q0 -37 -25 -62t-61 -25zM98 1081q21 0 34 13.5t13 35.5q0 20 -13.5 33.5t-33.5 13.5t-33 -13.5t-13 -33.5q0 -22 13 -35.5t33 -13.5z" />
    <glyph glyph-name="ogonek" unicode="&#x2db;" horiz-adv-x="189" 
d="M124 -57l-11 57h56l21 -106h-105q-14 0 -24 -10.5t-10 -24.5q0 -15 10 -25t24 -10h105v-51h-105q-37 0 -61 24.5t-24 61.5q0 31 24.5 55t61.5 29h38z" />
    <glyph glyph-name="tilde" unicode="&#x2dc;" horiz-adv-x="349" 
d="M16 1092l-16 44l91 70q8 -20 44 -37.5t73 -17.5q25 0 65 14.5t60 30.5l17 -42q-22 -19 -67 -35.5t-75 -16.5q-65 0 -122 45z" />
    <glyph glyph-name="hungarumlaut" unicode="&#x2dd;" horiz-adv-x="354" 
d="M126 1346q-11 -75 -38 -194t-28 -123h-60q2 11 26.5 136t33.5 178l8 44h63zM350 1349q-6 -46 -31.5 -159t-34.5 -161h-60l60 317l8 41h63z" />
    <glyph glyph-name="gravecomb" unicode="&#x300;" 
d="M-117 1335h62l13 -60q4 -34 20 -106t22 -104h-59q-4 17 -22 90.5t-23 110.5z" />
    <glyph glyph-name="acutecomb" unicode="&#x301;" 
d="M0 1364l-12 -70q-6 -36 -23 -107t-22 -93h-60q7 36 23 106.5t20 103.5l13 60h61z" />
    <glyph glyph-name="uni0302" unicode="&#x302;" 
d="M-363 1125l181 169l182 -169l-1 -49l-182 161l-182 -161z" />
    <glyph glyph-name="tildecomb" unicode="&#x303;" 
d="M-333 1092l-17 44l92 70q8 -20 43.5 -37.5t72.5 -17.5q25 0 65.5 15t60.5 30l16 -42q-22 -19 -67 -35.5t-75 -16.5q-65 0 -122 45z" />
    <glyph glyph-name="uni0304" unicode="&#x304;" 
d="M-669 806h669v-80h-669v80z" />
    <glyph glyph-name="uni0306" unicode="&#x306;" 
d="M-157 1065q-85 2 -154 45v45q66 -39 154 -44q80 -1 158 36v-47q-71 -35 -158 -35z" />
    <glyph glyph-name="uni0307" unicode="&#x307;" 
d="M-44 1057q-19 0 -32.5 13.5t-13.5 32.5t13.5 32t32.5 13q18 0 31.5 -13.5t13.5 -31.5q0 -19 -13.5 -32.5t-31.5 -13.5z" />
    <glyph glyph-name="uni0308" unicode="&#x308;" 
d="M-212 1062q-19 0 -32 13t-13 32q0 20 13 33.5t32 13.5t32 -13.5t13 -33.5q0 -19 -13 -32t-32 -13zM-45 1062q-19 0 -32 13t-13 32q0 20 13 33.5t32 13.5t32 -13.5t13 -33.5q0 -19 -13 -32t-32 -13z" />
    <glyph glyph-name="uni030A" unicode="&#x30a;" 
d="M-98 1042q-35 0 -60.5 25.5t-25.5 61.5q0 35 26 60.5t60 25.5q36 0 61 -25.5t25 -60.5q0 -37 -25 -62t-61 -25zM-98 1081q20 0 33 13.5t13 35.5q0 20 -13 33.5t-33 13.5t-33.5 -13.5t-13.5 -33.5q0 -22 13.5 -35.5t33.5 -13.5z" />
    <glyph glyph-name="uni030B" unicode="&#x30b;" 
d="M-229 1346q-11 -75 -38 -194t-28 -123h-60q2 11 26.5 136t33.5 178l8 44h63zM-5 1349q-6 -46 -31.5 -159t-34.5 -161h-60l60 317l8 41h63z" />
    <glyph glyph-name="uni030C" unicode="&#x30c;" 
d="M-363 1253l-2 50l182 -160l182 160l1 -50l-182 -169z" />
    <glyph glyph-name="uni0312" unicode="&#x312;" 
d="M-48 1144q22 -3 36.5 -20.5t12.5 -39.5q-4 -23 -23 -36.5t-42 -9.5q-28 3 -47.5 21.5t-23.5 46.5q-6 114 -6 142l-9 101l60 -7l12 -90q0 -16 2 -52t2 -57q17 2 26 1z" />
    <glyph glyph-name="uni0326" unicode="&#x326;" 
d="M-35 75q-29 -188 -70 -308h-55q3 18 15.5 74.5t24 116t18.5 114.5l6 52h67z" />
    <glyph glyph-name="uni0327" unicode="&#x327;" 
d="M-231 -183l145 -1q34 -3 60.5 -27t26.5 -55q0 -36 -25.5 -61t-60.5 -25h-211v50h211q14 0 24 10.5t10 25.5q0 14 -10 24t-24 10h-211q3 14 11 43t13.5 57t12.5 80l6 52h56l-8 -49q-16 -97 -26 -134z" />
    <glyph glyph-name="uni0328" unicode="&#x328;" 
d="M-66 -57l-10 57h56l21 -106h-106q-14 0 -24 -10.5t-10 -24.5q0 -15 10 -25t24 -10h106v-51h-106q-37 0 -61 24.5t-24 61.5q0 31 24.5 55t61.5 29h38z" />
    <glyph glyph-name="uni060C" unicode="&#x60c;" horiz-adv-x="350" 
d="M128 57q22 154 69 309h54q-3 -19 -15 -76t-23 -116t-18 -114l-7 -52h-68z" />
    <glyph glyph-name="uni0615" unicode="&#x615;" 
d="M415 1113q82 0 82 -96v-79h-249v44h40v206h44v-120q43 45 83 45zM455 982v35q0 53 -44 53q-35 0 -79 -50v-38h123z" />
    <glyph glyph-name="uni061B" unicode="&#x61b;" horiz-adv-x="341" 
d="M153 438q23 160 68 309h55q-3 -19 -15 -76t-23 -116t-18 -114l-7 -52h-68zM173 -3q-20 0 -34.5 14.5t-15.5 36.5q0 20 15 34.5t35 14.5t35.5 -14.5t15.5 -34.5q0 -21 -15 -36t-36 -15z" />
    <glyph glyph-name="uni061C" unicode="&#x61c;" horiz-adv-x="819" 
 />
    <glyph glyph-name="uni061F" unicode="&#x61f;" horiz-adv-x="666" 
d="M315 281v55q0 53 -23.5 89t-85.5 79q-75 52 -107 99t-32 110q0 105 74.5 170.5t187.5 65.5q112 0 188 -71.5t76 -185.5h-77q0 81 -53.5 135t-133.5 54q-76 0 -127.5 -49t-51.5 -123q0 -45 27 -83t91 -83q67 -46 93.5 -90.5t26.5 -116.5v-55h-73zM351 -10
q-23 0 -39.5 16.5t-16.5 39.5t16.5 39t39.5 16t39 -16t16 -39t-16 -39.5t-39 -16.5z" />
    <glyph glyph-name="uni0621" unicode="&#x621;" horiz-adv-x="849" 
d="M389 87h351v-84h-631v84h161q-114 90 -114 261q0 141 75 223.5t196 82.5q116 0 184 -69.5t91 -218.5l-78 -11q-44 213 -195 213q-87 0 -140.5 -62.5t-52.5 -165.5q-1 -80 38 -149t115 -104z" />
    <glyph glyph-name="uni0622" unicode="&#x622;" horiz-adv-x="299" 
d="M-34 1094l-23 32l103 84q12 -27 49.5 -45t76.5 -18q30 0 72 14.5t63 30.5l12 -41q-23 -20 -68.5 -35.5t-78.5 -15.5q-74 0 -134 51zM184 0h-80v950h80v-950z" />
    <glyph glyph-name="uni0623" unicode="&#x623;" horiz-adv-x="299" 
d="M137 1099h125v-50h-240v50h50q-35 32 -35 90q0 53 28.5 82.5t76.5 29.5q100 0 115 -112h-47q-14 63 -67 63q-30 0 -43.5 -15.5t-13.5 -51.5q0 -61 51 -86zM104 0v950h80v-950h-80z" />
    <glyph glyph-name="uni0624" unicode="&#x624;" horiz-adv-x="703" 
d="M472 894v-50h-240v50h51q-36 33 -36 90q0 53 27.5 82.5t77.5 29.5q100 0 115 -112h-46q-14 63 -69 63q-29 0 -42.5 -15.5t-13.5 -51.5q0 -61 51 -86h125zM354 683q114 0 190 -76.5t76 -190.5v-479q0 -142 -107.5 -197t-328.5 -25v76q196 -20 275.5 16t79.5 145v49h-210
q-105 1 -180 79.5t-75 187.5v148q0 114 76 190.5t190 76.5h14zM539 416q0 81 -52 133.5t-133 52.5h-14q-82 0 -134 -52.5t-52 -133.5v-148q0 -76 52.5 -131t125.5 -55h207v334z" />
    <glyph glyph-name="uni0625" unicode="&#x625;" horiz-adv-x="299" 
d="M184 950v-950h-80v950h80zM142 -313h126v-50h-241v50h52q-37 32 -37 90q0 53 28.5 82.5t76.5 29.5q100 0 115 -112h-45q-14 63 -68 63q-30 0 -44 -15.5t-14 -51.5q0 -60 51 -86z" />
    <glyph glyph-name="uni0626" unicode="&#x626;" horiz-adv-x="1287" 
d="M997 680h192v-679h-80v597h-112q-79 0 -130 -50.5t-51 -128.5v-415q0 -160 -107 -266.5t-268 -106.5h-3q-160 0 -266 106t-106 267v284h80v-284q0 -129 81.5 -210.5t210.5 -81.5h3q129 0 212 81.5t83 210.5v415q0 112 74.5 186.5t186.5 74.5zM235 467v-51h-242v51h53
q-36 31 -36 90q0 53 27.5 82.5t77.5 29.5q99 0 114 -112h-46q-14 63 -68 63q-58 0 -58 -67q0 -60 51 -86h127z" />
    <glyph glyph-name="uni0627" unicode="&#x627;" horiz-adv-x="299" 
d="M184 0h-80v950h80v-950z" />
    <glyph glyph-name="uni0628" unicode="&#x628;" horiz-adv-x="1131" 
d="M55 505h80v-240q0 -81 51.5 -132.5t132.5 -51.5h533q54 0 83.5 32.5t29.5 83.5v499h81v-527q0 -73 -49 -121t-122 -48h-556q-114 0 -189 75.5t-75 189.5v240zM565 -255q-23 0 -39.5 16.5t-16.5 39.5t16.5 39.5t39.5 16.5q22 0 38.5 -16.5t16.5 -39.5t-16 -39.5t-39 -16.5
z" />
    <glyph glyph-name="uni0629" unicode="&#x629;" horiz-adv-x="704" 
d="M265 811q-23 0 -39.5 16.5t-16.5 39.5t16.5 39.5t39.5 16.5t39.5 -16.5t16.5 -39.5t-16.5 -39.5t-39.5 -16.5zM464 811q-23 0 -39.5 16.5t-16.5 39.5t16.5 39.5t39.5 16.5q22 0 38.5 -16.5t16.5 -39.5t-16.5 -39.5t-38.5 -16.5zM75 423q0 108 76.5 184.5t184.5 76.5h22
q109 0 184.5 -76t75.5 -185v-184q0 -98 -69.5 -168t-167.5 -70h-45q-109 0 -185 75.5t-76 184.5v162zM156 423v-161q0 -75 52.5 -127.5t127.5 -52.5h46q64 0 110 46t46 110v185q0 76 -52 128t-128 52h-22q-76 0 -128 -52t-52 -128z" />
    <glyph glyph-name="uni062A" unicode="&#x62a;" horiz-adv-x="1131" 
d="M438 691q-23 0 -39.5 16.5t-16.5 39.5q0 22 16.5 38t39.5 16t39 -16t16 -38q0 -23 -16 -39.5t-39 -16.5zM636 691q-23 0 -39.5 16.5t-16.5 39.5q0 22 16.5 38t39.5 16t39 -16t16 -38q0 -23 -16 -39.5t-39 -16.5zM55 505h80v-240q0 -81 51.5 -132.5t132.5 -51.5h533
q54 0 83.5 32.5t29.5 83.5v499h81v-527q0 -73 -49 -121t-122 -48h-556q-114 0 -189 75.5t-75 189.5v240z" />
    <glyph glyph-name="uni062B" unicode="&#x62b;" horiz-adv-x="1131" 
d="M539 838q-23 0 -39.5 16.5t-16.5 39.5t16.5 39.5t39.5 16.5q22 0 38.5 -16.5t16.5 -39.5t-16.5 -39.5t-38.5 -16.5zM446 695q-23 0 -39.5 16.5t-16.5 39.5t17 39.5t39 16.5t38.5 -16.5t16.5 -39.5t-16 -39.5t-39 -16.5zM635 695q-23 0 -39.5 16.5t-16.5 39.5t16.5 39.5
t39.5 16.5t39.5 -16.5t16.5 -39.5t-16.5 -39.5t-39.5 -16.5zM55 505h80v-240q0 -81 51.5 -132.5t132.5 -51.5h533q54 0 83.5 32.5t29.5 83.5v499h81v-527q0 -73 -49 -121t-122 -48h-556q-114 0 -189 75.5t-75 189.5v240z" />
    <glyph glyph-name="uni062C" unicode="&#x62c;" horiz-adv-x="1060" 
d="M964 82v-82h-612q-93 0 -149.5 -52t-56.5 -141q0 -71 44.5 -125t115 -79.5t162.5 -20.5t181 44v-77q-104 -48 -211 -50.5t-188 33t-132.5 108.5t-51.5 167q0 122 80 198t205 76h490q-12 5 -24 20t-25 42t-23 50t-27 64.5t-27 64.5q-57 133 -135 203t-165 76.5t-186 -32.5
v74q66 26 131 31.5t128.5 -12.5t120.5 -59t108 -111t89 -164q38 -97 55 -139t36 -68.5t29.5 -30t37.5 -8.5zM392 -187q0 23 16.5 39.5t39.5 16.5q22 0 38 -16.5t16 -39.5t-16 -39.5t-38 -16.5q-23 0 -39.5 16.5t-16.5 39.5z" />
    <glyph glyph-name="uni062D" unicode="&#x62d;" horiz-adv-x="1060" 
d="M352 0q-93 0 -149.5 -52t-56.5 -141q0 -71 44.5 -125t115 -79.5t162.5 -20.5t181 44v-77q-104 -48 -211 -50.5t-188 33t-132.5 108.5t-51.5 167q0 122 80 198t205 76h490q-12 5 -24 20t-25 42t-23 50t-27 64.5t-27 64.5q-57 133 -135 203t-165 76.5t-186 -32.5v74
q66 26 131 31.5t128.5 -12.5t120.5 -59t108 -111t89 -164q38 -97 55 -139t36 -68.5t29.5 -30t37.5 -8.5v-82h-612z" />
    <glyph glyph-name="uni062E" unicode="&#x62e;" horiz-adv-x="1060" 
d="M422 826q-22 0 -39 17t-17 39t17 39t39 17t38.5 -16.5t16.5 -39.5t-16.5 -39.5t-38.5 -16.5zM352 0q-93 0 -149.5 -52t-56.5 -141q0 -71 44.5 -125t115 -79.5t162.5 -20.5t181 44v-77q-104 -48 -211 -50.5t-188 33t-132.5 108.5t-51.5 167q0 122 80 198t205 76h490
q-12 5 -24 20t-25 42t-23 50t-27 64.5t-27 64.5q-57 133 -135 203t-165 76.5t-186 -32.5v74q66 26 131 31.5t128.5 -12.5t120.5 -59t108 -111t89 -164q38 -97 55 -139t36 -68.5t29.5 -30t37.5 -8.5v-82h-612z" />
    <glyph glyph-name="uni062F" unicode="&#x62f;" horiz-adv-x="694" 
d="M68 0v81h272q76 0 130 54t54 130v139q0 81 -58 139t-140 58h-136v80h136q115 0 197 -81t82 -196v-157q0 -103 -72 -175t-175 -72h-290z" />
    <glyph glyph-name="uni0630" unicode="&#x630;" horiz-adv-x="694" 
d="M332 826q-23 0 -39.5 16.5t-16.5 39.5q0 22 17 39t39 17q23 0 39.5 -16.5t16.5 -39.5t-16.5 -39.5t-39.5 -16.5zM68 0v81h272q76 0 130 54t54 130v139q0 81 -58 139t-140 58h-136v80h136q115 0 197 -81t82 -196v-157q0 -103 -72 -175t-175 -72h-290z" />
    <glyph glyph-name="uni0631" unicode="&#x631;" horiz-adv-x="406" 
d="M-34 -302v81h71q79 0 131 51.5t52 131.5v689h80v-689q0 -114 -74.5 -189t-188.5 -75h-71z" />
    <glyph glyph-name="uni0632" unicode="&#x632;" horiz-adv-x="406" 
d="M258 776q-23 0 -39.5 16t-16.5 39t17 39.5t39 16.5t38.5 -16.5t16.5 -39.5t-16 -39t-39 -16zM-34 -302v81h71q79 0 131 51.5t52 131.5v689h80v-689q0 -114 -74.5 -189t-188.5 -75h-71z" />
    <glyph glyph-name="uni0633" unicode="&#x633;" horiz-adv-x="1626" 
d="M1450 666h81v-452q0 -89 -63 -151.5t-152 -62.5q-126 0 -187 71q-57 -71 -146 -71h-167q-2 -155 -109.5 -262t-261.5 -107h-7q-156 0 -264 108.5t-108 264.5v284h80v-284q0 -129 81.5 -210.5t210.5 -81.5h3q129 0 212 81.5t83 210.5v542h80v-465h162q46 0 78 32.5
t32 79.5v353h81v-360q0 -49 38 -77t109 -28q56 0 95 39t39 94v452z" />
    <glyph glyph-name="uni0634" unicode="&#x634;" horiz-adv-x="1626" 
d="M1124 863q-23 0 -39.5 16.5t-16.5 39.5q0 22 16.5 38t39.5 16t39.5 -16t16.5 -38q0 -23 -16.5 -39.5t-39.5 -16.5zM1032 718q-23 0 -39.5 16.5t-16.5 39.5t16.5 39.5t39.5 16.5q22 0 38.5 -16.5t16.5 -39.5t-16.5 -39.5t-38.5 -16.5zM1221 718q-23 0 -39.5 17t-16.5 39
t16.5 39t39.5 17q22 0 38 -16.5t16 -39.5t-16 -39.5t-38 -16.5zM1450 666h81v-452q0 -89 -63 -151.5t-152 -62.5q-126 0 -187 71q-57 -71 -146 -71h-167q-2 -155 -109.5 -262t-261.5 -107h-7q-156 0 -264 108.5t-108 264.5v284h80v-284q0 -129 81.5 -210.5t210.5 -81.5h3
q129 0 212 81.5t83 210.5v542h80v-465h162q46 0 78 32.5t32 79.5v353h81v-360q0 -49 38 -77t109 -28q56 0 95 39t39 94v452z" />
    <glyph glyph-name="uni0635" unicode="&#x635;" horiz-adv-x="1608" 
d="M1210 662q152 0 229.5 -84t77.5 -263q0 -130 -92.5 -222.5t-223.5 -92.5h-386q-7 -162 -112 -265.5t-258 -103.5h-8q-156 0 -263.5 108t-107.5 265v284h80v-284q0 -129 81.5 -210.5t209.5 -81.5h4q127 0 211 83t84 209v587h80v-161q211 232 394 232zM1200 81
q99 0 169 69.5t70 168.5q0 140 -60.5 202t-172.5 62q-91 0 -191.5 -64t-198.5 -174v-264h384z" />
    <glyph glyph-name="uni0636" unicode="&#x636;" horiz-adv-x="1608" 
d="M1196 782q-22 0 -39 17t-17 39t17 39t39 17t38.5 -16.5t16.5 -39.5t-16.5 -39.5t-38.5 -16.5zM1210 662q152 0 229.5 -84t77.5 -263q0 -130 -92.5 -222.5t-223.5 -92.5h-386q-7 -162 -112 -265.5t-258 -103.5h-8q-156 0 -263.5 108t-107.5 265v284h80v-284
q0 -129 81.5 -210.5t209.5 -81.5h4q127 0 211 83t84 209v587h80v-161q211 232 394 232zM1200 81q99 0 169 69.5t70 168.5q0 140 -60.5 202t-172.5 62q-91 0 -191.5 -64t-198.5 -174v-264h384z" />
    <glyph glyph-name="uni0637" unicode="&#x637;" horiz-adv-x="1137" 
d="M713 661q153 0 230.5 -82.5t77.5 -261.5q0 -131 -92.5 -224t-223.5 -93h-639v87h158v863h86v-532q215 243 403 243zM700 81q101 0 171.5 69.5t70.5 170.5q0 139 -60 200t-173 61q-183 0 -399 -250v-251h390z" />
    <glyph glyph-name="uni0638" unicode="&#x638;" horiz-adv-x="1137" 
d="M713 661q153 0 230.5 -82.5t77.5 -261.5q0 -131 -92.5 -224t-223.5 -93h-639v87h158v863h86v-532q215 243 403 243zM715 781q-23 0 -39.5 16.5t-16.5 39.5t16.5 39.5t39.5 16.5t39.5 -16.5t16.5 -39.5t-16.5 -39.5t-39.5 -16.5zM700 81q101 0 171.5 69.5t70.5 170.5
q0 139 -60 200t-173 61q-183 0 -399 -250v-251h390z" />
    <glyph glyph-name="uni0639" unicode="&#x639;" horiz-adv-x="787" 
d="M351 0q-92 0 -148.5 -52t-56.5 -141q0 -71 44.5 -125t115 -79.5t162.5 -20.5t181 44v-77q-104 -48 -211 -50.5t-188 33t-132.5 108.5t-51.5 167q0 97 52 166.5t140 94.5q-127 75 -127 265q0 100 36 174.5t95 113t131.5 53t147.5 3t142 -45.5v-74q-61 28 -125.5 39.5
t-125.5 1.5t-108.5 -39t-76.5 -87.5t-29 -139.5q0 -73 19.5 -124t55.5 -77.5t78.5 -37.5t98.5 -11h222v-82h-341z" />
    <glyph glyph-name="uni063A" unicode="&#x63a;" horiz-adv-x="787" 
d="M415 840q-23 0 -39.5 16.5t-16.5 39.5t16.5 39.5t39.5 16.5q22 0 38.5 -16.5t16.5 -39.5t-16.5 -39.5t-38.5 -16.5zM351 0q-92 0 -148.5 -52t-56.5 -141q0 -71 44.5 -125t115 -79.5t162.5 -20.5t181 44v-77q-104 -48 -211 -50.5t-188 33t-132.5 108.5t-51.5 167
q0 97 52 166.5t140 94.5q-127 75 -127 265q0 100 31.5 175t83 114.5t117 56.5t134.5 10t135 -34v-75q-60 24 -119 31.5t-112.5 -5t-94 -44t-64.5 -90.5t-24 -140q0 -73 19.5 -124t55.5 -77.5t78.5 -37.5t98.5 -11h222v-82h-341z" />
    <glyph glyph-name="uni0640" unicode="&#x640;" horiz-adv-x="197" 
d="M-14 81h226v-81h-226v81z" />
    <glyph glyph-name="uni0641" unicode="&#x641;" horiz-adv-x="1178" 
d="M823 821q-20 0 -35.5 14.5t-16.5 34.5q-3 24 13.5 42.5t40.5 18.5q23 0 39.5 -16t16.5 -38q0 -25 -17.5 -41.5t-40.5 -14.5zM829 681q110 0 188 -78t78 -188v-131q0 -117 -83 -200.5t-201 -83.5h-489q-111 0 -188 77.5t-77 187.5v179h81v-179q0 -76 54 -130t130 -54h321
q-44 32 -70 81t-26 106v147q0 110 78.5 188t188.5 78h15zM1013 415q0 79 -53 132.5t-131 53.5h-15q-78 0 -132 -53.5t-54 -132.5v-147q0 -76 53 -131.5t125 -55.5h20q79 6 133 63.5t54 136.5v134z" />
    <glyph glyph-name="uni0642" unicode="&#x642;" horiz-adv-x="1052" 
d="M598 778q-22 0 -39 17t-17 39t17 39t39 17t38.5 -16.5t16.5 -39.5t-16.5 -39.5t-38.5 -16.5zM796 778q-22 0 -39 17t-17 39t17 39t39 17t38.5 -16.5t16.5 -39.5t-16.5 -39.5t-38.5 -16.5zM696 694q112 0 186.5 -74t74.5 -186v-375q0 -193 -125.5 -319t-318.5 -126h-4
q-191 0 -317 126t-126 319v155h81v-155q0 -159 102 -261t260 -102h4q148 0 247.5 90t113.5 234l-12 -5h-188q-112 0 -186 74.5t-74 186.5v158q0 112 74 186t186 74h22zM875 208h2v226q0 78 -51.5 128.5t-129.5 50.5h-22q-78 0 -129 -50.5t-51 -128.5v-158q0 -78 51 -128.5
t129 -50.5h201v111z" />
    <glyph glyph-name="uni0643" unicode="&#x643;" horiz-adv-x="1146" 
d="M965 950h81v-781q0 -73 -49 -121t-122 -48h-556q-114 0 -189 75.5t-75 189.5v240h80v-240q0 -81 51.5 -132.5t132.5 -51.5h533q54 0 83.5 32.5t29.5 83.5v753zM664 535v-46h-234v46h52q-37 32 -37 89q0 52 27 80.5t75 28.5q96 0 111 -108h-44q-14 62 -67 62
q-55 0 -55 -66q0 -65 51 -86h121z" />
    <glyph glyph-name="uni0644" unicode="&#x644;" horiz-adv-x="917" 
d="M66 295h80v-284q0 -129 81.5 -210.5t209.5 -81.5h4q129 0 212 81.5t83 210.5v939h80v-939q0 -160 -107 -266.5t-268 -106.5h-4q-160 0 -265.5 106t-105.5 267v284z" />
    <glyph glyph-name="uni0645" unicode="&#x645;" horiz-adv-x="894" 
d="M528 -29q-167 0 -252 101q-71 -2 -112 -43.5t-41 -107.5v-400h-82v400q0 94 58.5 158.5t150.5 72.5v255q0 119 79 197.5t197 78.5t196.5 -78.5t78.5 -197.5v-161q0 -127 -78.5 -201t-194.5 -74zM526 53q84 0 138 54.5t54 138.5v161q0 85 -53.5 138.5t-138.5 53.5
t-139 -53.5t-54 -138.5v-275q34 -42 78.5 -60.5t114.5 -18.5z" />
    <glyph glyph-name="uni0646" unicode="&#x646;" horiz-adv-x="917" 
d="M412 643q-23 0 -39.5 16.5t-16.5 39.5q0 22 16.5 38.5t39.5 16.5q22 0 38.5 -16t16.5 -39t-16 -39.5t-39 -16.5zM66 280h80v-285q0 -128 81.5 -209.5t209.5 -81.5h4q129 0 212 81.5t83 209.5v656h80v-656q0 -160 -107 -266t-268 -106h-4q-160 0 -265.5 106t-105.5 266
v285z" />
    <glyph glyph-name="uni0647" unicode="&#x647;" horiz-adv-x="704" 
d="M75 423q0 108 76.5 184.5t184.5 76.5h22q109 0 184.5 -76t75.5 -185v-184q0 -98 -69.5 -168t-167.5 -70h-45q-109 0 -185 75.5t-76 184.5v162zM156 423v-161q0 -75 52.5 -127.5t127.5 -52.5h46q64 0 110 46t46 110v185q0 76 -52 128t-128 52h-22q-76 0 -128 -52t-52 -128
z" />
    <glyph glyph-name="uni0648" unicode="&#x648;" horiz-adv-x="703" 
d="M354 683q114 0 190 -76.5t76 -190.5v-479q0 -142 -107.5 -197t-328.5 -25v76q196 -20 275.5 16t79.5 145v49h-210q-105 1 -180 79.5t-75 187.5v148q0 114 76 190.5t190 76.5h14zM539 416q0 81 -52 133.5t-133 52.5h-14q-82 0 -134 -52.5t-52 -133.5v-148q0 -76 52.5 -131
t125.5 -55h207v334z" />
    <glyph glyph-name="uni0649" unicode="&#x649;" horiz-adv-x="1287" 
d="M997 680h192v-679h-80v597h-112q-79 0 -130 -50.5t-51 -128.5v-415q0 -160 -107 -266.5t-268 -106.5h-3q-160 0 -266 106t-106 267v284h80v-284q0 -129 81.5 -210.5t210.5 -81.5h3q129 0 212 81.5t83 210.5v415q0 112 74.5 186.5t186.5 74.5z" />
    <glyph glyph-name="uni064A" unicode="&#x64a;" horiz-adv-x="1287" 
d="M997 680h192v-679h-80v597h-112q-79 0 -130 -50.5t-51 -128.5v-415q0 -160 -107 -266.5t-268 -106.5h-3q-160 0 -266 106t-106 267v284h80v-284q0 -129 81.5 -210.5t210.5 -81.5h3q129 0 212 81.5t83 210.5v415q0 112 74.5 186.5t186.5 74.5zM341 -449q23 0 39.5 -16.5
t16.5 -39.5t-16.5 -39.5t-39.5 -16.5t-39.5 16.5t-16.5 39.5t16.5 39.5t39.5 16.5zM539 -449q22 0 38.5 -16.5t16.5 -39.5t-16.5 -39.5t-38.5 -16.5q-23 0 -39.5 16.5t-16.5 39.5t16.5 39.5t39.5 16.5z" />
    <glyph glyph-name="uni064B" unicode="&#x64b;" 
d="M0 1148l229 81v-38l-229 -81v38zM0 1059l229 81v-38l-229 -81v38z" />
    <glyph glyph-name="uni064C" unicode="&#x64c;" 
d="M284 1062q0 -33 -20 -56t-50 -27l-161 -52v6h-1q0 2 0.5 6t0.5 6v24q-6 66 -58 43v34q41 18 63.5 -1.5t23.5 -66.5l65 20q-28 23 -28 64q0 34 24.5 59t58.5 25t58 -25t24 -59zM208 1013q18 2 29 16t11 35q0 19 -13.5 32t-32.5 13t-32.5 -13t-13.5 -32q0 -21 11.5 -35
t30.5 -16l8 3z" />
    <glyph glyph-name="uni064D" unicode="&#x64d;" 
d="M0 -194l229 81v-39l-229 -80v38zM0 -285l229 80v-38l-229 -81v39z" />
    <glyph glyph-name="uni064E" unicode="&#x64e;" 
d="M18 1114l228 81v-39l-228 -80v38z" />
    <glyph glyph-name="uni064F" unicode="&#x64f;" 
d="M221 1124q0 -32 -20.5 -56t-50.5 -28l-161 -50v41l94 28q-28 23 -28 65q0 34 24.5 58.5t58.5 24.5t58.5 -24.5t24.5 -58.5zM143 1075q41 5 41 50q0 19 -13 32t-33 13q-19 0 -32 -13t-13 -32q0 -45 41 -50l8 2z" />
    <glyph glyph-name="uni0650" unicode="&#x650;" 
d="M18 -485l218 73v-41l-218 -74v42z" />
    <glyph glyph-name="uni0651" unicode="&#x651;" 
d="M83 924q-36 0 -59.5 23t-23.5 67v36l40 9v-45q0 -49 43 -49q40 0 40 62v63l39 10v-69q0 -19 13 -29.5t30 -10.5q52 0 52 63v72l39 10v-82q0 -50 -24 -78t-64 -28q-35 0 -56 31q-8 -26 -27.5 -40.5t-41.5 -14.5z" />
    <glyph glyph-name="uni0652" unicode="&#x652;" 
d="M98 1024q-35 0 -60.5 25.5t-25.5 61.5t25.5 61t60.5 25q36 0 61 -25t25 -61t-25 -61.5t-61 -25.5zM98 1064q20 0 33.5 14t13.5 36q0 20 -13.5 33.5t-33.5 13.5t-33 -13.5t-13 -33.5q0 -22 13 -36t33 -14z" />
    <glyph glyph-name="uni0653" unicode="&#x653;" 
d="M23 1266l-23 32l102 84q12 -27 49.5 -45t77.5 -18q30 0 73 14.5t63 30.5l12 -41q-23 -20 -68.5 -35.5t-79.5 -15.5q-73 0 -133 51z" />
    <glyph glyph-name="uni0654" unicode="&#x654;" 
d="M105 950h126v-50h-241v50h52q-37 32 -37 90q0 53 28.5 82.5t77.5 29.5q99 0 114 -112h-46q-14 63 -67 63q-30 0 -43.5 -15.5t-13.5 -51.5q0 -62 50 -86z" />
    <glyph glyph-name="uni0655" unicode="&#x655;" 
d="M169 -220h123v-49h-240v49h52q-37 34 -37 90q0 54 28.5 84t76.5 30q100 0 115 -114h-45q-14 63 -69 63q-30 0 -43.5 -14.5t-13.5 -50.5q0 -63 53 -88z" />
    <glyph glyph-name="uni0656" unicode="&#x656;" 
 />
    <glyph glyph-name="uni0660" unicode="&#x660;" horiz-adv-x="434" 
d="M298 354l-73 -73l-71 73q64 64 70 69q44 -44 74 -69z" />
    <glyph glyph-name="uni0661" unicode="&#x661;" horiz-adv-x="314" 
d="M205 0h-81v877h81v-877z" />
    <glyph glyph-name="uni0662" unicode="&#x662;" horiz-adv-x="533" 
d="M520 878v-82h-146q-80 0 -131.5 -52t-51.5 -131v-613h-80v613q0 114 74.5 189.5t188.5 75.5h146z" />
    <glyph glyph-name="uni0663" unicode="&#x663;" horiz-adv-x="868" 
d="M702 877h68v-293q0 -59 -44 -108t-106 -49q-65 0 -100 18.5t-60 56.5q-22 -34 -59.5 -54.5t-82.5 -20.5h-108v-427h-82v877h82v-377h114q45 0 75 29.5t30 73.5v274h65v-274q0 -52 25 -77.5t93 -25.5q39 0 64.5 30t25.5 65v282z" />
    <glyph glyph-name="uni0664" unicode="&#x664;" horiz-adv-x="752" 
d="M153 246q0 -72 48 -117.5t123 -57.5t163 -1t170 43v-73q-101 -37 -201 -45.5t-181.5 12.5t-132.5 82.5t-51 156.5q0 69 42.5 128t117.5 86q-105 54 -105 172q0 67 39 120t103 84t136 47.5t147 17.5v-76q-86 -2 -165 -24t-133.5 -67.5t-54.5 -104.5q0 -75 60 -111.5
t155 -36.5h188v-69h-258q-97 0 -153.5 -48t-56.5 -118z" />
    <glyph glyph-name="uni0665" unicode="&#x665;" horiz-adv-x="772" 
d="M61 416q0 111 47.5 220t123.5 177.5t154 68.5q79 0 155.5 -68.5t124 -177.5t47.5 -220q0 -195 -98 -304t-231 -109q-62 0 -119 26t-103 76t-73.5 130.5t-27.5 180.5zM642 416q0 92 -38.5 184.5t-98.5 150t-119 57.5q-58 0 -118 -57.5t-98.5 -150t-38.5 -184.5
q0 -162 75 -252t178 -90q104 0 181 91t77 251z" />
    <glyph glyph-name="uni0666" unicode="&#x666;" horiz-adv-x="694" 
d="M453 11v812h-442v70h520v-882h-78z" />
    <glyph glyph-name="uni0667" unicode="&#x667;" horiz-adv-x="820" 
d="M367 -1l-282 887h77l252 -796h1l251 796h77l-283 -887h-93z" />
    <glyph glyph-name="uni0668" unicode="&#x668;" horiz-adv-x="824" 
d="M366 890h94l283 -890h-77l-251 799h-1l-252 -799h-77z" />
    <glyph glyph-name="uni0669" unicode="&#x669;" horiz-adv-x="686" 
d="M313 894q113 0 186 -75.5t73 -190.5v-628h-80v295h-200q-108 1 -183 77t-75 191v72q0 110 75 184.5t189 74.5h15zM294 375h198v253q0 82 -50.5 135t-130.5 53h-13q-77 0 -129.5 -52t-52.5 -132v-72q0 -75 52.5 -130t125.5 -55z" />
    <glyph glyph-name="uni066A" unicode="&#x66a;" horiz-adv-x="846" 
d="M126 0l488 928h96l-487 -928h-97zM179 741l-82 81l80 82l82 -82zM617 75l-83 81l82 80l82 -80z" />
    <glyph glyph-name="uni066B" unicode="&#x66b;" horiz-adv-x="350" 
d="M224 75q-11 -74 -31.5 -167t-36.5 -141h-55q3 15 15 74t23 117.5t18 113.5l8 52h67z" />
    <glyph glyph-name="uni066C" unicode="&#x66c;" horiz-adv-x="350" 
d="M224 75q-11 -74 -31.5 -167t-36.5 -141h-55q3 15 15 74t23 117.5t18 113.5l8 52h67z" />
    <glyph glyph-name="uni066D" unicode="&#x66d;" horiz-adv-x="537" 
d="M455 642l-25 -45l-130 90l-8 -168h-46l-7 168l-131 -90l-25 45l125 78l-125 77l25 44l138 -89v167h46v-167l138 89l25 -44l-123 -77z" />
    <glyph glyph-name="uni066E" unicode="&#x66e;" horiz-adv-x="1131" 
d="M55 505h80v-240q0 -81 51.5 -132.5t132.5 -51.5h533q54 0 83.5 32.5t29.5 83.5v499h81v-527q0 -73 -49 -121t-122 -48h-556q-114 0 -189 75.5t-75 189.5v240z" />
    <glyph glyph-name="uni066F" unicode="&#x66f;" horiz-adv-x="1052" 
d="M696 694q112 0 186.5 -74t74.5 -186v-375q0 -193 -125.5 -319t-318.5 -126h-4q-191 0 -317 126t-126 319v155h81v-155q0 -159 102 -261t260 -102h4q148 0 247.5 90t113.5 234l-12 -5h-188q-112 0 -186 74.5t-74 186.5v158q0 112 74 186t186 74h22zM875 208h2v226
q0 78 -51.5 128.5t-129.5 50.5h-22q-78 0 -129 -50.5t-51 -128.5v-158q0 -78 51 -128.5t129 -50.5h201v111z" />
    <glyph glyph-name="uni0670" unicode="&#x670;" 
 />
    <glyph glyph-name="uni0679" unicode="&#x679;" horiz-adv-x="1131" 
d="M412 737v45h40v205h44v-119q43 45 82 45q83 0 83 -97v-79h-249zM575 870q-35 0 -79 -51v-37h121v34q0 54 -42 54zM965 696h81v-527q0 -73 -49 -121t-122 -48h-556q-114 0 -189 75.5t-75 189.5v240h80v-240q0 -81 51.5 -132.5t132.5 -51.5h533q54 0 83.5 32.5t29.5 83.5
v499z" />
    <glyph glyph-name="uni067E" unicode="&#x67e;" horiz-adv-x="1131" 
d="M55 505h80v-240q0 -81 51.5 -132.5t132.5 -51.5h533q54 0 83.5 32.5t29.5 83.5v499h81v-527q0 -73 -49 -121t-122 -48h-556q-114 0 -189 75.5t-75 189.5v240zM512 -268q-22 0 -39 17t-17 39t17 39t39 17t38.5 -16.5t16.5 -39.5t-16.5 -39.5t-38.5 -16.5zM694 -268
q-23 0 -39.5 16.5t-16.5 39.5t16.5 39.5t39.5 16.5q22 0 38 -16.5t16 -39.5t-16 -39.5t-38 -16.5zM599 -411q-23 0 -39.5 16.5t-16.5 39.5t16.5 39.5t39.5 16.5q22 0 38.5 -16.5t16.5 -39.5t-16 -39.5t-39 -16.5z" />
    <glyph glyph-name="uni0686" unicode="&#x686;" horiz-adv-x="980" 
d="M725 328q28 -72 48 -116.5t33 -70t28 -37.5t23 -15t28 -7v-82h-533q-93 0 -149.5 -52t-56.5 -141q0 -71 44.5 -125t115 -79.5t162.5 -20.5t181 44v-77q-104 -48 -211 -50.5t-188 33t-132.5 108.5t-51.5 167q0 122 79.5 198t205.5 76h400q-11 7 -24.5 32t-24.5 51.5
t-31 74.5t-33 79q-59 133 -137 204t-165.5 78.5t-186.5 -31.5v74q66 26 130.5 31.5t128 -12.5t120.5 -59t108 -111t89 -164zM563 -161q0 -17 -11.5 -28.5t-28.5 -11.5t-29 11.5t-12 28.5q0 16 12 27.5t29 11.5t28.5 -11.5t11.5 -27.5zM659 -161q0 -17 -11.5 -28.5
t-27.5 -11.5q-17 0 -29 12t-12 28t12 27.5t29 11.5q16 0 27.5 -11t11.5 -28zM569 -281q-16 0 -28.5 13t-12.5 28q0 16 12 28.5t29 12.5t29 -12t12 -29q0 -16 -12 -28.5t-29 -12.5z" />
    <glyph glyph-name="uni0688" unicode="&#x688;" horiz-adv-x="694" 
d="M210 874v44h40v204h44v-118q43 45 83 45q82 0 82 -97v-78h-249zM373 1006q-35 0 -79 -50v-38h122v34q0 54 -43 54zM326 681q115 0 197 -81t82 -196v-157q0 -103 -72 -175t-175 -72h-290v81h272q76 0 130 54t54 130v139q0 81 -58 139t-140 58h-136v80h136z" />
    <glyph glyph-name="uni0691" unicode="&#x691;" horiz-adv-x="406" 
d="M302 998q82 0 82 -97v-78h-249v44h41v205h42v-119q43 45 84 45zM341 867v34q0 55 -42 55q-35 0 -81 -51v-38h123zM220 -38v689h80v-689q0 -114 -74.5 -189t-188.5 -75h-71v81h71q79 0 131 51.5t52 131.5z" />
    <glyph glyph-name="uni0698" unicode="&#x698;" horiz-adv-x="460" 
d="M270 924q-23 0 -39.5 16.5t-16.5 39.5t16.5 39.5t39.5 16.5q22 0 38.5 -16.5t16.5 -39.5t-16 -39.5t-39 -16.5zM177 780q-22 0 -38.5 16.5t-16.5 39.5t16.5 39.5t38.5 16.5t38.5 -16.5t16.5 -39.5t-16.5 -39.5t-38.5 -16.5zM366 780q-22 0 -39 17t-17 39t17 39t39 17
q23 0 39.5 -16.5t16.5 -39.5t-16.5 -39.5t-39.5 -16.5zM-20 -302v81h69q80 0 132 52t52 131v689h81v-689q0 -114 -75.5 -189t-189.5 -75h-69z" />
    <glyph glyph-name="uni06A1" unicode="&#x6a1;" horiz-adv-x="1178" 
d="M829 681q110 0 188 -78t78 -188v-131q0 -117 -83 -200.5t-201 -83.5h-489q-111 0 -188 77.5t-77 187.5v179h81v-179q0 -76 54 -130t130 -54h321q-44 32 -70 81t-26 106v147q0 110 78.5 188t188.5 78h15zM1013 415q0 79 -53 132.5t-131 53.5h-15q-78 0 -132 -53.5
t-54 -132.5v-147q0 -76 53 -131.5t125 -55.5h20q79 6 133 63.5t54 136.5v134z" />
    <glyph glyph-name="uni06A4" unicode="&#x6a4;" horiz-adv-x="1178" 
d="M823 968q-23 0 -39.5 16.5t-16.5 39.5t16.5 39.5t39.5 16.5q22 0 38.5 -16.5t16.5 -39.5t-16 -39.5t-39 -16.5zM730 823q-22 0 -39 16.5t-17 39.5t17 39.5t39 16.5t38.5 -16.5t16.5 -39.5t-16.5 -39.5t-38.5 -16.5zM919 823q-23 0 -39.5 16.5t-16.5 39.5t16.5 39.5
t39.5 16.5t39.5 -16.5t16.5 -39.5t-16.5 -39.5t-39.5 -16.5zM829 681q110 0 188 -78t78 -188v-131q0 -117 -83 -200.5t-201 -83.5h-489q-111 0 -188 77.5t-77 187.5v179h81v-179q0 -76 54 -130t130 -54h321q-44 32 -70 81t-26 106v147q0 110 78.5 188t188.5 78h15zM1013 415
q0 79 -53 132.5t-131 53.5h-15q-78 0 -132 -53.5t-54 -132.5v-147q0 -76 53 -131.5t125 -55.5h20q79 6 133 63.5t54 136.5v134z" />
    <glyph glyph-name="uni06A9" unicode="&#x6a9;" horiz-adv-x="1142" 
d="M771 526q125 0 202 -77.5t77 -194.5q0 -104 -73 -179t-176 -75h-484q-113 2 -187 77.5t-74 187.5v240h81v-240q0 -81 51.5 -132.5t132.5 -51.5h471q73 0 124.5 52t51.5 124q0 81 -56.5 134.5t-140.5 53.5h-387l-19 23l243 482l65 -30l-198 -394h296z" />
    <glyph glyph-name="uni06AF" unicode="&#x6af;" horiz-adv-x="1155" 
d="M507 952h49l-246 -485h-49zM784 526q125 0 201.5 -77t76.5 -195q0 -104 -72.5 -179t-175.5 -75h-497q-113 2 -187 77.5t-74 187.5v240h81v-240q0 -81 51.5 -132.5t132.5 -51.5h483q73 0 124.5 52t51.5 124q0 81 -56 134.5t-140 53.5h-388l-19 23l243 482l65 -30
l-198 -394h297z" />
    <glyph glyph-name="uni06BA" unicode="&#x6ba;" horiz-adv-x="917" 
d="M66 280h80v-285q0 -128 81.5 -209.5t209.5 -81.5h4q129 0 212 81.5t83 209.5v656h80v-656q0 -160 -107 -266t-268 -106h-4q-160 0 -265.5 106t-105.5 266v285z" />
    <glyph glyph-name="uni06BE" unicode="&#x6be;" horiz-adv-x="1021" 
d="M255 632q129 41 255 45t220 -24.5t152.5 -87t59.5 -135.5v-175q0 -106 -74.5 -180.5t-180.5 -74.5h-702l-36 14v54l36 13h209q-38 27 -61.5 71t-23.5 94v128q2 77 40.5 133.5t105.5 78.5v46zM677 81q76 0 130.5 54t54.5 130l-2 165q0 70 -74 116.5t-183 53.5t-236 -20
q102 5 167 -50t65 -161v-288h78zM528 81v289q0 74 -44.5 118t-124.5 44q-88 0 -132.5 -42.5t-44.5 -119.5v-122q0 -66 47 -112.5t118 -54.5h181z" />
    <glyph glyph-name="uni06C1" unicode="&#x6c1;" horiz-adv-x="704" 
d="M75 423q0 108 76.5 184.5t184.5 76.5h22q109 0 184.5 -76t75.5 -185v-184q0 -98 -69.5 -168t-167.5 -70h-45q-109 0 -185 75.5t-76 184.5v162zM156 423v-161q0 -75 52.5 -127.5t127.5 -52.5h46q64 0 110 46t46 110v185q0 76 -52 128t-128 52h-22q-76 0 -128 -52t-52 -128
z" />
    <glyph glyph-name="uni06C2" unicode="&#x6c2;" horiz-adv-x="704" 
d="M477 875v-49h-242v49h53q-37 32 -37 90q0 54 27.5 84t77.5 30q100 0 115 -114h-46q-14 63 -69 63q-29 0 -43 -15t-14 -50q0 -63 53 -88h125zM358 684q109 0 184.5 -76t75.5 -185v-184q0 -98 -69.5 -168t-167.5 -70h-45q-109 0 -185 75.5t-76 184.5v162q0 108 76.5 184.5
t184.5 76.5h22zM538 238v185q0 76 -52 128t-128 52h-22q-76 0 -128 -52t-52 -128v-161q0 -75 52.5 -127.5t127.5 -52.5h46q64 0 110 46t46 110z" />
    <glyph glyph-name="uni06C3" unicode="&#x6c3;" horiz-adv-x="704" 
d="M265 811q-23 0 -39.5 16.5t-16.5 39.5t16.5 39.5t39.5 16.5q22 0 38 -16.5t16 -39.5t-16 -39.5t-38 -16.5zM463 811q-23 0 -39.5 16.5t-16.5 39.5t16.5 39.5t39.5 16.5q22 0 38 -16.5t16 -39.5t-16 -39.5t-38 -16.5zM75 423q0 108 76.5 184.5t184.5 76.5h22
q109 0 184.5 -76t75.5 -185v-184q0 -98 -69.5 -168t-167.5 -70h-45q-109 0 -185 75.5t-76 184.5v162zM156 423v-161q0 -75 52.5 -127.5t127.5 -52.5h46q64 0 110 46t46 110v185q0 76 -52 128t-128 52h-22q-76 0 -128 -52t-52 -128z" />
    <glyph glyph-name="uni06CC" unicode="&#x6cc;" horiz-adv-x="1287" 
d="M997 680h192v-679h-80v597h-112q-79 0 -130 -50.5t-51 -128.5v-415q0 -160 -107 -266.5t-268 -106.5h-3q-160 0 -266 106t-106 267v284h80v-284q0 -129 81.5 -210.5t210.5 -81.5h3q129 0 212 81.5t83 210.5v415q0 112 74.5 186.5t186.5 74.5z" />
    <glyph glyph-name="uni06D2" unicode="&#x6d2;" horiz-adv-x="940" 
d="M193 -239h737v-80h-818v483q0 112 74.5 185.5t186.5 73.5h192v-422h-80v342h-112q-79 0 -129.5 -50.5t-50.5 -128.5v-403z" />
    <glyph glyph-name="uni06D3" unicode="&#x6d3;" horiz-adv-x="940" 
d="M517 610v-49h-240v49h52q-37 34 -37 90q0 53 28.5 83.5t76.5 30.5q100 0 115 -114h-45q-14 63 -68 63q-30 0 -44 -15.5t-14 -51.5q0 -59 52 -86h124zM193 -239h737v-80h-818v483q0 112 74.5 185.5t186.5 73.5h192v-422h-80v342h-112q-79 0 -129.5 -50.5t-50.5 -128.5
v-403z" />
    <glyph glyph-name="uni06D4" unicode="&#x6d4;" horiz-adv-x="348" 
d="M173 -3q-20 0 -34.5 14.5t-14.5 36.5q-1 20 14 34.5t35 14.5t35.5 -14.5t15.5 -34.5q0 -21 -15 -36t-36 -15z" />
    <glyph glyph-name="uni06F0" unicode="&#x6f0;" horiz-adv-x="434" 
d="M298 354l-73 -73l-71 73q64 64 70 69q44 -44 74 -69z" />
    <glyph glyph-name="uni06F1" unicode="&#x6f1;" horiz-adv-x="314" 
d="M205 0h-81v877h81v-877z" />
    <glyph glyph-name="uni06F2" unicode="&#x6f2;" horiz-adv-x="533" 
d="M520 878v-82h-146q-80 0 -131.5 -52t-51.5 -131v-613h-80v613q0 114 74.5 189.5t188.5 75.5h146z" />
    <glyph glyph-name="uni06F3" unicode="&#x6f3;" horiz-adv-x="868" 
d="M702 877h68v-293q0 -59 -44 -108t-106 -49q-65 0 -100 18.5t-60 56.5q-22 -34 -59.5 -54.5t-82.5 -20.5h-108v-427h-82v877h82v-377h114q45 0 75 29.5t30 73.5v274h65v-274q0 -52 25 -77.5t93 -25.5q39 0 64.5 30t25.5 65v282z" />
    <glyph glyph-name="uni06F4" unicode="&#x6f4;" horiz-adv-x="886" 
d="M788 481v-74h-578v-407h-82v877h82v-396h115q-74 55 -74 153q0 67 39 120t103 83.5t136.5 46.5t147.5 18v-76q-86 -2 -164.5 -24t-133 -67.5t-54.5 -105.5q0 -75 59.5 -111.5t153.5 -36.5h250z" />
    <glyph glyph-name="uni06F5" unicode="&#x6f5;" horiz-adv-x="823" 
d="M276 29q-133 0 -187 137q-51 130 -13.5 315.5t138.5 299.5q90 102 201 102q140 0 240 -151q89 -136 105 -320q17 -185 -52 -293q-58 -90 -162 -90q-97 0 -138 94q-39 -94 -132 -94zM276 94q51 0 77 50t25 132h58q0 -79 28.5 -130.5t81.5 -51.5q101 0 136.5 121t-5.5 289
q-42 170 -133 257q-61 57 -129 57q-107 0 -191 -138q-78 -128 -95 -293q-17 -168 47 -246q38 -47 100 -47z" />
    <glyph glyph-name="uni06F6" unicode="&#x6f6;" horiz-adv-x="802" 
d="M360 175q-83 -21 -133 -68.5t-50 -125.5q0 -99 82 -158l-38 -69q-119 86 -119 227q0 95 55.5 158t148.5 89q-141 61 -141 257q0 96 31 167t81 109t114.5 54t131.5 8.5t131 -32.5v-66q-75 29 -146 31.5t-130 -22t-95 -89.5t-36 -163q0 -65 16 -110.5t46 -70t65.5 -35
t82.5 -11.5l256 41v-65z" />
    <glyph glyph-name="uni06F7" unicode="&#x6f7;" horiz-adv-x="820" 
d="M366 -1l-281 887h77l252 -796h1l251 796h77l-283 -887h-94z" />
    <glyph glyph-name="uni06F8" unicode="&#x6f8;" horiz-adv-x="824" 
d="M366 890h94l283 -890h-77l-251 799h-1l-252 -799h-77z" />
    <glyph glyph-name="uni06F9" unicode="&#x6f9;" horiz-adv-x="686" 
d="M313 894q113 0 186 -75.5t73 -190.5v-628h-80v295h-200q-108 1 -183 77t-75 191v72q0 110 75 184.5t189 74.5h15zM294 375h198v253q0 82 -50.5 135t-130.5 53h-13q-77 0 -129.5 -52t-52.5 -132v-72q0 -75 52.5 -130t125.5 -55z" />
    <glyph glyph-name="Wgrave" unicode="&#x1e80;" horiz-adv-x="1254" 
d="M590 1066q-4 19 -22 91.5t-23 108.5l-14 71h63l12 -60q4 -33 20.5 -104t23.5 -107h-60zM1128 934h89l-264 -946h-102l-223 800l-224 -800h-102l-264 946h93l153 -548l72 -269l73 269l153 548h95l154 -548l73 -269l71 269z" />
    <glyph glyph-name="wgrave" unicode="&#x1e81;" horiz-adv-x="1064" 
d="M497 945q-4 17 -22 90.5t-23 110.5l-14 69h63l12 -60q4 -33 20.5 -103.5t23.5 -106.5h-60zM948 688h90l-231 -700h-97l-179 577l-179 -577h-93l-232 700h90l192 -613l181 613h86l180 -610z" />
    <glyph glyph-name="Wacute" unicode="&#x1e82;" horiz-adv-x="1254" 
d="M707 1256q-6 -37 -23.5 -109t-21.5 -92h-60q7 38 23.5 108t20.5 103l12 60h62zM1128 934h89l-264 -946h-102l-223 800l-224 -800h-102l-264 946h93l153 -548l72 -269l73 269l153 548h95l154 -548l73 -269l71 269z" />
    <glyph glyph-name="wacute" unicode="&#x1e83;" horiz-adv-x="1064" 
d="M591 1135q-5 -33 -22 -100.5t-23 -99.5h-60q6 31 22 104t20 107l13 60h62zM948 688h90l-231 -700h-97l-179 577l-179 -577h-93l-232 700h90l192 -613l181 613h86l180 -610z" />
    <glyph glyph-name="Wdieresis" unicode="&#x1e84;" horiz-adv-x="1254" 
d="M535 1031q-19 0 -32 13t-13 32t13 32t32 13t32 -13t13 -32t-13 -32t-32 -13zM702 1031q-19 0 -32 13t-13 32t13 32t32 13t32 -13t13 -32t-13 -32t-32 -13zM1128 934h89l-264 -946h-102l-223 800l-224 -800h-102l-264 946h93l153 -548l72 -269l73 269l153 548h95l154 -548
l73 -269l71 269z" />
    <glyph glyph-name="wdieresis" unicode="&#x1e85;" horiz-adv-x="1064" 
d="M442 909q-19 0 -32 13t-13 32q0 20 13 33.5t32 13.5t32 -13.5t13 -33.5q0 -19 -13 -32t-32 -13zM609 909q-19 0 -32 13t-13 32q0 20 13 33.5t32 13.5t32 -13.5t13 -33.5q0 -19 -13 -32t-32 -13zM948 688h90l-231 -700h-97l-179 577l-179 -577h-93l-232 700h90l192 -613
l181 613h86l180 -610z" />
    <glyph glyph-name="uni1E9E" unicode="&#x1e9e;" horiz-adv-x="831" 
d="M193 0h-91v934h366q125 0 197 -64t72 -176q0 -83 -39 -139.5t-110 -79.5q85 -23 132 -83t47 -146q0 -117 -73 -183t-201 -68h-93v76h90q91 1 140 47.5t49 134.5q0 83 -50.5 129.5t-143.5 51.5h-26v77h26q166 11 166 173q0 83 -49 128t-139 45h-272z" />
    <glyph glyph-name="Ygrave" unicode="&#x1ef2;" horiz-adv-x="813" 
d="M374 1066q-4 19 -22 91.5t-23 108.5l-14 71h63l12 -60q4 -33 20.5 -104t23.5 -107h-60zM685 934h92l-326 -602v-337h-88v337l-326 602h95l145 -273l133 -239l131 239z" />
    <glyph glyph-name="ygrave" unicode="&#x1ef3;" horiz-adv-x="688" 
d="M328 945q-4 17 -22 90.5t-23 110.5l-14 69h63l12 -60q4 -33 20.5 -103.5t23.5 -106.5h-60zM571 688h88l-360 -939h-79l86 229l-279 710h93l224 -609v-4z" />
    <glyph glyph-name="quoteleft" unicode="&#x2018;" horiz-adv-x="277" 
d="M41 788q24 167 68 308h55q-3 -15 -15 -73.5t-23 -117t-18 -113.5l-7 -52h-68z" />
    <glyph glyph-name="quoteright" unicode="&#x2019;" horiz-adv-x="311" 
d="M224 954q-26 -182 -68 -308h-55q3 19 15 76t23 116t18 114l8 52h67z" />
    <glyph glyph-name="quotesinglbase" unicode="&#x201a;" horiz-adv-x="350" 
d="M224 75q-11 -74 -31.5 -167t-36.5 -141h-55q3 15 15 74t23 117.5t18 113.5l8 52h67z" />
    <glyph glyph-name="quotedblleft" unicode="&#x201c;" horiz-adv-x="543" 
d="M86 788q24 167 68 308h55q-3 -15 -15 -73.5t-23 -117t-18 -113.5l-7 -52h-68zM307 788q24 167 68 308h55q-3 -15 -15 -73.5t-23 -117t-18 -113.5l-7 -52h-68z" />
    <glyph glyph-name="quotedblright" unicode="&#x201d;" horiz-adv-x="533" 
d="M224 954q-26 -182 -68 -308h-55q3 19 15 76t23 116t18 114l8 52h67zM446 954q-29 -187 -69 -308h-55q4 21 16 76.5t23.5 115.5t18.5 114l6 52h67z" />
    <glyph glyph-name="quotedblbase" unicode="&#x201e;" horiz-adv-x="499" 
d="M347 124l-8 -49q-10 -73 -31 -166.5t-38 -141.5h-86q3 15 15 74t23 117.5t18 113.5l7 52h100z" />
    <glyph glyph-name="dagger" unicode="&#x2020;" horiz-adv-x="387" 
d="M199 931v-487h-82v487h-101l17 66h84v172l82 24v-196h163l-18 -66h-145z" />
    <glyph glyph-name="daggerdbl" unicode="&#x2021;" horiz-adv-x="387" 
d="M199 931v-127h160v-68h-160v-294h-82v294h-101v68h101v127h-101l17 66h84v172l82 24v-196h163l-18 -66h-145z" />
    <glyph glyph-name="bullet" unicode="&#x2022;" horiz-adv-x="413" 
d="M206 -51q-41 0 -69 28.5t-29 70.5q0 41 28.5 69.5t69.5 28.5t70 -28.5t28 -69.5q0 -42 -28.5 -70.5t-69.5 -28.5z" />
    <glyph glyph-name="perthousand" unicode="&#x2030;" horiz-adv-x="1835" 
d="M337 389q-104 0 -160.5 82.5t-56.5 227.5q0 142 56.5 222.5t160.5 80.5q105 0 161 -80.5t56 -222.5q0 -145 -56 -227.5t-161 -82.5zM337 451q79 0 115.5 70.5t36.5 177.5q0 106 -36.5 174t-115.5 68t-115 -68t-36 -174q0 -69 13.5 -122t48.5 -89.5t89 -36.5zM728 926h82
l-269 -1078h-81zM982 -132q-105 0 -160.5 81.5t-55.5 227.5q0 142 56 223t160 81q105 0 161.5 -81t56.5 -223q0 -146 -56.5 -227.5t-161.5 -81.5zM1509 -132q-105 0 -161 81.5t-56 227.5q0 142 56.5 223t160.5 81q105 0 161 -81t56 -223q0 -146 -56 -227.5t-161 -81.5z
M982 -71q80 0 116.5 70t36.5 178q0 106 -36.5 174t-116.5 68q-79 0 -115 -68t-36 -174q0 -69 13.5 -122t48.5 -89.5t89 -36.5zM1509 -71q54 0 89 36.5t48.5 89.5t13.5 122q0 106 -36 174t-115 68t-115.5 -68t-36.5 -174q0 -107 36.5 -177.5t115.5 -70.5z" />
    <glyph glyph-name="guilsinglleft" unicode="&#x2039;" horiz-adv-x="296" 
d="M198 584h49l-161 -249l161 -248l-49 -1l-169 249z" />
    <glyph glyph-name="guilsinglright" unicode="&#x203a;" horiz-adv-x="374" 
d="M177 117h-49l160 250l-160 247h49l170 -247z" />
    <glyph glyph-name="fraction" unicode="&#x2044;" horiz-adv-x="726" 
d="M124 -152h-80l555 1078h82z" />
    <glyph glyph-name="Euro" unicode="&#x20ac;" horiz-adv-x="856" 
d="M486 871q-133 0 -208.5 -80.5t-90.5 -238.5h247v-62h-257v-26q0 -16 2 -46h255v-62h-241q38 -299 293 -299q120 0 300 59v-72q-159 -63 -307 -63q-337 0 -382 375h-193v62h186q-1 15 -1 46v26h-185v62h190q17 193 113.5 294.5t271.5 101.5q148 0 307 -63v-73
q-180 59 -300 59z" />
    <glyph glyph-name="trademark" unicode="&#x2122;" horiz-adv-x="1840" 
d="M51 857v77h637v-77h-274v-862h-89v862h-274zM1633 934h105v-939h-89l2 794l-333 -636h-63l-333 636l2 -794h-83v939h105l200 -387l144 -275l145 275z" />
    <glyph glyph-name="partialdiff" unicode="&#x2202;" horiz-adv-x="797" 
d="M321 948q182 0 285 -134.5t103 -399.5q0 -69 -8.5 -129t-31 -117.5t-58 -97.5t-92 -64.5t-130.5 -24.5q-132 0 -216 89.5t-84 232.5q0 154 78 239t214 85q68 0 131 -35t109 -99q-4 46 -11.5 88t-28.5 98.5t-51.5 97t-85.5 69.5t-125 29q-92 0 -196 -33l-7 67
q43 14 60.5 19.5t59 12.5t85.5 7zM390 55q57 0 99 19.5t66.5 51t39.5 79.5t20 97.5t5 112.5q-42 64 -101 101.5t-120 37.5q-53 0 -93.5 -16t-65 -41t-39.5 -60t-20.5 -68t-5.5 -69q0 -109 60 -177t155 -68z" />
    <glyph glyph-name="emptyset" unicode="&#x2205;" horiz-adv-x="940" 
d="M614 924q118 -42 178 -158t60 -296q0 -235 -96 -362t-285 -127q-45 0 -91 8l-22 -87h-60l26 103q-117 44 -176 163t-59 302q0 229 96 353.5t286 124.5q38 0 87 -9l28 111h60zM177 470q0 -305 167 -385l195 779q-39 7 -68 7q-145 0 -219.5 -101.5t-74.5 -299.5zM471 57
q82 0 141 34t91 94.5t46 130.5t14 154q0 300 -168 377l-196 -781q40 -9 72 -9z" />
    <glyph glyph-name="minus" unicode="&#x2212;" horiz-adv-x="729" 
d="M623 340h-515v67h515v-67z" />
    <glyph glyph-name="approxequal" unicode="&#x2248;" horiz-adv-x="1112" 
d="M162 366l-53 76l243 196q27 -63 116.5 -105.5t184.5 -42.5q71 0 172 35t148 73l31 -91q-54 -48 -163 -85t-188 -37q-179 0 -318 120zM162 53l-53 75l243 196q27 -62 116.5 -105t184.5 -43q71 0 172 35t148 73l31 -90q-54 -48 -163 -85.5t-188 -37.5q-175 0 -318 120z" />
    <glyph glyph-name="notequal" unicode="&#x2260;" horiz-adv-x="737" 
d="M624 340h-198l-44 -143h242v-67h-261l-63 -212h-80l63 212h-174v67h193l43 143h-236v67h256l58 198h81l-59 -198h179v-67z" />
    <glyph glyph-name="lessequal" unicode="&#x2264;" horiz-adv-x="849" 
d="M696 191l-558 320v77l558 320v-85l-468 -271v-6l468 -270v-85zM157 41v67h548v-67h-548z" />
    <glyph glyph-name="greaterequal" unicode="&#x2265;" horiz-adv-x="849" 
d="M146 191v85l468 270v6l-468 271v85l559 -320v-77zM684 41h-546v67h546v-67z" />
    <glyph glyph-name="uniFD3E" unicode="&#xfd3e;" horiz-adv-x="449" 
d="M145 373q0 310 147 583h81q-145 -270 -145 -583q0 -307 145 -583h-81q-147 274 -147 583z" />
    <glyph glyph-name="uniFD3F" unicode="&#xfd3f;" horiz-adv-x="757" 
d="M304 373q0 -310 -147 -583h-81q145 270 145 583q0 150 -38 301.5t-107 281.5h81q147 -274 147 -583z" />
    <glyph glyph-name="N.001" horiz-adv-x="899" 
d="M715 939h82v-939h-84l-530 782l1 -782h-82v939h81l534 -789z" />
    <glyph glyph-name="i.loclTRK" horiz-adv-x="259" 
d="M130 776q-22 0 -37 15t-15 35t15 35.5t37 15.5q20 0 35 -15.5t15 -35.5t-15 -35t-35 -15zM171 681v-681h-82v681h82z" />
    <glyph glyph-name="uni06F4.urdu" horiz-adv-x="866" 
d="M788 481v-74h-578v-407h-82v877h82v-396h115q-74 55 -74 153q0 67 39 120t103 83.5t136.5 46.5t147.5 18v-76q-86 -2 -164.5 -24t-133 -67.5t-54.5 -105.5q0 -75 59.5 -111.5t153.5 -36.5h250z" />
    <glyph glyph-name="uni06F7.urdu" horiz-adv-x="820" 
d="M366 -1l-281 887h77l252 -796h1l251 796h77l-283 -887h-94z" />
    <glyph glyph-name="guillemotleft.case" horiz-adv-x="697" 
d="M248 172l-169 250l169 247h50l-160 -247l160 -250h-50zM489 172l-170 250l170 247h49l-161 -247l161 -250h-49z" />
    <glyph glyph-name="guillemotright.case" horiz-adv-x="596" 
d="M90 666l169 -250l-169 -247h-49l161 247l-161 250h49zM330 666l170 -250l-170 -247h-49l160 247l-160 250h49z" />
    <glyph glyph-name="guilsinglleft.case" horiz-adv-x="374" 
d="M198 653h49l-161 -250l161 -247h-49l-169 247z" />
    <glyph glyph-name="guilsinglright.case" horiz-adv-x="374" 
d="M177 186h-49l160 250l-160 247h49l170 -247z" />
    <glyph glyph-name="dotabovear" 
d="M42 1105q-19 0 -32.5 13.5t-13.5 32.5t13.5 32t32.5 13q18 0 31 -13t13 -32t-13.5 -32.5t-30.5 -13.5z" />
    <glyph glyph-name="dotbelowar" 
d="M55 -272q-19 0 -33.5 14t-14.5 33t14.5 33.5t33.5 14.5t32 -14t13 -34q0 -19 -13 -33t-32 -14z" />
    <glyph glyph-name="dotcenterar" 
d="M55 399q-20 0 -34 13.5t-14 32.5t14.5 33.5t33.5 14.5t32 -14t13 -34q0 -19 -13 -32.5t-32 -13.5z" />
    <glyph glyph-name="twodotsverticalabovear" 
d="M49 1075q-19 0 -32.5 13.5t-13.5 32.5q0 20 13.5 34t32.5 14t33 -14t14 -34q0 -19 -13.5 -32.5t-33.5 -13.5zM49 952q-19 0 -32.5 13.5t-13.5 33.5q0 19 13.5 33t32.5 14t33 -14t14 -33t-14 -33t-33 -14z" />
    <glyph glyph-name="twodotsverticalbelowar" 
d="M55 -262q-20 0 -34 13.5t-14 32.5q0 20 14.5 34t33.5 14t32 -14t13 -34q0 -19 -13 -32.5t-32 -13.5zM55 -390q-20 0 -34 13.5t-14 32.5t14 32.5t34 13.5q19 0 32 -13.5t13 -32.5t-13 -32.5t-32 -13.5z" />
    <glyph glyph-name="twodotshorizontalabovear" 
d="M59 975q-19 0 -32 13t-13 32t13 32t32 13t32 -13t13 -32t-13 -32t-32 -13zM225 975q-19 0 -32.5 13t-13.5 32t13.5 32t32.5 13t31.5 -13t12.5 -32t-12.5 -32t-31.5 -13z" />
    <glyph glyph-name="twodotshorizontalbelowar" 
d="M52 -385q-20 0 -33.5 13.5t-13.5 32.5t13.5 33t33.5 14q19 0 32.5 -13.5t13.5 -33.5q0 -19 -13 -32.5t-33 -13.5zM221 -385q-20 0 -34 13.5t-14 32.5t14 33t34 14q19 0 32 -13.5t13 -33.5q0 -19 -13 -32.5t-32 -13.5z" />
    <glyph glyph-name="threedotsdownabovear" 
d="M57 1092q-19 0 -32.5 14t-13.5 33q0 20 13.5 33.5t32.5 13.5t33 -14t14 -33t-14 -33t-33 -14zM176 1092q-19 0 -32.5 14t-13.5 33q0 20 13.5 33.5t32.5 13.5q20 0 33.5 -14t13.5 -33t-14 -33t-33 -14zM116 991q-19 0 -32.5 14t-13.5 34q0 19 13.5 32.5t32.5 13.5
t32.5 -13.5t13.5 -32.5q0 -20 -13.5 -34t-32.5 -14z" />
    <glyph glyph-name="threedotsdownbelowar" 
d="M49 -287q-19 0 -31.5 12.5t-12.5 31.5t12.5 32t31.5 13t31.5 -13t12.5 -32t-12.5 -31.5t-31.5 -12.5zM198 -287q-18 0 -31 13t-13 31q0 19 13 32t31 13q19 0 32 -13t13 -32t-13 -31.5t-32 -12.5zM123 -414q-19 0 -32 13t-13 32t13 32t32 13t31.5 -13t12.5 -32t-12.5 -32
t-31.5 -13z" />
    <glyph glyph-name="threedotsupabovear" 
d="M128 1110q-17 0 -30 13.5t-13 30.5q0 19 12.5 32t30.5 13q20 0 32.5 -12.5t12.5 -32.5q0 -18 -13 -31t-32 -13zM55 987q-19 0 -32 13t-13 32t13 32t32 13t31 -13t12 -32t-12 -32t-31 -13zM213 987q-19 0 -32 13t-13 32t13 32t32 13t31.5 -13t12.5 -32t-12.5 -32
t-31.5 -13z" />
    <glyph glyph-name="threedotsupbelowar" 
d="M116 -284q-19 0 -32.5 14t-13.5 34q0 19 13.5 32.5t32.5 13.5t32.5 -13.5t13.5 -32.5q0 -20 -13.5 -34t-32.5 -14zM61 -384q-19 0 -32.5 14t-13.5 34q0 19 13.5 33t32.5 14t33 -14t14 -33q0 -20 -14 -34t-33 -14zM176 -384q-19 0 -32.5 14t-13.5 34q0 19 13.5 33t32.5 14
t33 -14t14 -33q0 -20 -14 -34t-33 -14z" />
    <glyph glyph-name="waslaar" 
 />
    <glyph glyph-name="miniKehehar" 
 />
    <glyph glyph-name="gafsarkashabovear" 
d="M209 952h49l-246 -485h-49z" />
    <glyph glyph-name="gafsarkashcenterar" 
 />
    <glyph glyph-name="doublestrokear" 
 />
    <glyph glyph-name="hamzacenterar" 
d="M105 698h116v-44h-221v44h49q-34 29 -34 84q0 50 25.5 77.5t70.5 27.5q90 0 105 -103h-40q-7 32 -22.5 46t-41.5 14q-29 0 -42.5 -15t-13.5 -49q0 -60 49 -82z" />
    <glyph glyph-name="uni0654064F" 
d="M161 1230l-166 -52v41l94 30q-29 24 -29 63q0 34 24 58.5t59 24.5q34 0 58 -24.5t24 -58.5q0 -30 -18 -53t-46 -29zM97 1313q0 -20 11.5 -33.5t30.5 -15.5l8 3l2 -3q18 2 29.5 15.5t11.5 33.5q0 19 -14 33t-33 14t-32.5 -13.5t-13.5 -33.5zM105 950h126v-50h-241v50h52
q-37 32 -37 90q0 53 28.5 82.5t77.5 29.5q99 0 114 -112h-46q-14 63 -67 63q-30 0 -43.5 -15.5t-13.5 -51.5q0 -62 50 -86z" />
    <glyph glyph-name="uni0654064C" 
d="M149 1236l-165 -52v5l-3 -1q6 43 -6.5 69.5t-50.5 10.5v35q41 18 64 -2t24 -67l66 21q-30 24 -30 63q0 34 24.5 58.5t58.5 24.5t58.5 -24.5t24.5 -58.5q0 -30 -18.5 -53t-46.5 -29zM86 1319q0 -20 11 -33.5t30 -15.5l8 2l2 -2q17 1 28.5 15t11.5 34t-13 33t-32 13
q-20 0 -33 -13t-13 -33zM105 950h126v-50h-241v50h52q-37 32 -37 90q0 53 28.5 82.5t77.5 29.5q99 0 114 -112h-46q-14 63 -67 63q-30 0 -43.5 -15.5t-13.5 -51.5q0 -62 50 -86z" />
    <glyph glyph-name="uni0654064E" 
d="M227 1343v-38l-230 -80v39zM105 950h126v-50h-241v50h52q-37 32 -37 90q0 53 28.5 82.5t77.5 29.5q99 0 114 -112h-46q-14 63 -67 63q-30 0 -43.5 -15.5t-13.5 -51.5q0 -62 50 -86z" />
    <glyph glyph-name="uni0654064B" 
d="M227 1434v-39l-230 -80v39zM227 1346v-38l-230 -81v39zM105 950h126v-50h-241v50h52q-37 32 -37 90q0 53 28.5 82.5t77.5 29.5q99 0 114 -112h-46q-14 63 -67 63q-30 0 -43.5 -15.5t-13.5 -51.5q0 -62 50 -86z" />
    <glyph glyph-name="uni06540652" 
d="M111 1180q-35 0 -60.5 25.5t-25.5 61.5q0 35 25.5 60.5t60.5 25.5q36 0 61 -25.5t25 -60.5q0 -37 -25 -62t-61 -25zM111 1315q-20 0 -33.5 -13.5t-13.5 -33.5q0 -22 13.5 -35.5t33.5 -13.5t33 13.5t13 35.5q0 20 -13 33.5t-33 13.5zM105 950h126v-50h-241v50h52
q-37 32 -37 90q0 53 28.5 82.5t77.5 29.5q99 0 114 -112h-46q-14 63 -67 63q-30 0 -43.5 -15.5t-13.5 -51.5q0 -62 50 -86z" />
    <glyph glyph-name="uni06550650" 
d="M169 -220h123v-49h-240v49h52q-37 34 -37 90q0 54 28.5 84t76.5 30q100 0 115 -114h-45q-14 63 -69 63q-30 0 -43.5 -14.5t-13.5 -50.5q0 -63 53 -88zM60 -477v43l219 72v-41z" />
    <glyph glyph-name="uni0655064D" 
d="M169 -220h123v-49h-240v49h52q-37 34 -37 90q0 54 28.5 84t76.5 30q100 0 115 -114h-45q-14 63 -69 63q-30 0 -43.5 -14.5t-13.5 -50.5q0 -63 53 -88zM57 -487v39l228 81v-40zM57 -579v40l228 80v-39z" />
    <glyph glyph-name="uni06510670" 
 />
    <glyph glyph-name="uni0651064F" 
 />
    <glyph glyph-name="uni0651064C" 
 />
    <glyph glyph-name="uni0651064E" 
d="M14 1247l229 80v-38l-229 -81v39zM83 924q-36 0 -59.5 23t-23.5 67v36l40 9v-45q0 -49 43 -49q40 0 40 62v63l39 10v-69q0 -19 13 -29.5t30 -10.5q52 0 52 63v72l39 10v-82q0 -50 -24 -78t-64 -28q-35 0 -56 31q-8 -26 -27.5 -40.5t-41.5 -14.5z" />
    <glyph glyph-name="uni0651064B.1" 
d="M14 1337l229 80v-38l-229 -81v39zM14 1248l229 80v-38l-229 -80v38zM83 924q-36 0 -59.5 23t-23.5 67v36l40 9v-45q0 -49 43 -49q40 0 40 62v63l39 10v-69q0 -19 13 -29.5t30 -10.5q52 0 52 63v72l39 10v-82q0 -50 -24 -78t-64 -28q-35 0 -56 31q-8 -26 -27.5 -40.5
t-41.5 -14.5z" />
    <glyph glyph-name="uni06510650" 
d="M79 1277q-36 0 -59.5 23t-23.5 68v36l39 9v-45q0 -50 44 -50q40 0 40 61v64l39 10v-70q0 -19 13 -29.5t30 -10.5q52 0 52 65v71l39 9v-80q0 -51 -24 -79t-63 -28q-38 0 -58 32q-7 -26 -26.5 -41t-41.5 -15zM18 1114l228 81v-39l-228 -80v38z" />
    <glyph glyph-name="out" 
d="M0 0l-38 15v57l38 15v-87z" />
    <glyph glyph-name="behnoondotless" horiz-adv-x="1383" 
 />
    </font>
</defs>
</svg>
